<?xml version="1.0" encoding="UTF-8" standalone="yes"?>
<!DOCTYPE svg PUBLIC "-//W3C//DTD SVG 1.1//EN" "http://www.w3.org/Graphics/SVG/1.1/DTD/svg11.dtd">

<svg width="140" height="140" viewBox="0 0 140 140" xmlns="http://www.w3.org/2000/svg" xmlns:xlink="http://www.w3.org/1999/xlink" version="1.1" baseProfile="full">
    <g transform="scale(1.000000,-1.000000) translate(0,-140)">
        <path d="M 131.000000 66.000000 C 131.000000 101.898509 101.898509 131.000000 66.000000 131.000000 C 30.101491 131.000000 1.000000 101.898509 1.000000 66.000000 C 1.000000 30.101491 30.101491 1.000000 66.000000 1.000000 C 101.898509 1.000000 131.000000 30.101491 131.000000 66.000000 Z" transform="scale(1.000000,1.000000) translate(4.000000,4.000000)" fill="rgb(15, 9, 28)" opacity="1.000000"></path>
        <path d="M 86.000000 51.000000 C 86.000000 70.329966 70.329966 86.000000 51.000000 86.000000 C 31.670034 86.000000 16.000000 70.329966 16.000000 51.000000 C 16.000000 31.670034 31.670034 16.000000 51.000000 16.000000 C 70.329966 16.000000 86.000000 31.670034 86.000000 51.000000 Z M 101.000000 51.000000 C 101.000000 23.385763 78.614237 1.000000 51.000000 1.000000 C 23.385763 1.000000 1.000000 23.385763 1.000000 51.000000 C 1.000000 78.614237 23.385763 101.000000 51.000000 101.000000 C 78.614237 101.000000 101.000000 78.614237 101.000000 51.000000 Z" transform="scale(1.000000,1.000000) translate(19.000000,19.000000)" fill="#ff2d42" opacity="1.000000"></path>
        <path d="M 7.011127 1.000000 L 41.331895 1.000000 C 44.592167 1.000000 47.343022 3.750855 47.343022 7.011127 C 47.343022 10.373283 44.592167 13.124138 41.331895 13.124138 L 7.011127 13.124138 C 3.750855 13.124138 1.000000 10.373283 1.000000 7.011127 C 1.000000 3.750855 3.750855 1.000000 7.011127 1.000000 Z" transform="scale(1.000000,1.000000) translate(45.828489,62.937931)" fill="#ff2d42" opacity="1.000000"></path>
        <path d="M 9.839600 6.144252 L 44.160300 6.144252 L 44.160300 3.937900 L 44.044815 6.141228 L 44.649615 6.172928 L 44.765100 3.969600 L 44.422055 6.149120 L 45.011655 6.241920 L 45.354700 4.062400 L 44.791323 6.195612 L 45.362323 6.346412 L 45.925700 4.213200 L 45.152936 6.279798 L 45.702236 6.485198 L 46.475000 4.418600 L 45.504348 6.399969 L 46.028548 6.656769 L 46.999200 4.675400 L 45.843703 6.554978 L 46.339503 6.859778 L 47.495000 4.980200 L 46.167668 6.742636 L 46.631868 7.092236 L 47.959200 5.329800 L 46.473535 6.960992 L 46.902835 7.351992 L 48.388500 5.720800 L 46.757497 7.206673 L 47.148597 7.635973 L 48.779600 6.150100 L 47.016982 7.477190 L 47.366482 7.941390 L 49.129100 6.614300 L 47.249691 7.770072 L 47.554591 8.265872 L 49.434000 7.110100 L 47.452481 8.080447 L 47.709181 8.604647 L 49.690700 7.634300 L 47.624102 8.407064 L 47.829502 8.956364 L 49.896100 8.183600 L 47.762863 8.746885 L 47.913663 9.317985 L 50.046900 8.754700 L 47.867445 9.098163 L 47.960345 9.687663 L 50.139800 9.344200 L 47.936472 9.459685 L 47.968172 10.064485 L 50.171500 9.949000 L 47.968001 9.836826 L 47.936301 10.459526 L 50.139800 10.571700 L 47.958983 10.236993 L 47.866083 10.842293 L 50.046900 11.177000 L 47.910482 10.625902 L 47.759682 11.210502 L 49.896100 11.761600 L 47.824250 11.003030 L 47.618850 11.564030 L 49.690700 12.322600 L 47.702175 11.366693 L 47.445475 11.900693 L 49.434000 12.856600 L 47.546112 11.714729 L 47.241212 12.218829 L 49.129100 13.360700 L 47.357270 12.045935 L 47.007770 12.516935 L 48.779600 13.831700 L 47.139556 12.355812 L 46.748456 12.790412 L 48.388500 14.266300 L 46.893971 12.643225 L 46.464671 13.038525 L 47.959200 14.661600 L 46.624394 12.904818 L 46.160194 13.257518 L 47.495000 15.014300 L 46.333195 13.138614 L 45.837395 13.445714 L 46.999200 15.321400 L 46.023984 13.342273 L 45.499784 13.600573 L 46.475000 15.579700 L 45.699268 13.514215 L 45.149968 13.720515 L 45.925700 15.786000 L 45.360577 13.653249 L 44.789577 13.804549 L 45.354700 15.937300 L 45.010933 13.757893 L 44.421333 13.850893 L 44.765100 16.030300 L 44.649615 13.826972 L 44.044815 13.858672 L 44.160300 16.062000 L 44.160300 13.855648 L 9.839600 13.855648 L 9.839600 16.062000 L 9.955085 13.858672 L 9.350285 13.826972 L 9.234800 16.030300 L 9.578567 13.850893 L 8.988967 13.757893 L 8.645200 15.937300 L 9.210323 13.804549 L 8.639323 13.653249 L 8.074200 15.786000 L 8.849932 13.720515 L 8.300632 13.514215 L 7.524900 15.579700 L 8.500116 13.600573 L 7.975916 13.342273 L 7.000700 15.321400 L 8.162505 13.445714 L 7.666705 13.138614 L 6.504900 15.014300 L 7.839706 13.257518 L 7.375506 12.904818 L 6.040700 14.661600 L 7.535229 13.038525 L 7.105929 12.643225 L 5.611400 14.266300 L 7.251444 12.790412 L 6.860344 12.355812 L 5.220300 13.831700 L 6.992130 12.516935 L 6.642630 12.045935 L 4.870800 13.360700 L 6.758854 12.219104 L 6.454054 11.715004 L 4.566000 12.856600 L 6.554379 11.900391 L 6.297579 11.366391 L 4.309200 12.322600 L 6.381050 11.564030 L 6.175650 11.003030 L 4.103800 11.761600 L 6.240218 11.210502 L 6.089418 10.625902 L 3.953000 11.177000 L 6.133817 10.842293 L 6.040917 10.236993 L 3.860100 10.571700 L 6.063599 10.459526 L 6.031899 9.836826 L 3.828400 9.949000 L 6.031728 10.064485 L 6.063428 9.459685 L 3.860100 9.344200 L 6.039555 9.687663 L 6.132455 9.098163 L 3.953000 8.754700 L 6.086237 9.317985 L 6.237037 8.746885 L 4.103800 8.183600 L 6.170398 8.956364 L 6.375798 8.407064 L 4.309200 7.634300 L 6.290569 8.604952 L 6.547369 8.080752 L 4.566000 7.110100 L 6.445578 8.265597 L 6.750378 7.769797 L 4.870800 6.614300 L 6.633418 7.941390 L 6.982918 7.477190 L 5.220300 6.150100 L 6.851303 7.635973 L 7.242403 7.206673 L 5.611400 5.720800 L 7.097065 7.351992 L 7.526365 6.960992 L 6.040700 5.329800 L 7.368032 7.092236 L 7.832232 6.742636 L 6.504900 4.980200 L 7.660397 6.859778 L 8.156197 6.554978 L 7.000700 4.675400 L 7.971352 6.656769 L 8.495552 6.399969 L 7.524900 4.418600 L 8.297664 6.485198 L 8.846964 6.279798 L 8.074200 4.213200 L 8.637577 6.346412 L 9.208577 6.195612 L 8.645200 4.062400 L 8.988245 6.241920 L 9.577845 6.149120 L 9.234800 3.969600 L 9.350285 6.172928 L 9.955085 6.141228 L 9.839600 3.937900 L 9.839600 6.144252 Z M 9.839600 1.731548 L 9.724115 1.734572 L 9.119315 1.766272 C 9.043101 1.770267 8.967145 1.778214 8.891755 1.790080 L 8.302155 1.882880 C 8.227970 1.894556 8.154431 1.910012 8.081823 1.929188 L 7.510823 2.079988 L 7.301436 2.146602 L 6.752136 2.352002 L 6.554248 2.437231 L 6.030048 2.694031 L 5.845203 2.795822 L 5.349403 3.100622 L 5.177568 3.217764 L 4.713368 3.567364 L 4.555035 3.698608 L 4.125735 4.089608 L 3.980397 4.234927 L 3.589297 4.664227 L 3.457682 4.823010 L 3.108182 5.287210 L 2.991222 5.458803 L 2.686422 5.954603 L 2.584631 6.139448 L 2.327831 6.663648 L 2.242602 6.861536 L 2.037202 7.410836 L 1.970563 7.620315 L 1.819763 8.191415 C 1.800635 8.263857 1.785209 8.337226 1.773545 8.411237 L 1.680645 9.000737 C 1.668743 9.076265 1.660775 9.152360 1.656772 9.228715 L 1.625072 9.833515 C 1.621098 9.909348 1.621041 9.985335 1.624901 10.061174 L 1.656601 10.683874 C 1.660395 10.758387 1.667965 10.832660 1.679283 10.906407 L 1.772183 11.511707 L 1.816582 11.728098 L 1.967382 12.312698 L 2.031950 12.520170 L 2.237350 13.081170 L 2.320821 13.278809 L 2.577621 13.812809 L 2.677946 13.998196 L 2.982746 14.502296 L 3.098970 14.675465 L 3.448470 15.146465 L 3.580256 15.307588 L 3.971356 15.742188 L 4.116871 15.889375 L 4.546171 16.284675 L 4.705894 16.418382 L 5.170094 16.771082 L 5.343095 16.889986 L 5.838895 17.197086 L 6.025484 17.300527 L 6.549684 17.558827 L 6.749168 17.645185 L 7.298468 17.851485 L 7.509077 17.918751 L 8.080077 18.070051 C 8.153016 18.089378 8.226899 18.104950 8.301433 18.116707 L 8.891033 18.209707 C 8.966661 18.221636 9.042857 18.229620 9.119315 18.233628 L 9.724115 18.265328 L 9.839600 18.268352 L 44.160300 18.268352 L 44.275785 18.265328 L 44.880585 18.233628 C 44.957043 18.229620 45.033239 18.221636 45.108867 18.209707 L 45.698467 18.116707 C 45.773001 18.104950 45.846884 18.089378 45.919823 18.070051 L 46.490823 17.918751 L 46.701432 17.851485 L 47.250732 17.645185 L 47.450216 17.558827 L 47.974416 17.300527 L 48.161005 17.197086 L 48.656805 16.889986 L 48.829806 16.771082 L 49.294006 16.418382 L 49.453729 16.284675 L 49.883029 15.889375 L 50.028544 15.742188 L 50.419644 15.307588 L 50.551430 15.146465 L 50.900930 14.675465 L 51.016988 14.502571 L 51.321888 13.998471 L 51.422525 13.812507 L 51.679225 13.278507 L 51.762550 13.081170 L 51.967950 12.520170 L 52.032518 12.312698 L 52.183318 11.728098 L 52.227717 11.511707 L 52.320617 10.906407 C 52.331935 10.832660 52.339505 10.758387 52.343299 10.683874 L 52.374999 10.061174 C 52.378859 9.985335 52.378802 9.909348 52.374828 9.833515 L 52.343128 9.228715 C 52.339125 9.152360 52.331157 9.076265 52.319255 9.000737 L 52.226355 8.411237 C 52.214691 8.337226 52.199265 8.263857 52.180137 8.191415 L 52.029337 7.620315 L 51.962698 7.410836 L 51.757298 6.861536 L 51.672219 6.663953 L 51.415519 6.139753 L 51.313409 5.954328 L 51.008509 5.458528 L 50.891718 5.287210 L 50.542218 4.823010 L 50.410603 4.664227 L 50.019503 4.234927 L 49.874165 4.089608 L 49.444865 3.698608 L 49.286532 3.567364 L 48.822332 3.217764 L 48.650497 3.100622 L 48.154697 2.795822 L 47.969852 2.694031 L 47.445652 2.437231 L 47.247764 2.352002 L 46.698464 2.146602 L 46.489077 2.079988 L 45.918077 1.929188 C 45.845469 1.910012 45.771930 1.894556 45.697745 1.882880 L 45.108145 1.790080 C 45.032755 1.778214 44.956799 1.770267 44.880585 1.766272 L 44.275785 1.734572 L 44.160300 1.731548 L 9.839600 1.731548 Z" transform="scale(1.000000,1.000000) translate(43.000000,60.000000)" fill="#ff2d42" opacity="1.000000"></path>
    </g>
</svg>