<?xml version="1.0" encoding="UTF-8" standalone="yes"?>
<!DOCTYPE svg PUBLIC "-//W3C//DTD SVG 1.1//EN" "http://www.w3.org/Graphics/SVG/1.1/DTD/svg11.dtd">

<svg width="500" height="500" viewBox="0 0 500 500" xmlns="http://www.w3.org/2000/svg" xmlns:xlink="http://www.w3.org/1999/xlink" version="1.1" baseProfile="full">
    <g transform="scale(1.000000,-1.000000) translate(0,-500)">
        <path d="M 280.906622 238.404316 C 267.122791 241.750903 254.068671 248.853548 245.041963 251.693301 C 237.857892 253.953616 229.099266 256.827369 221.683191 257.344082 C 185.026785 259.898600 172.573995 237.936117 142.778391 223.076901 C 115.161536 209.304585 85.245883 225.180844 56.512455 220.583265 C 43.747885 218.541144 27.217472 212.386006 21.784492 196.956613 C 17.415774 184.550555 23.907260 172.343815 26.919825 160.697990 C 29.698826 149.954866 28.875458 139.672206 24.975442 129.464656 C 16.957272 108.477502 -8.879458 82.817981 5.048502 58.202409 C 19.555800 32.562373 59.396076 29.120598 82.817107 28.055032 C 113.818722 26.644890 145.042667 34.868415 175.881066 29.228452 C 195.047407 25.723017 212.519672 15.671533 231.062734 9.490733 C 266.547387 -2.333104 315.486567 -4.527274 347.416948 20.803441 C 373.841656 41.768639 365.338565 70.836229 366.936650 102.051040 C 369.036929 143.091422 392.728389 186.359360 353.859000 214.968644 C 332.173630 230.928972 305.340916 232.471385 280.906622 238.404316 Z" transform="scale(1.000000,1.000000) translate(61.500000,120.725791)" fill="#dd716d" opacity="0.35"></path>
    </g>
</svg>