<?xml version="1.0" encoding="UTF-8" standalone="yes"?>
<!DOCTYPE svg PUBLIC "-//W3C//DTD SVG 1.1//EN" "http://www.w3.org/Graphics/SVG/1.1/DTD/svg11.dtd">

<svg width="500" height="500" viewBox="0 0 500 500" xmlns="http://www.w3.org/2000/svg" xmlns:xlink="http://www.w3.org/1999/xlink" version="1.1" baseProfile="full">
    <g transform="scale(1.000000,-1.000000) translate(0,-500)">
        <path d="M 52.571709 1.000000 L 496.791679 52.571709 C 496.791679 52.571709 496.791679 52.571709 496.791679 52.571709 L 445.219971 496.791679 C 445.219971 496.791679 445.219971 496.791679 445.219971 496.791679 L 1.000000 445.219971 C 1.000000 445.219971 1.000000 445.219971 1.000000 445.219971 L 52.571709 1.000000 C 52.571709 1.000000 52.571709 1.000000 52.571709 1.000000 Z" transform="scale(1.000000,1.000000) translate(1.104160,1.104151)" fill="#ffc900" opacity="1.000000"></path>
        <path d="M 1.000000 1.000000 L 35.512351 1.000000 L 48.610412 32.185860 L 109.734697 32.185860 L 122.832758 1.000000 L 157.345110 1.000000 L 94.141768 148.613069 L 64.203342 148.613069 Z M 60.668945 60.876851 L 79.172555 105.368677 L 97.676165 60.876851 Z M 165.351458 1.000000 L 215.664645 1.000000 C 257.245791 1.000000 290.926519 33.849106 290.926519 74.806535 C 290.926519 115.763964 257.245791 148.613069 215.664645 148.613069 L 165.351458 148.613069 Z M 198.408469 31.354237 L 198.408469 118.258832 L 215.664645 118.258832 C 240.613332 118.258832 257.453696 98.507788 257.453696 74.806535 C 257.453696 51.105281 240.613332 31.354237 215.664645 31.354237 Z M 283.963654 1.000000 L 318.476006 1.000000 L 331.574067 32.185860 L 392.698352 32.185860 L 405.796413 1.000000 L 440.308764 1.000000 L 377.105422 148.613069 L 347.166997 148.613069 Z M 343.632599 60.876851 L 362.136209 105.368677 L 380.639819 60.876851 Z" transform="scale(1.000000,1.000000) translate(38.530249,174.652584)" fill="#ffffff" opacity="1.000000"></path>
        <path d="M 169.095799 1.001859 L 170.036499 1.016859 L 170.971999 1.046759 L 171.902199 1.091759 L 172.827299 1.151659 L 173.747199 1.226659 L 174.661799 1.316559 L 175.571299 1.421459 L 176.475499 1.541359 L 177.374599 1.676259 L 178.268399 1.826159 L 179.157099 1.990959 L 180.040499 2.170859 L 180.918799 2.365659 L 181.791799 2.575559 L 182.659599 2.800359 L 183.522199 3.040159 L 184.379599 3.294959 L 185.231899 3.564659 L 186.078899 3.849459 L 186.920699 4.149259 L 187.757299 4.463959 L 188.588699 4.793659 L 189.414899 5.138459 L 190.235899 5.498159 L 191.051599 5.872759 L 191.862199 6.262459 L 192.667599 6.667159 L 193.467799 7.086759 L 194.262699 7.521459 L 195.052499 7.971059 L 195.837099 8.435659 L 196.227399 8.673659 L 196.615799 8.914759 L 197.384999 9.405159 L 198.143899 9.906459 L 198.892699 10.418559 L 199.631199 10.941459 L 200.359599 11.475159 L 201.077699 12.019759 L 201.785699 12.575059 L 202.483499 13.141259 L 203.170999 13.718259 L 203.848399 14.306159 L 204.515499 14.904859 L 205.172499 15.514359 L 205.819199 16.134659 L 206.455799 16.765759 L 207.082199 17.407759 L 207.698299 18.060559 L 208.304299 18.724159 L 208.899999 19.398659 L 209.485599 20.083859 L 210.060899 20.779959 L 210.626099 21.486859 L 211.181099 22.204659 L 211.725799 22.933159 L 212.260399 23.672559 L 212.784699 24.422759 L 213.298899 25.183859 L 213.802899 25.955659 L 214.296599 26.738359 L 214.780199 27.531859 L 215.253499 28.336259 L 215.716699 29.151359 L 215.944499 29.563059 L 216.169199 29.976759 L 216.607999 30.808159 L 217.032599 31.644959 L 217.443099 32.487159 L 217.839499 33.334759 L 218.221599 34.187859 L 218.589699 35.046259 L 218.943499 35.910159 L 219.283299 36.779459 L 219.608799 37.654159 L 219.920199 38.534259 L 220.217499 39.419759 L 220.500599 40.310659 L 220.769499 41.207059 L 221.024299 42.108759 L 221.264999 43.015959 L 221.491399 43.928559 L 221.703799 44.846559 L 221.901899 45.769959 L 222.085899 46.698759 L 222.255799 47.632959 L 222.411499 48.572659 L 222.553099 49.517659 L 222.680499 50.468159 L 222.793699 51.424059 L 222.892799 52.385259 L 222.977699 53.351959 L 223.048499 54.324159 L 223.105099 55.301659 L 223.147599 56.284559 L 223.175899 57.272959 L 223.189999 58.266659 L 223.191799 58.765559 L 223.189999 59.264559 L 223.175899 60.258559 L 223.147599 61.247259 L 223.105099 62.230859 L 223.048499 63.209159 L 222.977699 64.182359 L 222.892799 65.150359 L 222.793699 66.113059 L 222.680499 67.070559 L 222.553099 68.022959 L 222.411499 68.970059 L 222.255799 69.911959 L 222.085899 70.848759 L 221.901899 71.780259 L 221.703799 72.706559 L 221.491399 73.627659 L 221.264999 74.543559 L 221.024299 75.454259 L 220.769499 76.359859 L 220.500599 77.260159 L 220.217499 78.155159 L 219.920199 79.045059 L 219.608799 79.929759 L 219.283299 80.809259 L 218.943499 81.683559 L 218.589699 82.552659 L 218.221599 83.416459 L 217.839499 84.275159 L 217.443099 85.128659 L 217.032599 85.976859 L 216.607999 86.819959 L 216.169199 87.657759 L 215.944499 88.074759 L 215.716699 88.489659 L 215.253499 89.311359 L 214.780199 90.121859 L 214.296599 90.921459 L 213.802899 91.709959 L 213.298899 92.487459 L 212.784699 93.253859 L 212.260399 94.009259 L 211.725799 94.753659 L 211.181099 95.487059 L 210.626099 96.209359 L 210.060899 96.920659 L 209.485599 97.620959 L 208.899999 98.310159 L 208.304299 98.988359 L 207.698299 99.655459 L 207.082199 100.311559 L 206.455799 100.956659 L 205.819199 101.590759 L 205.172499 102.213759 L 204.515499 102.825759 L 203.848399 103.426759 L 203.170999 104.016659 L 202.483499 104.595559 L 201.785699 105.163459 L 201.077699 105.720259 L 200.359599 106.266059 L 199.631199 106.800859 L 198.892699 107.324559 L 198.143899 107.837259 L 197.384999 108.338959 L 196.615799 108.829559 L 196.227399 109.070759 L 195.837099 109.308659 L 195.052499 109.773259 L 194.262699 110.222959 L 193.467799 110.657559 L 192.667599 111.077259 L 191.862199 111.481859 L 191.051599 111.871559 L 190.235899 112.246259 L 189.414899 112.605959 L 188.588699 112.950659 L 187.757299 113.280359 L 186.920699 113.595159 L 186.078899 113.894859 L 185.231899 114.179659 L 184.379599 114.449459 L 183.522199 114.704259 L 182.659599 114.944059 L 181.791799 115.168859 L 180.918799 115.378659 L 180.040499 115.573559 L 179.157099 115.753359 L 178.268399 115.918259 L 177.374599 116.068059 L 176.475499 116.202959 L 175.571299 116.322859 L 174.661799 116.427859 L 173.747199 116.517759 L 172.827299 116.592659 L 171.902199 116.652659 L 170.971999 116.697559 L 170.036499 116.727559 L 169.095799 116.742559 L 168.623499 116.744459 L 168.164299 116.742459 L 167.248399 116.727059 L 166.335799 116.696259 L 165.426599 116.650059 L 164.520599 116.588459 L 163.618099 116.511459 L 162.718799 116.419059 L 161.822899 116.311159 L 160.930299 116.187959 L 160.040999 116.049359 L 159.155099 115.895259 L 158.272499 115.725859 L 157.393199 115.540959 L 156.517199 115.340759 L 155.644599 115.125059 L 154.775399 114.894059 L 153.909399 114.647559 L 153.046799 114.385659 L 152.187499 114.108459 L 151.331499 113.815759 L 150.478899 113.507659 L 149.629599 113.184159 L 148.783599 112.845259 L 147.940999 112.490959 L 147.101699 112.121359 L 146.265699 111.736259 L 145.433099 111.335759 L 144.603699 110.919759 L 143.777799 110.488459 L 142.955099 110.041759 L 142.135799 109.579659 L 141.319799 109.102159 L 140.912999 108.857559 L 140.912999 130.976059 L 114.055199 127.859059 L 114.055199 2.918359 L 140.912999 2.918359 L 140.912999 8.886759 L 141.306699 8.642259 L 142.097699 8.164759 L 142.893699 7.702559 L 143.694699 7.255859 L 144.500699 6.824559 L 145.311699 6.408659 L 146.127699 6.008159 L 146.948699 5.623059 L 147.774699 5.253359 L 148.605699 4.899059 L 149.441599 4.560159 L 150.282599 4.236659 L 151.128599 3.928659 L 151.979499 3.635959 L 152.835499 3.358659 L 153.696499 3.096859 L 154.562399 2.850359 L 155.433399 2.619259 L 156.309299 2.403659 L 157.190199 2.203359 L 158.076199 2.018559 L 158.967099 1.849059 L 159.862999 1.695059 L 160.763999 1.556459 L 161.669899 1.433159 L 162.580799 1.325359 L 163.496699 1.232959 L 164.417599 1.155959 L 165.343499 1.094259 L 166.274399 1.048059 L 167.210299 1.017259 L 168.151199 1.001859 L 168.623499 0.999959 Z M 49.891099 1.003459 L 51.314899 1.031759 L 52.723699 1.088459 L 54.117599 1.173359 L 55.496399 1.286559 L 56.860299 1.428159 L 58.209199 1.597959 L 59.543099 1.796159 L 60.861999 2.022659 L 62.165899 2.277459 L 63.454899 2.560559 L 64.728799 2.871959 L 65.987799 3.211659 L 67.231699 3.579659 L 68.460699 3.976059 L 69.674699 4.400659 L 70.276099 4.623659 L 70.276099 2.918359 L 97.133899 2.918359 L 97.133899 71.341859 L 97.127599 72.138859 L 97.076799 73.718359 L 96.975199 75.278759 L 96.822799 76.819959 L 96.619699 78.342059 L 96.365699 79.844959 L 96.060999 81.328759 L 95.705399 82.793359 L 95.299099 84.238859 L 94.841999 85.665159 L 94.334099 87.072359 L 93.775399 88.460359 L 93.165899 89.829259 L 92.505599 91.178959 L 91.794499 92.509559 L 91.032599 93.820959 L 90.632599 94.469459 L 90.221499 95.111259 L 89.370599 96.368559 L 88.481299 97.590859 L 87.553699 98.778259 L 86.587899 99.930559 L 85.583699 101.047959 L 84.541199 102.130459 L 83.460399 103.177959 L 82.341399 104.190459 L 81.183999 105.167959 L 79.988299 106.110459 L 78.754299 107.018059 L 77.481999 107.890659 L 76.171499 108.728359 L 74.822599 109.530959 L 73.435399 110.298659 L 72.727399 110.669459 L 72.012099 111.030059 L 70.565799 111.717059 L 69.098599 112.358159 L 67.610699 112.953459 L 66.101999 113.503059 L 64.572399 114.006759 L 63.021999 114.464759 L 61.450799 114.876859 L 59.858799 115.243259 L 58.245899 115.563859 L 56.612299 115.838559 L 54.957799 116.067559 L 53.282499 116.250759 L 51.586399 116.388159 L 49.869499 116.479759 L 48.131799 116.525559 L 47.255099 116.531259 L 46.497399 116.526859 L 44.991999 116.491959 L 43.499899 116.421959 L 42.021099 116.317059 L 40.555599 116.177159 L 39.103499 116.002359 L 37.664699 115.792459 L 36.239199 115.547659 L 34.826999 115.267959 L 33.428199 114.953159 L 32.042699 114.603459 L 30.670499 114.218759 L 29.311599 113.799159 L 27.965999 113.344559 L 26.633799 112.854959 L 25.314899 112.330359 L 24.660399 112.054959 L 24.010999 111.771459 L 22.731999 111.181959 L 21.479699 110.562459 L 20.254099 109.912959 L 19.054999 109.233559 L 17.882699 108.524159 L 16.736999 107.784759 L 15.617899 107.015359 L 14.525499 106.216059 L 13.459699 105.386759 L 12.420499 104.527459 L 11.407999 103.638159 L 10.422199 102.718959 L 9.462999 101.769659 L 8.530399 100.790459 L 7.624499 99.781359 L 7.181499 99.265559 L 27.857799 81.999759 L 28.239099 82.446459 L 29.051799 83.302459 L 29.931099 84.108459 L 30.876999 84.864459 L 31.889499 85.570559 L 32.968599 86.226659 L 34.114299 86.832859 L 35.326599 87.389059 L 35.957799 87.648459 L 36.601399 87.893659 L 37.913699 88.336659 L 39.259199 88.716259 L 40.638099 89.032759 L 42.050199 89.285859 L 43.495699 89.475659 L 44.974499 89.602259 L 46.486599 89.665559 L 47.255099 89.673459 L 47.851499 89.668859 L 49.025499 89.632259 L 50.174599 89.558959 L 51.298599 89.449059 L 52.397699 89.302459 L 53.471899 89.119259 L 54.520999 88.899459 L 55.545099 88.643059 L 56.544299 88.349959 L 57.518499 88.020259 L 58.467699 87.653859 L 59.391999 87.250859 L 60.291199 86.811259 L 61.165499 86.334959 L 62.014799 85.822059 L 62.839099 85.272459 L 63.241899 84.983959 L 63.635999 84.688159 L 64.390299 84.080359 L 65.099799 83.450859 L 65.764199 82.799759 L 66.383699 82.126959 L 66.958199 81.432559 L 67.487799 80.716459 L 67.972399 79.978759 L 68.411999 79.219359 L 68.806699 78.438359 L 69.156399 77.635659 L 69.461199 76.811359 L 69.720899 75.965359 L 69.935799 75.097759 L 70.105599 74.208459 L 70.230499 73.297559 L 70.276099 72.833959 L 69.661799 73.056959 L 68.424499 73.481559 L 67.175499 73.877959 L 65.914899 74.245959 L 64.642599 74.585659 L 63.358699 74.897059 L 62.063099 75.180159 L 60.755799 75.434959 L 59.436899 75.661459 L 58.106399 75.859659 L 56.764099 76.029459 L 55.410299 76.171059 L 54.044699 76.284259 L 52.667499 76.369159 L 51.278699 76.425859 L 49.878199 76.454159 L 49.173499 76.457659 L 48.323499 76.452859 L 46.639099 76.414559 L 44.975399 76.337959 L 43.332599 76.223059 L 41.710599 76.069859 L 40.109399 75.878359 L 38.529099 75.648559 L 36.969499 75.380459 L 35.430799 75.074059 L 33.912899 74.729259 L 32.415799 74.346259 L 30.939499 73.924959 L 29.483999 73.465359 L 28.049399 72.967459 L 26.635599 72.431159 L 25.242499 71.856659 L 24.553799 71.555059 L 23.872299 71.244959 L 22.536799 70.603059 L 21.237799 69.931959 L 19.975499 69.231659 L 18.749899 68.502259 L 17.560899 67.743759 L 16.408499 66.956059 L 15.292699 66.139259 L 14.213599 65.293259 L 13.171199 64.418159 L 12.165299 63.513859 L 11.196099 62.580459 L 10.263599 61.617959 L 9.367599 60.626259 L 8.508299 59.605459 L 7.685699 58.555459 L 7.288099 58.019559 L 6.901199 57.478059 L 6.164299 56.383059 L 5.476599 55.272359 L 4.837899 54.145759 L 4.248399 53.003359 L 3.707999 51.845159 L 3.216799 50.671159 L 2.774599 49.481259 L 2.381599 48.275659 L 2.037699 47.054159 L 1.742999 45.816859 L 1.497399 44.563659 L 1.300799 43.294759 L 1.153499 42.009959 L 1.055199 40.709359 L 1.006099 39.392959 L 0.999999 38.728859 L 1.006099 38.064659 L 1.055199 36.748259 L 1.153499 35.447659 L 1.300799 34.162859 L 1.497399 32.893959 L 1.742999 31.640759 L 2.037699 30.403459 L 2.381599 29.181959 L 2.774599 27.976359 L 3.216799 26.786459 L 3.707999 25.612459 L 4.248399 24.454259 L 4.837899 23.311859 L 5.476599 22.185259 L 6.164299 21.074559 L 6.901199 19.979559 L 7.288099 19.438059 L 7.685699 18.902159 L 8.508299 17.852159 L 9.367599 16.831359 L 10.263599 15.839659 L 11.196099 14.877159 L 12.165299 13.943759 L 13.171199 13.039459 L 14.213599 12.164359 L 15.292699 11.318459 L 16.408499 10.501559 L 17.560899 9.713859 L 18.749899 8.955359 L 19.975499 8.225959 L 21.237799 7.525759 L 22.536799 6.854559 L 23.872299 6.212659 L 24.553799 5.902559 L 25.242499 5.600959 L 26.635599 5.026459 L 28.049399 4.490159 L 29.483999 3.992259 L 30.939499 3.532659 L 32.415799 3.111359 L 33.912899 2.728359 L 35.430799 2.383559 L 36.969499 2.077159 L 38.529099 1.809059 L 40.109399 1.579259 L 41.710599 1.387759 L 43.332599 1.234559 L 44.975399 1.119659 L 46.639099 1.043059 L 48.323499 1.004759 L 49.173499 0.999959 Z M 168.251499 27.859959 L 167.513299 27.877259 L 166.783099 27.911759 L 166.060799 27.963559 L 165.346399 28.032759 L 164.639899 28.119059 L 163.941299 28.222759 L 163.250599 28.343759 L 162.567799 28.481959 L 161.892999 28.637459 L 161.225999 28.810159 L 160.566999 29.000259 L 159.915899 29.207559 L 159.272599 29.432159 L 158.637299 29.674059 L 158.009899 29.933259 L 157.390399 30.209659 L 156.778899 30.503359 L 156.175199 30.814359 L 155.579399 31.142659 L 154.991599 31.488159 L 154.411599 31.851059 L 153.839599 32.231159 L 153.275499 32.628459 L 152.719299 33.043159 L 152.170999 33.475059 L 151.630599 33.924359 L 151.098099 34.390759 L 150.573599 34.874559 L 150.056899 35.375659 L 149.548199 35.893959 L 149.047299 36.429559 L 148.799899 36.703859 L 148.555299 36.981359 L 148.077799 37.542759 L 147.615699 38.112659 L 147.168999 38.691159 L 146.737699 39.278159 L 146.321799 39.873759 L 145.921299 40.477859 L 145.536199 41.090459 L 145.166499 41.711559 L 144.812199 42.341259 L 144.473299 42.979459 L 144.149799 43.626259 L 143.841699 44.281559 L 143.548999 44.945359 L 143.271799 45.617759 L 143.009899 46.298659 L 142.763399 46.988059 L 142.532399 47.686059 L 142.316699 48.392559 L 142.116499 49.107559 L 141.931599 49.831159 L 141.762199 50.563259 L 141.608099 51.303859 L 141.469499 52.053059 L 141.346299 52.810759 L 141.238499 53.576959 L 141.145999 54.351759 L 141.068999 55.135059 L 141.007399 55.926959 L 140.961199 56.727359 L 140.930399 57.536259 L 140.914999 58.353659 L 140.912999 58.765559 L 140.914999 59.177559 L 140.930599 59.995259 L 140.961799 60.804559 L 141.008699 61.605559 L 141.071099 62.398259 L 141.149199 63.182559 L 141.242899 63.958659 L 141.352099 64.726359 L 141.476999 65.485659 L 141.617499 66.236759 L 141.773699 66.979459 L 141.945399 67.713859 L 142.132699 68.439959 L 142.335699 69.157659 L 142.554299 69.867059 L 142.788499 70.568159 L 143.038199 71.260959 L 143.303599 71.945359 L 143.584699 72.621459 L 143.881299 73.289259 L 144.193499 73.948659 L 144.521399 74.599859 L 144.864899 75.242659 L 145.223899 75.877159 L 145.598599 76.503259 L 145.988899 77.121059 L 146.394799 77.730559 L 146.816399 78.331759 L 147.253499 78.924559 L 147.706299 79.509159 L 148.174599 80.085259 L 148.658599 80.653159 L 148.906399 80.933959 L 149.157199 81.211559 L 149.663999 81.753659 L 150.178199 82.278159 L 150.699599 82.785259 L 151.228399 83.274859 L 151.764399 83.746959 L 152.307699 84.201559 L 152.858299 84.638759 L 153.416099 85.058359 L 153.981299 85.460559 L 154.553699 85.845259 L 155.133499 86.212459 L 155.720499 86.562159 L 156.314799 86.894359 L 156.916399 87.209159 L 157.525199 87.506359 L 158.141399 87.786159 L 158.764799 88.048459 L 159.395599 88.293259 L 160.033599 88.520559 L 160.678899 88.730359 L 161.331499 88.922659 L 161.991399 89.097559 L 162.658499 89.254959 L 163.332999 89.394759 L 164.014699 89.517159 L 164.703699 89.622159 L 165.399999 89.709559 L 166.103599 89.779459 L 166.814499 89.831959 L 167.532599 89.866959 L 168.258099 89.884359 L 168.623499 89.886559 L 168.988999 89.884359 L 169.714399 89.866959 L 170.432599 89.831959 L 171.143399 89.779459 L 171.846999 89.709559 L 172.543299 89.622159 L 173.232299 89.517159 L 173.914099 89.394759 L 174.588499 89.254959 L 175.255699 89.097559 L 175.915499 88.922659 L 176.568099 88.730359 L 177.213399 88.520559 L 177.851399 88.293259 L 178.482199 88.048459 L 179.105599 87.786159 L 179.721799 87.506359 L 180.330599 87.209159 L 180.932199 86.894359 L 181.526499 86.562159 L 182.113499 86.212459 L 182.693299 85.845259 L 183.265699 85.460559 L 183.830899 85.058359 L 184.388799 84.638759 L 184.939299 84.201559 L 185.482599 83.746959 L 186.018699 83.274859 L 186.547399 82.785259 L 187.068799 82.278159 L 187.582999 81.753659 L 188.089899 81.211559 L 188.340599 80.933959 L 188.588399 80.653159 L 189.072399 80.085259 L 189.540699 79.509159 L 189.993499 78.924559 L 190.430599 78.331759 L 190.852199 77.730559 L 191.258099 77.121059 L 191.648399 76.503259 L 192.023099 75.877159 L 192.382199 75.242659 L 192.725599 74.599859 L 193.053499 73.948659 L 193.365699 73.289259 L 193.662299 72.621459 L 193.943399 71.945359 L 194.208799 71.260959 L 194.458599 70.568159 L 194.692699 69.867059 L 194.911299 69.157659 L 195.114299 68.439959 L 195.301599 67.713859 L 195.473399 66.979459 L 195.629499 66.236759 L 195.769999 65.485659 L 195.894899 64.726359 L 196.004199 63.958659 L 196.097799 63.182559 L 196.175899 62.398259 L 196.238299 61.605559 L 196.285199 60.804559 L 196.316399 59.995259 L 196.331999 59.177559 L 196.333999 58.765559 L 196.331999 58.353659 L 196.316599 57.536259 L 196.285799 56.727359 L 196.239599 55.926959 L 196.177999 55.135059 L 196.100999 54.351759 L 196.008599 53.576959 L 195.900699 52.810759 L 195.777499 52.053059 L 195.638899 51.303859 L 195.484799 50.563259 L 195.315399 49.831159 L 195.130499 49.107559 L 194.930299 48.392559 L 194.714599 47.686059 L 194.483599 46.988059 L 194.237099 46.298659 L 193.975199 45.617759 L 193.697999 44.945359 L 193.405299 44.281559 L 193.097199 43.626259 L 192.773699 42.979459 L 192.434799 42.341259 L 192.080599 41.711559 L 191.710899 41.090459 L 191.325799 40.477859 L 190.925299 39.873759 L 190.509399 39.278159 L 190.077999 38.691159 L 189.631299 38.112659 L 189.169199 37.542759 L 188.691699 36.981359 L 188.447099 36.703859 L 188.199699 36.429559 L 187.698899 35.893959 L 187.190099 35.375659 L 186.673499 34.874559 L 186.148899 34.390759 L 185.616399 33.924359 L 185.075999 33.475059 L 184.527699 33.043159 L 183.971499 32.628459 L 183.407399 32.231159 L 182.835399 31.851059 L 182.255399 31.488159 L 181.667599 31.142659 L 181.071799 30.814359 L 180.468199 30.503359 L 179.856599 30.209659 L 179.237099 29.933259 L 178.609699 29.674059 L 177.974399 29.432159 L 177.331199 29.207559 L 176.679999 29.000259 L 176.020999 28.810159 L 175.353999 28.637459 L 174.679199 28.481959 L 173.996399 28.343759 L 173.305699 28.222759 L 172.607099 28.119059 L 171.900599 28.032759 L 171.186199 27.963559 L 170.463899 27.911759 L 169.733699 27.877259 L 168.995499 27.859959 L 168.623499 27.857759 Z M 48.629699 27.861159 L 47.556399 27.887759 L 46.502299 27.941059 L 45.467299 28.020959 L 44.451499 28.127559 L 43.454799 28.260759 L 42.477299 28.420659 L 41.518899 28.607159 L 40.579699 28.820359 L 39.659599 29.060159 L 38.758699 29.326559 L 37.876899 29.619659 L 37.014299 29.939359 L 36.170799 30.285759 L 35.346499 30.658759 L 34.541299 31.058459 L 34.145899 31.268259 L 33.759099 31.482059 L 33.022199 31.913359 L 32.334399 32.349659 L 31.695799 32.790959 L 31.106199 33.237259 L 30.565899 33.688559 L 30.074599 34.144859 L 29.632499 34.606159 L 29.239499 35.072459 L 28.895599 35.543759 L 28.600799 36.019959 L 28.355199 36.501259 L 28.158699 36.987559 L 28.011299 37.478759 L 27.913099 37.975059 L 27.863899 38.476359 L 27.857799 38.728859 L 27.863899 38.981359 L 27.913099 39.482559 L 28.011299 39.978859 L 28.158699 40.470059 L 28.355199 40.956359 L 28.600799 41.437659 L 28.895599 41.913859 L 29.239499 42.385159 L 29.632499 42.851459 L 30.074599 43.312759 L 30.565899 43.769059 L 31.106199 44.220359 L 31.695799 44.666659 L 32.334399 45.107959 L 33.022199 45.544259 L 33.759099 45.975559 L 34.145899 46.189359 L 34.541299 46.399159 L 35.346499 46.798859 L 36.170799 47.171859 L 37.014299 47.518259 L 37.876899 47.837959 L 38.758699 48.131059 L 39.659599 48.397459 L 40.579699 48.637259 L 41.518899 48.850459 L 42.477299 49.036959 L 43.454799 49.196859 L 44.451499 49.330059 L 45.467299 49.436659 L 46.502299 49.516559 L 47.556399 49.569859 L 48.629699 49.596459 L 49.173499 49.599859 L 49.717199 49.596459 L 50.789699 49.569859 L 51.842199 49.516559 L 52.874599 49.436659 L 53.887099 49.330059 L 54.879599 49.196859 L 55.852199 49.036959 L 56.804699 48.850459 L 57.737299 48.637259 L 58.649899 48.397459 L 59.542499 48.131059 L 60.415099 47.837959 L 61.267699 47.518259 L 62.100399 47.171859 L 62.912999 46.798859 L 63.705699 46.399159 L 64.094499 46.189359 L 64.474899 45.975559 L 65.199299 45.544259 L 65.875399 45.107959 L 66.503199 44.666659 L 67.082699 44.220359 L 67.613899 43.769059 L 68.096899 43.312759 L 68.531499 42.851459 L 68.917899 42.385159 L 69.255899 41.913859 L 69.545699 41.437659 L 69.787099 40.956359 L 69.980299 40.470059 L 70.125199 39.978859 L 70.221799 39.482559 L 70.270099 38.981359 L 70.276099 38.728859 L 70.270099 38.476359 L 70.221799 37.975059 L 70.125199 37.478759 L 69.980299 36.987559 L 69.787099 36.501259 L 69.545699 36.019959 L 69.255899 35.543759 L 68.917899 35.072459 L 68.531499 34.606159 L 68.096899 34.144859 L 67.613899 33.688559 L 67.082699 33.237259 L 66.503199 32.790959 L 65.875399 32.349659 L 65.199299 31.913359 L 64.474899 31.482059 L 64.094499 31.268259 L 63.705699 31.058459 L 62.912999 30.658759 L 62.100399 30.285759 L 61.267699 29.939359 L 60.415099 29.619659 L 59.542499 29.326559 L 58.649899 29.060159 L 57.737299 28.820359 L 56.804699 28.607159 L 55.852199 28.420659 L 54.879599 28.260759 L 53.887099 28.127559 L 52.874599 28.020959 L 51.842199 27.941059 L 50.789699 27.887759 L 49.717199 27.861159 L 49.173499 27.857759 Z" transform="scale(1.000000,1.000000) translate(90.836601,341.792141)" fill="#ffffff" opacity="1.000000"></path>
        <path d="M 169.628162 1.001922 L 170.653062 1.018022 L 171.672862 1.050222 L 172.687462 1.098522 L 173.696962 1.162922 L 174.701262 1.243422 L 175.700462 1.339922 L 176.694562 1.452622 L 177.683462 1.581322 L 178.667262 1.726222 L 179.645862 1.887122 L 180.619362 2.064222 L 181.587762 2.257322 L 182.550962 2.466522 L 183.508962 2.691922 L 184.461962 2.933322 L 185.409662 3.190822 L 186.352362 3.464422 L 187.289862 3.754122 L 188.222262 4.059922 L 189.149462 4.381822 L 190.071562 4.719822 L 190.988462 5.073822 L 191.900262 5.444022 L 192.806962 5.830322 L 193.708462 6.232622 L 194.604762 6.651122 L 195.496062 7.085722 L 196.382162 7.536322 L 197.263062 8.003022 L 198.138862 8.485922 L 199.009562 8.984822 L 199.442962 9.240322 L 199.874262 9.499322 L 200.728462 10.025922 L 201.571162 10.564222 L 202.402462 11.114122 L 203.222362 11.675622 L 204.030962 12.248722 L 204.828062 12.833522 L 205.613762 13.429922 L 206.388062 14.037922 L 207.151062 14.657622 L 207.902562 15.288822 L 208.642662 15.931722 L 209.371362 16.586222 L 210.088762 17.252322 L 210.794662 17.930122 L 211.489162 18.619522 L 212.172262 19.320522 L 212.843962 20.033122 L 213.504362 20.757422 L 214.153262 21.493222 L 214.790762 22.240722 L 215.416862 22.999922 L 216.031562 23.770622 L 216.634962 24.553022 L 217.226862 25.347022 L 217.807362 26.152622 L 218.376462 26.969822 L 218.934162 27.798722 L 219.480562 28.639222 L 220.015462 29.491322 L 220.538962 30.355022 L 221.051062 31.230422 L 221.302862 31.672522 L 221.551262 32.116722 L 222.036362 33.009522 L 222.505762 33.908122 L 222.959562 34.812522 L 223.397662 35.722722 L 223.820162 36.638822 L 224.226962 37.560622 L 224.618162 38.488322 L 224.993662 39.421822 L 225.353562 40.361122 L 225.697862 41.306222 L 226.026462 42.257122 L 226.339362 43.213822 L 226.636662 44.176422 L 226.918362 45.144722 L 227.184362 46.118922 L 227.434662 47.098922 L 227.669362 48.084622 L 227.888462 49.076222 L 228.091862 50.073722 L 228.279662 51.076922 L 228.451762 52.085922 L 228.608262 53.100822 L 228.749062 54.121422 L 228.874262 55.147922 L 228.983762 56.180222 L 229.077662 57.218322 L 229.155862 58.262222 L 229.218462 59.311922 L 229.265462 60.367422 L 229.296762 61.428822 L 229.312362 62.495922 L 229.314362 63.031722 L 229.312362 63.567522 L 229.296762 64.634822 L 229.265462 65.696622 L 229.218462 66.752822 L 229.155862 67.803422 L 229.077662 68.848522 L 228.983762 69.887922 L 228.874262 70.921722 L 228.749062 71.950022 L 228.608262 72.972722 L 228.451762 73.989822 L 228.279662 75.001222 L 228.091862 76.007222 L 227.888462 77.007522 L 227.669362 78.002222 L 227.434662 78.991322 L 227.184362 79.974922 L 226.918362 80.952922 L 226.636662 81.925222 L 226.339362 82.892022 L 226.026462 83.853222 L 225.697862 84.808822 L 225.353562 85.758922 L 224.993662 86.703322 L 224.618162 87.642122 L 224.226962 88.575422 L 223.820162 89.503122 L 223.397662 90.425122 L 222.959562 91.341622 L 222.505762 92.252522 L 222.036362 93.157822 L 221.551262 94.057622 L 221.302862 94.505322 L 221.051062 94.950922 L 220.538962 95.833222 L 220.015462 96.703722 L 219.480562 97.562322 L 218.934162 98.409022 L 218.376462 99.243922 L 217.807362 100.067022 L 217.226862 100.878222 L 216.634962 101.677522 L 216.031562 102.465022 L 215.416862 103.240722 L 214.790762 104.004522 L 214.153262 104.756522 L 213.504362 105.496622 L 212.843962 106.224922 L 212.172262 106.941322 L 211.489162 107.645922 L 210.794662 108.338622 L 210.088762 109.019522 L 209.371362 109.688622 L 208.642662 110.345822 L 207.902562 110.991122 L 207.151062 111.624622 L 206.388062 112.246222 L 205.613762 112.856022 L 204.828062 113.454022 L 204.030962 114.040122 L 203.222362 114.614422 L 202.402462 115.176822 L 201.571162 115.727422 L 200.728462 116.266122 L 199.874262 116.792922 L 199.442962 117.051922 L 199.009562 117.307422 L 198.138862 117.806422 L 197.263062 118.289222 L 196.382162 118.755922 L 195.496062 119.206622 L 194.604762 119.641122 L 193.708462 120.059622 L 192.806962 120.462022 L 191.900262 120.848222 L 190.988462 121.218422 L 190.071562 121.572522 L 189.149462 121.910522 L 188.222262 122.232322 L 187.289862 122.538122 L 186.352362 122.827822 L 185.409662 123.101522 L 184.461962 123.359022 L 183.508962 123.600422 L 182.550962 123.825722 L 181.587762 124.034922 L 180.619362 124.228122 L 179.645862 124.405122 L 178.667262 124.566022 L 177.683462 124.710922 L 176.694562 124.839722 L 175.700462 124.952322 L 174.701262 125.048922 L 173.696962 125.129422 L 172.687462 125.193722 L 171.672862 125.242022 L 170.653062 125.274222 L 169.628162 125.290322 L 169.113762 125.292322 L 168.592362 125.290322 L 167.553762 125.274222 L 166.521062 125.242022 L 165.494162 125.193722 L 164.473062 125.129422 L 163.457762 125.048922 L 162.448262 124.952322 L 161.444562 124.839722 L 160.446762 124.710922 L 159.454662 124.566022 L 158.468462 124.405122 L 157.488062 124.228122 L 156.513462 124.034922 L 155.544662 123.825722 L 154.581662 123.600422 L 153.624462 123.359022 L 152.673062 123.101522 L 151.727562 122.827822 L 150.787762 122.538122 L 149.853862 122.232322 L 148.925762 121.910522 L 148.003462 121.572522 L 147.086962 121.218422 L 146.176262 120.848222 L 145.271462 120.462022 L 144.372362 120.059622 L 143.479162 119.641122 L 142.591662 119.206622 L 141.710062 118.755922 L 140.834262 118.289222 L 139.964262 117.806422 L 139.100062 117.307422 L 138.670162 117.051922 L 138.242362 116.792922 L 137.395162 116.266122 L 136.559162 115.727422 L 135.734362 115.176822 L 134.920662 114.614422 L 134.118162 114.040122 L 133.326862 113.454022 L 132.546762 112.856022 L 131.777762 112.246222 L 131.019962 111.624622 L 130.273362 110.991122 L 129.537962 110.345822 L 128.813662 109.688622 L 128.100662 109.019522 L 127.398762 108.338622 L 126.707962 107.645922 L 126.028462 106.941322 L 125.360062 106.224922 L 124.702862 105.496622 L 124.056862 104.756522 L 123.422062 104.004522 L 122.798362 103.240722 L 122.185862 102.465022 L 121.584562 101.677522 L 120.994462 100.878222 L 120.415462 100.067022 L 119.847762 99.243922 L 119.291162 98.409022 L 118.745662 97.562322 L 118.211462 96.703722 L 117.688362 95.833222 L 117.176462 94.950922 L 116.924762 94.505322 L 116.676362 94.057622 L 116.191262 93.157822 L 115.721862 92.252522 L 115.268062 91.341622 L 114.829962 90.425122 L 114.407462 89.503122 L 114.000562 88.575422 L 113.609462 87.642122 L 113.233862 86.703322 L 112.873962 85.758922 L 112.529762 84.808822 L 112.201162 83.853222 L 111.888162 82.892022 L 111.590862 81.925222 L 111.309262 80.952922 L 111.043262 79.974922 L 110.792862 78.991322 L 110.558162 78.002222 L 110.339162 77.007522 L 110.135662 76.007222 L 109.947962 75.001222 L 109.775762 73.989822 L 109.619362 72.972722 L 109.478462 71.950022 L 109.353362 70.921722 L 109.243762 69.887922 L 109.149862 68.848522 L 109.071662 67.803422 L 109.009062 66.752822 L 108.962162 65.696622 L 108.930862 64.634822 L 108.915162 63.567522 L 108.913262 63.031722 L 108.915162 62.495922 L 108.930862 61.428822 L 108.962162 60.367422 L 109.009062 59.311922 L 109.071662 58.262222 L 109.149862 57.218322 L 109.243762 56.180222 L 109.353362 55.147922 L 109.478462 54.121422 L 109.619362 53.100822 L 109.775762 52.085922 L 109.947962 51.076922 L 110.135662 50.073722 L 110.339162 49.076222 L 110.558162 48.084622 L 110.792862 47.098922 L 111.043262 46.118922 L 111.309262 45.144722 L 111.590862 44.176422 L 111.888162 43.213822 L 112.201162 42.257122 L 112.529762 41.306222 L 112.873962 40.361122 L 113.233862 39.421822 L 113.609462 38.488322 L 114.000562 37.560622 L 114.407462 36.638822 L 114.829962 35.722722 L 115.268062 34.812522 L 115.721862 33.908122 L 116.191262 33.009522 L 116.676362 32.116722 L 116.924762 31.672522 L 117.176462 31.230422 L 117.688362 30.355022 L 118.211462 29.491322 L 118.745662 28.639222 L 119.291162 27.798722 L 119.847762 26.969822 L 120.415462 26.152622 L 120.994462 25.347022 L 121.584562 24.553022 L 122.185862 23.770622 L 122.798362 22.999922 L 123.422062 22.240722 L 124.056862 21.493222 L 124.702862 20.757422 L 125.360062 20.033122 L 126.028462 19.320522 L 126.707962 18.619522 L 127.398762 17.930122 L 128.100662 17.252322 L 128.813662 16.586222 L 129.537962 15.931722 L 130.273362 15.288822 L 131.019962 14.657622 L 131.777762 14.037922 L 132.546762 13.429922 L 133.326862 12.833522 L 134.118162 12.248722 L 134.920662 11.675622 L 135.734362 11.114122 L 136.559162 10.564222 L 137.395162 10.025922 L 138.242362 9.499322 L 138.670162 9.240322 L 139.100062 8.984822 L 139.964262 8.485922 L 140.834262 8.003022 L 141.710062 7.536322 L 142.591662 7.085722 L 143.479162 6.651122 L 144.372362 6.232622 L 145.271462 5.830322 L 146.176262 5.444022 L 147.086962 5.073822 L 148.003462 4.719822 L 148.925762 4.381822 L 149.853862 4.059922 L 150.787762 3.754122 L 151.727562 3.464422 L 152.673062 3.190822 L 153.624462 2.933322 L 154.581662 2.691922 L 155.544662 2.466522 L 156.513462 2.257322 L 157.488062 2.064222 L 158.468462 1.887122 L 159.454662 1.726222 L 160.446762 1.581322 L 161.444562 1.452622 L 162.448262 1.339922 L 163.457762 1.243422 L 164.473062 1.162922 L 165.494162 1.098522 L 166.521062 1.050222 L 167.553762 1.018022 L 168.592362 1.001922 L 169.113762 0.999922 Z M 271.304562 8.931322 L 271.304562 66.694122 L 271.312062 67.491022 L 271.371962 69.059322 L 271.491762 70.593622 L 271.671562 72.094022 L 271.911162 73.560422 L 272.210662 74.992822 L 272.570162 76.391222 L 272.989462 77.755722 L 273.468762 79.086122 L 274.007862 80.382622 L 274.606962 81.645222 L 275.265962 82.873722 L 275.984862 84.068322 L 276.763662 85.228922 L 277.602362 86.355522 L 278.500962 87.448122 L 278.972762 87.981722 L 279.455662 88.502822 L 280.443662 89.495322 L 281.461262 90.421622 L 282.508262 91.281722 L 283.584762 92.075722 L 284.690862 92.803622 L 285.826362 93.465222 L 286.991462 94.060722 L 288.186062 94.590122 L 289.410162 95.053222 L 290.663662 95.450222 L 291.946762 95.781122 L 293.259362 96.045722 L 294.601462 96.244222 L 295.973062 96.376522 L 297.374162 96.442722 L 298.085862 96.451022 L 298.470962 96.448622 L 299.234562 96.429422 L 299.989262 96.390922 L 300.734962 96.333222 L 301.471662 96.256322 L 302.199562 96.160222 L 302.918462 96.044922 L 303.628362 95.910322 L 304.329362 95.756522 L 305.021462 95.583522 L 305.704562 95.391322 L 306.378762 95.179822 L 307.043962 94.949122 L 307.700262 94.699222 L 308.347662 94.430122 L 308.986062 94.141722 L 309.615562 93.834122 L 310.236062 93.507322 L 310.847662 93.161322 L 311.450262 92.796022 L 312.043962 92.411522 L 312.628762 92.007822 L 313.204562 91.584922 L 313.771462 91.142822 L 314.329462 90.681422 L 314.878462 90.200822 L 315.418462 89.701022 L 315.949562 89.181922 L 316.471762 88.643622 L 316.984962 88.086222 L 317.489262 87.509422 L 317.984662 86.913522 L 318.228962 86.608322 L 340.661162 104.691422 L 340.171462 105.302222 L 339.172762 106.497622 L 338.148062 107.658222 L 337.097462 108.783922 L 336.020862 109.874822 L 334.918362 110.930822 L 333.789962 111.951922 L 332.635662 112.938122 L 331.455362 113.889522 L 330.249262 114.806022 L 329.017062 115.687622 L 327.759062 116.534322 L 326.475062 117.346222 L 325.165162 118.123222 L 323.829262 118.865422 L 322.467562 119.572622 L 321.776962 119.913222 L 321.081662 120.244122 L 319.682262 120.874522 L 318.271362 121.462822 L 316.848762 122.009122 L 315.414562 122.513422 L 313.968762 122.975722 L 312.511262 123.396022 L 311.042262 123.774222 L 309.561562 124.110422 L 308.069262 124.404522 L 306.565262 124.656722 L 305.049662 124.866822 L 303.522562 125.034922 L 301.983662 125.161022 L 300.433262 125.245022 L 298.871262 125.287122 L 298.085862 125.292322 L 297.186562 125.285422 L 295.400062 125.229922 L 293.629662 125.119122 L 291.875362 124.952822 L 290.137162 124.731022 L 288.415062 124.453822 L 286.709062 124.121222 L 285.019162 123.733222 L 283.345262 123.289722 L 281.687562 122.790722 L 280.045962 122.236422 L 278.420362 121.626622 L 276.810962 120.961322 L 275.217562 120.240722 L 273.640262 119.464522 L 272.079162 118.633022 L 271.304562 118.196422 L 271.304562 123.232222 L 242.463262 123.232222 L 242.463262 5.584122 Z M 29.841262 42.659622 L 37.852762 49.984422 L 77.910162 3.060022 L 115.678562 3.060022 L 58.911462 69.669822 L 116.823062 123.232222 L 74.247762 123.232222 L 29.841262 82.030322 L 29.841262 123.491922 L 0.999962 123.491922 L 0.999962 3.060022 L 29.841262 3.060022 Z M 168.692862 29.843622 L 167.857762 29.862122 L 167.031562 29.899222 L 166.214362 29.954922 L 165.406062 30.029122 L 164.606662 30.121922 L 163.816262 30.233222 L 163.034762 30.363122 L 162.262262 30.511522 L 161.498662 30.678522 L 160.743962 30.864022 L 159.998262 31.068122 L 159.261462 31.290722 L 158.533662 31.531922 L 157.814762 31.791722 L 157.104862 32.070022 L 156.403862 32.366822 L 155.711762 32.682222 L 155.028662 33.016222 L 154.354462 33.368722 L 153.689262 33.739822 L 153.032962 34.129422 L 152.385562 34.537622 L 151.747162 34.964322 L 151.117662 35.409622 L 150.497162 35.873422 L 149.885562 36.355822 L 149.282962 36.856722 L 148.689162 37.376222 L 148.104462 37.914322 L 147.528662 38.470922 L 146.961762 39.046022 L 146.681662 39.340622 L 146.404862 39.638622 L 145.864362 40.241522 L 145.341262 40.853522 L 144.835662 41.474722 L 144.347462 42.105122 L 143.876662 42.744622 L 143.423362 43.393322 L 142.987462 44.051222 L 142.568962 44.718222 L 142.167962 45.394422 L 141.784362 46.079722 L 141.418262 46.774322 L 141.069562 47.477922 L 140.738262 48.190822 L 140.424362 48.912822 L 140.127962 49.644022 L 139.849062 50.384322 L 139.587462 51.133822 L 139.343362 51.892522 L 139.116762 52.660422 L 138.907462 53.437422 L 138.715662 54.223522 L 138.541362 55.018922 L 138.384462 55.823422 L 138.244962 56.637022 L 138.122862 57.459922 L 138.018262 58.291922 L 137.931062 59.133022 L 137.861362 59.983422 L 137.809062 60.842822 L 137.774162 61.711522 L 137.756762 62.589322 L 137.754562 63.031722 L 137.758562 63.616522 L 137.790762 64.776222 L 137.855162 65.922522 L 137.951762 67.055422 L 138.080462 68.174922 L 138.241462 69.280922 L 138.434562 70.373622 L 138.659862 71.452822 L 138.917362 72.518622 L 139.207062 73.571022 L 139.528962 74.610022 L 139.883062 75.635622 L 140.269362 76.647722 L 140.687762 77.646522 L 141.138462 78.631822 L 141.621262 79.603722 L 141.874762 80.084722 L 142.135262 80.560722 L 142.674462 81.493322 L 143.237762 82.399922 L 143.825162 83.280722 L 144.436762 84.135522 L 145.072562 84.964322 L 145.732362 85.767322 L 146.416462 86.544322 L 147.124562 87.295322 L 147.856862 88.020522 L 148.613362 88.719722 L 149.393862 89.393022 L 150.198662 90.040322 L 151.027462 90.661822 L 151.880462 91.257322 L 152.757662 91.826822 L 153.205262 92.101922 L 153.657362 92.369522 L 154.570262 92.879122 L 155.494862 93.354822 L 156.430962 93.796522 L 157.378762 94.204222 L 158.338162 94.578022 L 159.309262 94.917822 L 160.291862 95.223622 L 161.286162 95.495422 L 162.292062 95.733222 L 163.309562 95.937122 L 164.338762 96.107022 L 165.379562 96.242922 L 166.431962 96.344822 L 167.495962 96.412822 L 168.571562 96.446722 L 169.113762 96.451022 L 169.655962 96.446722 L 170.731662 96.412822 L 171.795662 96.344822 L 172.848062 96.242922 L 173.888862 96.107022 L 174.917962 95.937122 L 175.935462 95.733222 L 176.941362 95.495422 L 177.935662 95.223622 L 178.918362 94.917822 L 179.889362 94.578022 L 180.848762 94.204222 L 181.796562 93.796522 L 182.732762 93.354822 L 183.657262 92.879122 L 184.570162 92.369522 L 185.022262 92.101922 L 185.469962 91.826822 L 186.347062 91.257322 L 187.200062 90.661822 L 188.028962 90.040322 L 188.833662 89.393022 L 189.614262 88.719722 L 190.370662 88.020522 L 191.102962 87.295322 L 191.811162 86.544322 L 192.495162 85.767322 L 193.155062 84.964322 L 193.790762 84.135522 L 194.402362 83.280722 L 194.989862 82.399922 L 195.553162 81.493322 L 196.092262 80.560722 L 196.352862 80.084722 L 196.606262 79.603722 L 197.089162 78.631822 L 197.539762 77.646522 L 197.958262 76.647722 L 198.344562 75.635622 L 198.698562 74.610022 L 199.020462 73.571022 L 199.310162 72.518622 L 199.567662 71.452822 L 199.793062 70.373622 L 199.986162 69.280922 L 200.147062 68.174922 L 200.275862 67.055422 L 200.372462 65.922522 L 200.436762 64.776222 L 200.468962 63.616522 L 200.472962 63.031722 L 200.470862 62.589322 L 200.453362 61.711522 L 200.418562 60.842822 L 200.366262 59.983422 L 200.296462 59.133022 L 200.209262 58.291922 L 200.104662 57.459922 L 199.982662 56.637022 L 199.843162 55.823422 L 199.686262 55.018922 L 199.511862 54.223522 L 199.320062 53.437422 L 199.110862 52.660422 L 198.884162 51.892522 L 198.640062 51.133822 L 198.378562 50.384322 L 198.099562 49.644022 L 197.803162 48.912822 L 197.489362 48.190822 L 197.158062 47.477922 L 196.809362 46.774322 L 196.443162 46.079722 L 196.059562 45.394422 L 195.658562 44.718222 L 195.240162 44.051222 L 194.804262 43.393322 L 194.350862 42.744622 L 193.880162 42.105122 L 193.391962 41.474722 L 192.886262 40.853522 L 192.363262 40.241522 L 191.822762 39.638622 L 191.545962 39.340622 L 191.265862 39.046022 L 190.698962 38.470922 L 190.123162 37.914322 L 189.538362 37.376222 L 188.944662 36.856722 L 188.341962 36.355822 L 187.730462 35.873422 L 187.109862 35.409622 L 186.480462 34.964322 L 185.841962 34.537622 L 185.194662 34.129422 L 184.538362 33.739822 L 183.873062 33.368722 L 183.198962 33.016222 L 182.515762 32.682222 L 181.823762 32.366822 L 181.122762 32.070022 L 180.412762 31.791722 L 179.693862 31.531922 L 178.966062 31.290722 L 178.229262 31.068122 L 177.483562 30.864022 L 176.728962 30.678522 L 175.965362 30.511522 L 175.192762 30.363122 L 174.411362 30.233222 L 173.620962 30.121922 L 172.821562 30.029122 L 172.013262 29.954922 L 171.196062 29.899222 L 170.369862 29.862122 L 169.534662 29.843622 L 169.113762 29.841322 Z" transform="scale(1.000000,1.000000) translate(82.017438,26.097778)" fill="#ffffff" opacity="1.000000"></path>
    </g>
</svg>