<?xml version="1.0" encoding="UTF-8" standalone="yes"?>
<!DOCTYPE svg PUBLIC "-//W3C//DTD SVG 1.1//EN" "http://www.w3.org/Graphics/SVG/1.1/DTD/svg11.dtd">

<svg width="500" height="500" viewBox="0 0 500 500" xmlns="http://www.w3.org/2000/svg" xmlns:xlink="http://www.w3.org/1999/xlink" version="1.1" baseProfile="full">
    <g transform="scale(1.000000,-1.000000) translate(0,-500)">
        <path d="M 56.783969 1.000000 L 500.861335 56.783969 C 500.861335 56.783969 500.861335 56.783969 500.861335 56.783969 L 445.077367 500.861335 C 445.077367 500.861335 445.077367 500.861335 445.077367 500.861335 L 1.000000 445.077367 C 1.000000 445.077367 1.000000 445.077367 1.000000 445.077367 L 56.783969 1.000000 C 56.783969 1.000000 56.783969 1.000000 56.783969 1.000000 Z" transform="scale(1.000000,1.000000) translate(-0.930668,-1.000000)" fill="#ffb50f" opacity="1.000000"></path>
        <path d="M 87.778841 130.834246 L 89.322141 130.875146 L 90.853941 130.956846 L 92.374341 131.079446 L 93.883241 131.242946 L 95.380641 131.447346 L 96.866541 131.692546 L 98.341041 131.978646 L 99.804041 132.305646 L 101.255541 132.673446 L 102.695641 133.082146 L 104.124241 133.531746 L 105.541341 134.022146 L 106.947041 134.553546 L 108.341241 135.125646 L 109.723941 135.738746 L 111.095241 136.392646 L 112.455041 137.087446 L 113.803341 137.823146 L 115.140141 138.599746 L 116.465541 139.417146 L 117.779441 140.275446 L 119.081941 141.174546 L 120.372941 142.114646 L 121.652441 143.095446 L 122.920441 144.117246 L 124.177041 145.179946 L 125.422141 146.283446 L 126.655741 147.427846 L 127.877941 148.613046 L 129.088541 149.839146 L 130.287841 151.106146 L 130.883141 151.754946 L 130.883141 134.672646 L 148.178941 134.672646 L 148.178941 290.886046 L 148.730441 290.231446 L 149.878341 288.912746 L 151.039841 287.636646 L 152.214841 286.402946 L 153.403441 285.211846 L 154.605641 284.063346 L 155.821241 282.957346 L 157.050541 281.893846 L 158.293341 280.872946 L 159.549741 279.894546 L 160.819641 278.958646 L 162.103041 278.065346 L 163.400141 277.214546 L 164.710641 276.406346 L 166.034841 275.640646 L 167.372541 274.917446 L 168.723741 274.236846 L 170.088541 273.598746 L 171.466841 273.003146 L 172.858741 272.450146 L 174.264241 271.939746 L 175.683241 271.471746 L 177.115841 271.046446 L 178.561941 270.663546 L 180.021541 270.323246 L 181.494841 270.025446 L 182.981641 269.770246 L 184.481941 269.557546 L 185.995841 269.387346 L 187.523241 269.259746 L 189.064241 269.174646 L 190.618841 269.132146 L 191.401141 269.126846 L 192.183441 269.131246 L 193.737141 269.166746 L 195.276441 269.237646 L 196.801341 269.343946 L 198.311941 269.485746 L 199.808141 269.662946 L 201.289841 269.875646 L 202.757241 270.123846 L 204.210241 270.407446 L 205.648841 270.726446 L 207.073141 271.080946 L 208.482941 271.470946 L 209.878341 271.896246 L 211.259441 272.357146 L 212.626141 272.853446 L 213.978341 273.385146 L 215.316241 273.952346 L 216.639741 274.554946 L 217.948941 275.193046 L 219.243641 275.866546 L 220.523941 276.575546 L 221.789941 277.320046 L 223.041441 278.099846 L 224.278641 278.915246 L 225.501441 279.766046 L 226.709841 280.652246 L 227.903841 281.573946 L 229.083441 282.531046 L 230.248741 283.523646 L 231.399541 284.551646 L 232.536041 285.615146 L 233.658041 286.714046 L 234.213741 287.276746 L 234.763241 287.845746 L 235.836341 288.994346 L 236.874741 290.157046 L 237.878541 291.333946 L 238.847841 292.525046 L 239.782441 293.730346 L 240.682441 294.949746 L 241.547741 296.183346 L 242.378541 297.431246 L 243.174641 298.693146 L 243.936241 299.969346 L 244.663141 301.259746 L 245.355441 302.564246 L 246.013141 303.882946 L 246.636241 305.215846 L 247.224641 306.562946 L 247.778541 307.924146 L 248.297741 309.299546 L 248.782341 310.689146 L 249.232341 312.092946 L 249.647741 313.510946 L 250.028441 314.943046 L 250.374641 316.389446 L 250.686141 317.849946 L 250.963041 319.324546 L 251.205341 320.813446 L 251.413041 322.316546 L 251.586141 323.833746 L 251.724641 325.365146 L 251.828441 326.910746 L 251.897641 328.470446 L 251.932341 330.044446 L 251.936641 330.836746 L 251.932341 331.628946 L 251.898341 333.202746 L 251.830441 334.762046 L 251.728441 336.307046 L 251.592441 337.837546 L 251.422541 339.353746 L 251.218641 340.855546 L 250.980641 342.342946 L 250.708741 343.815946 L 250.402841 345.274546 L 250.062941 346.718846 L 249.689041 348.148646 L 249.281241 349.564146 L 248.839341 350.965246 L 248.363441 352.351946 L 247.853641 353.724246 L 247.309841 355.082146 L 246.731941 356.425646 L 246.120141 357.754746 L 245.474341 359.069546 L 244.794541 360.369846 L 244.080841 361.655846 L 243.333041 362.927446 L 242.551241 364.184646 L 241.735541 365.427446 L 240.885841 366.655846 L 240.002041 367.869846 L 239.084341 369.069546 L 238.132641 370.254746 L 237.146941 371.425646 L 236.127241 372.582146 L 235.073641 373.724246 L 234.534041 374.289846 L 233.988241 374.849346 L 232.884941 375.941746 L 231.765941 376.998946 L 230.631441 378.020946 L 229.481141 379.007646 L 228.315341 379.959146 L 227.133841 380.875446 L 225.936641 381.756446 L 224.723941 382.602246 L 223.495441 383.412746 L 222.251441 384.188046 L 220.991741 384.928146 L 219.716441 385.632946 L 218.425441 386.302546 L 217.118841 386.936846 L 215.796541 387.535946 L 214.458641 388.099746 L 213.105141 388.628346 L 211.735941 389.121746 L 210.351141 389.579846 L 208.950741 390.002746 L 207.534641 390.390446 L 206.102841 390.742846 L 204.655541 391.059946 L 203.192541 391.341946 L 201.713841 391.588546 L 200.219541 391.800046 L 198.709641 391.976246 L 197.184041 392.117246 L 195.642841 392.222946 L 194.086041 392.293446 L 192.513541 392.328646 L 191.721441 392.333046 L 190.929141 392.328146 L 189.355241 392.288946 L 187.795441 392.210546 L 186.249841 392.092946 L 184.718441 391.936146 L 183.201241 391.740146 L 181.698241 391.504946 L 180.209341 391.230446 L 178.734641 390.916846 L 177.274141 390.564046 L 175.827841 390.172046 L 174.395641 389.740746 L 172.977741 389.270346 L 171.573941 388.760746 L 170.184341 388.211846 L 168.808941 387.623846 L 167.447641 386.996646 L 166.100541 386.330146 L 164.767641 385.624546 L 163.448941 384.879646 L 162.144441 384.095646 L 160.854141 383.272346 L 159.577941 382.409946 L 158.315941 381.508246 L 157.068141 380.567346 L 155.834541 379.587346 L 154.615041 378.568046 L 153.409741 377.509546 L 152.218641 376.411946 L 151.041741 375.275046 L 149.879041 374.098946 L 148.730541 372.883646 L 148.161541 372.261346 L 148.161541 433.117046 L 130.865641 433.117046 L 130.865641 272.970346 L 130.883141 272.970346 L 130.883141 233.323046 L 130.340641 233.965246 L 129.243541 235.219346 L 128.130441 236.432946 L 127.001341 237.606146 L 125.856141 238.738846 L 124.694841 239.831046 L 123.517541 240.882846 L 122.324141 241.894246 L 121.114641 242.865046 L 119.889141 243.795546 L 118.647641 244.685546 L 117.390041 245.535046 L 116.116341 246.344146 L 114.826641 247.112746 L 113.520841 247.840946 L 112.199041 248.528646 L 110.861141 249.175846 L 109.507141 249.782646 L 108.137141 250.349046 L 106.751041 250.874946 L 105.348941 251.360346 L 103.930841 251.805346 L 102.496541 252.209946 L 101.046241 252.573946 L 99.579941 252.897646 L 98.097541 253.180746 L 96.599041 253.423546 L 95.084541 253.625746 L 93.554041 253.787646 L 92.007341 253.908946 L 90.444641 253.989846 L 88.865941 254.030346 L 88.070541 254.035346 L 87.275041 254.030946 L 85.695541 253.995746 L 84.131141 253.925246 L 82.582041 253.819546 L 81.048141 253.678546 L 79.529441 253.502346 L 78.025941 253.290946 L 76.537741 253.044246 L 75.064741 252.762346 L 73.606941 252.445146 L 72.164341 252.092746 L 70.737041 251.705046 L 69.324841 251.282246 L 67.927941 250.824046 L 66.546241 250.330746 L 65.179841 249.802146 L 63.828541 249.238246 L 62.492541 248.639146 L 61.171741 248.004846 L 59.866241 247.335246 L 58.575841 246.630446 L 57.300741 245.890346 L 56.040841 245.115146 L 54.796141 244.304546 L 53.566641 243.458746 L 52.352441 242.577746 L 51.153441 241.661546 L 49.969641 240.710046 L 48.801041 239.723246 L 47.647741 238.701346 L 46.509541 237.644046 L 45.386641 236.551646 L 44.830941 235.992146 L 44.281441 235.426546 L 43.208341 234.284446 L 42.169941 233.127946 L 41.166041 231.957146 L 40.196841 230.771846 L 39.262241 229.572246 L 38.362241 228.358146 L 37.496841 227.129746 L 36.666141 225.886946 L 35.869941 224.629746 L 35.108441 223.358146 L 34.381541 222.072246 L 33.689241 220.771846 L 33.031541 219.457146 L 32.408441 218.127946 L 31.820041 216.784446 L 31.266141 215.426546 L 30.746941 214.054246 L 30.262341 212.667546 L 29.812341 211.266446 L 29.396941 209.851046 L 29.016141 208.421146 L 28.670041 206.976946 L 28.358541 205.518246 L 28.081541 204.045246 L 27.839241 202.557846 L 27.631541 201.056046 L 27.458541 199.539946 L 27.320041 198.009346 L 27.216241 196.464346 L 27.146941 194.905046 L 27.112341 193.331246 L 27.108041 192.539046 L 27.112341 191.746746 L 27.146541 190.172846 L 27.214941 188.613046 L 27.317541 187.067446 L 27.454241 185.536046 L 27.625241 184.018846 L 27.830441 182.515746 L 28.069841 181.026946 L 28.343441 179.552246 L 28.651241 178.091746 L 28.993241 176.645446 L 29.369341 175.213246 L 29.779741 173.795246 L 30.224341 172.391546 L 30.703141 171.001946 L 31.216041 169.626446 L 31.763241 168.265246 L 32.344641 166.918146 L 32.960141 165.585246 L 33.609941 164.266546 L 34.293841 162.962046 L 35.012041 161.671646 L 35.764441 160.395546 L 36.550941 159.133546 L 37.371741 157.885746 L 38.226641 156.652046 L 39.115841 155.432646 L 40.039141 154.227346 L 40.996741 153.036246 L 41.988441 151.859346 L 43.014341 150.696646 L 44.074541 149.548046 L 44.617441 148.979146 L 45.166341 148.416346 L 46.275141 147.317446 L 47.398241 146.253946 L 48.535741 145.225946 L 49.687641 144.233346 L 50.853841 143.276246 L 52.034541 142.354546 L 53.229641 141.468346 L 54.439041 140.617546 L 55.662841 139.802246 L 56.901041 139.022346 L 58.153741 138.277946 L 59.420641 137.568946 L 60.702041 136.895346 L 61.997841 136.257346 L 63.308041 135.654646 L 64.632541 135.087446 L 65.971441 134.555746 L 67.324841 134.059446 L 68.692541 133.598646 L 70.074641 133.173246 L 71.471141 132.783246 L 72.881941 132.428746 L 74.307241 132.109746 L 75.746941 131.826146 L 77.200941 131.578046 L 78.669341 131.365346 L 80.152141 131.188046 L 81.649341 131.046246 L 83.160941 130.939946 L 84.686941 130.869046 L 86.227341 130.833546 L 87.002941 130.829146 Z M 61.774241 269.131946 L 63.311041 269.172846 L 64.836641 269.254546 L 66.350941 269.377146 L 67.853941 269.540646 L 69.345741 269.745046 L 70.826241 269.990246 L 72.295541 270.276346 L 73.753541 270.603246 L 75.200241 270.971146 L 76.635741 271.379846 L 78.059941 271.829446 L 79.472941 272.319846 L 80.874641 272.851146 L 82.265041 273.423346 L 83.644241 274.036446 L 85.012241 274.690346 L 86.368841 275.385146 L 87.714241 276.120846 L 89.048341 276.897346 L 90.371241 277.714846 L 91.682841 278.573046 L 92.983241 279.472246 L 94.272341 280.412246 L 95.550141 281.393146 L 96.816741 282.414946 L 98.072041 283.477546 L 99.316141 284.581046 L 100.548941 285.725446 L 101.770441 286.910746 L 102.980741 288.136846 L 104.179741 289.403846 L 104.775041 290.052646 L 104.775041 272.970346 L 122.070841 272.970346 L 122.070841 389.343646 L 104.775041 389.343646 L 104.775041 371.620746 L 104.232541 372.262946 L 103.135441 373.517046 L 102.022341 374.730646 L 100.893241 375.903746 L 99.748041 377.036446 L 98.586741 378.128746 L 97.409441 379.180546 L 96.216041 380.191846 L 95.006541 381.162746 L 93.781041 382.093246 L 92.539541 382.983146 L 91.281941 383.832746 L 90.008241 384.641746 L 88.718541 385.410446 L 87.412741 386.138546 L 86.090941 386.826246 L 84.753041 387.473546 L 83.399041 388.080346 L 82.029041 388.646746 L 80.643041 389.172646 L 79.240841 389.658046 L 77.822741 390.103046 L 76.388441 390.507546 L 74.938241 390.871646 L 73.471841 391.195246 L 71.989441 391.478446 L 70.491041 391.721146 L 68.976441 391.923446 L 67.445941 392.085246 L 65.899241 392.206646 L 64.336641 392.287546 L 62.757841 392.328046 L 61.962441 392.333046 L 61.166941 392.328646 L 59.587441 392.293446 L 58.023041 392.222946 L 56.473941 392.117246 L 54.940041 391.976246 L 53.421341 391.800046 L 51.917841 391.588546 L 50.429641 391.341946 L 48.956641 391.059946 L 47.498841 390.742846 L 46.056241 390.390446 L 44.628941 390.002746 L 43.216741 389.579846 L 41.819841 389.121746 L 40.438241 388.628346 L 39.071741 388.099746 L 37.720541 387.535946 L 36.384441 386.936846 L 35.063641 386.302546 L 33.758141 385.632946 L 32.467741 384.928146 L 31.192641 384.188046 L 29.932741 383.412746 L 28.688041 382.602246 L 27.458641 381.756446 L 26.244341 380.875446 L 25.045341 379.959146 L 23.861541 379.007646 L 22.692941 378.020946 L 21.539641 376.998946 L 20.401541 375.941746 L 19.278641 374.849346 L 18.722841 374.289846 L 18.173341 373.724246 L 17.100241 372.582346 L 16.061841 371.426246 L 15.057941 370.256046 L 14.088741 369.071646 L 13.154141 367.873046 L 12.254141 366.660246 L 11.388841 365.433346 L 10.558041 364.192146 L 9.761841 362.936846 L 9.000341 361.667346 L 8.273441 360.383646 L 7.581141 359.085846 L 6.923441 357.773746 L 6.300341 356.447546 L 5.711941 355.107146 L 5.158041 353.752646 L 4.638841 352.383846 L 4.154241 351.000946 L 3.704241 349.603846 L 3.288841 348.192546 L 2.908141 346.767046 L 2.561941 345.327346 L 2.250441 343.873546 L 1.973541 342.405546 L 1.731241 340.923346 L 1.523541 339.426946 L 1.350441 337.916446 L 1.211941 336.391646 L 1.108141 334.852746 L 1.038941 333.299646 L 1.004241 331.732446 L 0.999941 330.943446 L 1.004241 330.154446 L 1.038641 328.586746 L 1.107441 327.032846 L 1.210641 325.492646 L 1.348341 323.966246 L 1.520341 322.453646 L 1.726741 320.954746 L 1.967641 319.469646 L 2.242841 317.998346 L 2.552541 316.540746 L 2.896641 315.096946 L 3.275041 313.666846 L 3.687941 312.250546 L 4.135241 310.848046 L 4.616941 309.459246 L 5.133041 308.084246 L 5.683541 306.722946 L 6.268441 305.375546 L 6.887741 304.041746 L 7.541441 302.721846 L 8.229641 301.415646 L 8.952141 300.123246 L 9.709141 298.844546 L 10.500441 297.579646 L 11.326241 296.328446 L 12.186341 295.091046 L 13.080941 293.867446 L 14.009941 292.657646 L 14.973341 291.461546 L 15.971041 290.279146 L 17.003241 289.110646 L 18.069841 287.955846 L 18.616141 287.383546 L 19.168341 286.817446 L 20.283341 285.712146 L 21.412241 284.642346 L 22.555241 283.608346 L 23.712041 282.609846 L 24.882941 281.647146 L 26.067741 280.720046 L 27.266641 279.828546 L 28.479341 278.972846 L 29.706141 278.152646 L 30.946841 277.368246 L 32.201541 276.619346 L 33.470241 275.906246 L 34.752841 275.228746 L 36.049441 274.586946 L 37.360041 273.980746 L 38.684541 273.410246 L 40.023041 272.875346 L 41.375541 272.376146 L 42.742041 271.912546 L 44.122441 271.484646 L 45.516841 271.092446 L 46.925241 270.735846 L 48.347541 270.414946 L 49.783941 270.129746 L 51.234141 269.880046 L 52.698441 269.666146 L 54.176641 269.487846 L 55.668841 269.345246 L 57.175041 269.238246 L 58.695141 269.166946 L 60.229341 269.131246 L 61.001641 269.126846 Z M 315.596441 267.459646 L 317.133241 267.500546 L 318.658841 267.582346 L 320.173141 267.704946 L 321.676241 267.868446 L 323.167941 268.072746 L 324.648541 268.317946 L 326.117741 268.604046 L 327.575741 268.931046 L 329.022541 269.298846 L 330.458041 269.707546 L 331.882241 270.157146 L 333.295141 270.647646 L 334.696841 271.178946 L 336.087341 271.751146 L 337.466541 272.364146 L 338.834441 273.018146 L 340.191041 273.712946 L 341.536441 274.448646 L 342.870641 275.225146 L 344.193541 276.042546 L 345.505141 276.900846 L 346.805441 277.800046 L 348.094541 278.740046 L 349.372441 279.720946 L 350.638941 280.742746 L 351.894341 281.805346 L 353.138341 282.908846 L 354.371141 284.053246 L 355.592741 285.238446 L 356.802941 286.464646 L 358.001941 287.731646 L 358.597241 288.380446 L 358.597241 271.298146 L 375.893141 271.298146 L 375.893141 387.671446 L 358.597241 387.671446 L 358.597241 369.948546 L 358.054741 370.590746 L 356.957741 371.844746 L 355.844641 373.058346 L 354.715441 374.231546 L 353.570241 375.364246 L 352.408941 376.456446 L 351.231641 377.508246 L 350.038241 378.519646 L 348.828841 379.490546 L 347.603341 380.420946 L 346.361741 381.310946 L 345.104141 382.160446 L 343.830441 382.969546 L 342.540741 383.738146 L 341.234941 384.466346 L 339.913141 385.154046 L 338.575241 385.801346 L 337.221341 386.408146 L 335.851341 386.974446 L 334.465241 387.500346 L 333.063141 387.985846 L 331.644941 388.430846 L 330.210741 388.835346 L 328.760441 389.199446 L 327.294041 389.523046 L 325.811641 389.806246 L 324.313241 390.048946 L 322.798741 390.251246 L 321.268141 390.413046 L 319.721541 390.534346 L 318.158841 390.615346 L 316.580141 390.655746 L 315.784741 390.660846 L 314.989241 390.656446 L 313.409641 390.621146 L 311.845241 390.550646 L 310.296141 390.444946 L 308.762241 390.304046 L 307.243541 390.127846 L 305.740141 389.916346 L 304.251841 389.669646 L 302.778841 389.387746 L 301.321041 389.070546 L 299.878441 388.718146 L 298.451141 388.330546 L 297.039041 387.907646 L 295.642141 387.449546 L 294.260441 386.956146 L 292.893941 386.427546 L 291.542741 385.863646 L 290.206741 385.264546 L 288.885941 384.630246 L 287.580341 383.960646 L 286.290041 383.255846 L 285.014841 382.515846 L 283.754941 381.740546 L 282.510241 380.929946 L 281.280841 380.084246 L 280.066541 379.203246 L 278.867541 378.286946 L 277.683741 377.335446 L 276.515241 376.348746 L 275.361841 375.326746 L 274.223741 374.269546 L 273.100841 373.177046 L 272.545041 372.617646 L 271.995541 372.051946 L 270.922541 370.910146 L 269.884041 369.754046 L 268.880241 368.583846 L 267.911041 367.399346 L 266.976341 366.200846 L 266.076441 364.988046 L 265.211041 363.761046 L 264.380241 362.519946 L 263.584141 361.264646 L 262.822541 359.995146 L 262.095641 358.711446 L 261.403341 357.413546 L 260.745641 356.101546 L 260.122641 354.775346 L 259.534141 353.434946 L 258.980341 352.080346 L 258.461041 350.711646 L 257.976441 349.328646 L 257.526441 347.931546 L 257.111141 346.520246 L 256.730341 345.094746 L 256.384141 343.655146 L 256.072641 342.201346 L 255.795741 340.733246 L 255.553441 339.251146 L 255.345741 337.754746 L 255.172641 336.244146 L 255.034241 334.719446 L 254.930341 333.180546 L 254.861141 331.627446 L 254.826541 330.060146 L 254.822141 329.271246 L 254.826441 328.482246 L 254.860841 326.914546 L 254.929741 325.360646 L 255.032941 323.820446 L 255.170541 322.294046 L 255.342541 320.781446 L 255.549041 319.282546 L 255.789841 317.797446 L 256.065141 316.326046 L 256.374741 314.868546 L 256.718841 313.424646 L 257.097341 311.994646 L 257.510141 310.578346 L 257.957441 309.175746 L 258.439141 307.787046 L 258.955241 306.412046 L 259.505741 305.050746 L 260.090641 303.703246 L 260.710041 302.369546 L 261.363741 301.049546 L 262.051841 299.743346 L 262.774341 298.450946 L 263.531341 297.172246 L 264.322641 295.907346 L 265.148441 294.656246 L 266.008641 293.418846 L 266.903141 292.195246 L 267.832141 290.985346 L 268.795541 289.789246 L 269.793341 288.606946 L 270.825541 287.438346 L 271.892141 286.283546 L 272.438341 285.711346 L 272.990541 285.145246 L 274.105541 284.039846 L 275.234541 282.970146 L 276.377441 281.936046 L 277.534341 280.937646 L 278.705141 279.974846 L 279.890041 279.047746 L 281.088841 278.156346 L 282.301641 277.300546 L 283.528341 276.480446 L 284.769041 275.695946 L 286.023741 274.947146 L 287.292441 274.234046 L 288.575041 273.556546 L 289.871641 272.914646 L 291.182241 272.308446 L 292.506741 271.737946 L 293.845341 271.203146 L 295.197841 270.703846 L 296.564241 270.240346 L 297.944641 269.812446 L 299.339041 269.420246 L 300.747441 269.063646 L 302.169841 268.742746 L 303.606141 268.457446 L 305.056441 268.207846 L 306.520641 267.993946 L 307.998941 267.815646 L 309.491141 267.672946 L 310.997241 267.566046 L 312.517441 267.494746 L 314.051541 267.459046 L 314.823841 267.454546 Z M 190.087941 286.212346 L 188.964441 286.238246 L 187.851741 286.289946 L 186.749941 286.367546 L 185.658941 286.470946 L 184.578741 286.600246 L 183.509441 286.755346 L 182.450941 286.936346 L 181.403341 287.143246 L 180.366541 287.375946 L 179.340641 287.634546 L 178.325541 287.918946 L 177.321241 288.229246 L 176.327841 288.565346 L 175.345341 288.927346 L 174.373541 289.315246 L 173.412741 289.728946 L 172.462641 290.168546 L 171.523441 290.633946 L 170.595141 291.125246 L 169.677641 291.642346 L 168.770941 292.185346 L 167.875141 292.754246 L 166.990141 293.348946 L 166.116041 293.969446 L 165.252741 294.615946 L 164.400241 295.288146 L 163.558641 295.986346 L 162.727941 296.710346 L 161.907941 297.460146 L 161.098941 298.235846 L 160.300641 299.037446 L 159.905641 299.447946 L 159.515041 299.863046 L 158.752241 300.701946 L 158.014041 301.552346 L 157.300441 302.414146 L 156.611541 303.287446 L 155.947141 304.172246 L 155.307441 305.068446 L 154.692241 305.976146 L 154.101741 306.895346 L 153.535741 307.826046 L 152.994441 308.768146 L 152.477741 309.721746 L 151.985641 310.686746 L 151.518141 311.663246 L 151.075241 312.651246 L 150.656941 313.650746 L 150.263241 314.661646 L 149.894141 315.684046 L 149.549641 316.717946 L 149.229741 317.763246 L 148.934441 318.820046 L 148.663841 319.888346 L 148.417741 320.968046 L 148.196341 322.059246 L 147.999441 323.161946 L 147.827241 324.276046 L 147.679541 325.401746 L 147.556541 326.538746 L 147.458141 327.687346 L 147.384341 328.847346 L 147.335141 330.018846 L 147.310541 331.201846 L 147.307441 331.797546 L 147.310441 332.393246 L 147.334841 333.574946 L 147.383641 334.743946 L 147.456841 335.900146 L 147.554441 337.043746 L 147.676441 338.174546 L 147.822841 339.292646 L 147.993641 340.398046 L 148.188741 341.490746 L 148.408341 342.570646 L 148.652341 343.637846 L 148.920741 344.692346 L 149.213441 345.734146 L 149.530641 346.763246 L 149.872241 347.779646 L 150.238141 348.783246 L 150.628541 349.774146 L 151.043241 350.752346 L 151.482441 351.717746 L 151.945941 352.670546 L 152.433941 353.610546 L 152.946241 354.537846 L 153.483041 355.452446 L 154.044141 356.354346 L 154.629641 357.243446 L 155.239641 358.119946 L 155.873941 358.983646 L 156.532641 359.834646 L 157.215841 360.672846 L 157.923341 361.498446 L 158.655241 362.311246 L 159.411541 363.111346 L 159.798841 363.506646 L 160.190741 363.897246 L 160.983341 364.660046 L 161.787841 365.398246 L 162.604141 366.111746 L 163.432441 366.800746 L 164.272541 367.465146 L 165.124641 368.104846 L 165.988541 368.720046 L 166.864341 369.310546 L 167.752041 369.876446 L 168.651541 370.417846 L 169.563041 370.934546 L 170.486441 371.426646 L 171.421641 371.894146 L 172.368741 372.337046 L 173.327741 372.755346 L 174.298641 373.149046 L 175.281441 373.518146 L 176.276041 373.862646 L 177.282641 374.182546 L 178.301041 374.477746 L 179.331341 374.748446 L 180.373541 374.994546 L 181.427641 375.215946 L 182.493641 375.412846 L 183.571541 375.585046 L 184.661241 375.732646 L 185.762841 375.855746 L 186.876441 375.954146 L 188.001841 376.027946 L 189.139141 376.077146 L 190.288241 376.101746 L 190.867341 376.104846 L 191.446341 376.101546 L 192.595341 376.075246 L 193.732241 376.022746 L 194.856941 375.943946 L 195.969641 375.838846 L 197.070241 375.707446 L 198.158741 375.549846 L 199.235141 375.365846 L 200.299441 375.155746 L 201.351641 374.919246 L 202.391841 374.656446 L 203.419841 374.367446 L 204.435741 374.052146 L 205.439641 373.710646 L 206.431341 373.342746 L 207.410941 372.948646 L 208.378541 372.528246 L 209.334041 372.081646 L 210.277341 371.608746 L 211.208641 371.109446 L 212.127841 370.584046 L 213.034841 370.032246 L 213.929841 369.454246 L 214.812741 368.849946 L 215.683541 368.219346 L 216.542241 367.562446 L 217.388841 366.879346 L 218.223341 366.169946 L 219.045841 365.434246 L 219.856141 364.672346 L 220.654341 363.884146 L 221.440541 363.069646 L 221.829041 362.652546 L 222.213041 362.231046 L 222.962841 361.381246 L 223.688541 360.522546 L 224.390041 359.654946 L 225.067341 358.778246 L 225.720441 357.892646 L 226.349341 356.998146 L 226.954041 356.094546 L 227.534541 355.182046 L 228.090941 354.260546 L 228.623041 353.330146 L 229.131041 352.390746 L 229.614841 351.442346 L 230.074441 350.485046 L 230.509841 349.518746 L 230.921041 348.543446 L 231.308041 347.559246 L 231.670841 346.566046 L 232.009541 345.563846 L 232.323941 344.552746 L 232.614241 343.532646 L 232.880341 342.503546 L 233.122241 341.465546 L 233.339941 340.418546 L 233.533441 339.362546 L 233.702741 338.297646 L 233.847841 337.223746 L 233.968841 336.140846 L 234.065541 335.049046 L 234.138141 333.948246 L 234.186541 332.838446 L 234.210741 331.719746 L 234.213741 331.157046 L 234.210641 330.594246 L 234.185841 329.475546 L 234.136141 328.365746 L 234.061741 327.264946 L 233.962441 326.173146 L 233.838441 325.090246 L 233.689541 324.016346 L 233.515841 322.951446 L 233.317341 321.895446 L 233.093941 320.848446 L 232.845841 319.810446 L 232.572841 318.781346 L 232.275141 317.761246 L 231.952541 316.750146 L 231.605141 315.747946 L 231.232841 314.754746 L 230.835841 313.770546 L 230.414041 312.795246 L 229.967341 311.828946 L 229.495841 310.871646 L 228.999641 309.923246 L 228.478441 308.983846 L 227.932541 308.053446 L 227.361841 307.131946 L 226.766341 306.219446 L 226.145941 305.315946 L 225.500741 304.421346 L 224.830741 303.535746 L 224.135941 302.659046 L 223.416341 301.791446 L 222.671941 300.932746 L 221.902641 300.082946 L 221.508741 299.661446 L 221.110341 299.244346 L 220.305641 298.429846 L 219.490341 297.641646 L 218.664441 296.879746 L 217.827841 296.144046 L 216.980541 295.434646 L 216.122641 294.751546 L 215.254141 294.094646 L 214.375041 293.464046 L 213.485241 292.859746 L 212.584841 292.281746 L 211.673841 291.729946 L 210.752141 291.204546 L 209.819841 290.705346 L 208.876841 290.232346 L 207.923341 289.785746 L 206.959041 289.365346 L 205.984241 288.971246 L 204.998741 288.603346 L 204.002641 288.261846 L 202.995841 287.946546 L 201.978441 287.657546 L 200.950441 287.394746 L 199.911841 287.158346 L 198.862541 286.948146 L 197.802541 286.764146 L 196.732041 286.606546 L 195.650841 286.475146 L 194.558941 286.370046 L 193.456541 286.291246 L 192.343441 286.238746 L 191.219641 286.212446 L 190.653841 286.209146 Z M 61.723541 285.571846 L 60.612441 285.597846 L 59.511441 285.650046 L 58.420441 285.728246 L 57.339441 285.832446 L 56.268541 285.962846 L 55.207541 286.119146 L 54.156541 286.301646 L 53.115641 286.510146 L 52.084641 286.744746 L 51.063741 287.005446 L 50.052841 287.292146 L 49.051941 287.604946 L 48.060941 287.943746 L 47.080041 288.308746 L 46.109241 288.699646 L 45.148341 289.116746 L 44.197441 289.559846 L 43.256541 290.029046 L 42.325741 290.524246 L 41.404841 291.045546 L 40.494041 291.592946 L 39.593241 292.166446 L 38.702441 292.765946 L 37.821641 293.391446 L 36.950841 294.043146 L 36.090041 294.720846 L 35.239241 295.424546 L 34.398441 296.154446 L 33.567741 296.910346 L 32.746941 297.692346 L 31.936241 298.500346 L 31.534641 298.914146 L 31.137341 299.332346 L 30.361641 300.175846 L 29.610941 301.028646 L 28.885341 301.890946 L 28.184641 302.762546 L 27.509041 303.643546 L 26.858441 304.533946 L 26.232841 305.433746 L 25.632341 306.342946 L 25.056741 307.261446 L 24.506241 308.189446 L 23.980841 309.126746 L 23.480341 310.073446 L 23.004941 311.029546 L 22.554541 311.994946 L 22.129141 312.969846 L 21.728741 313.954046 L 21.353441 314.947646 L 21.003041 315.950646 L 20.677741 316.963046 L 20.377541 317.984846 L 20.102241 319.016046 L 19.852041 320.056546 L 19.626841 321.106446 L 19.426641 322.165746 L 19.251441 323.234446 L 19.101341 324.312546 L 18.976241 325.399946 L 18.876141 326.496846 L 18.801041 327.603046 L 18.751041 328.718646 L 18.725941 329.843646 L 18.722841 330.409646 L 18.725941 330.975646 L 18.750541 332.100646 L 18.799741 333.216246 L 18.873541 334.322446 L 18.971941 335.419346 L 19.095041 336.506746 L 19.242641 337.584846 L 19.414941 338.653546 L 19.611741 339.712846 L 19.833241 340.762746 L 20.079241 341.803246 L 20.349941 342.834446 L 20.645141 343.856246 L 20.965041 344.868646 L 21.309541 345.871646 L 21.678641 346.865246 L 22.072341 347.849446 L 22.490641 348.824346 L 22.933541 349.789746 L 23.401041 350.745846 L 23.893141 351.692546 L 24.409841 352.629846 L 24.951241 353.557846 L 25.517141 354.476346 L 26.107741 355.385546 L 26.722841 356.285346 L 27.362641 357.175746 L 28.026941 358.056746 L 28.715941 358.928346 L 29.429441 359.790646 L 30.167641 360.643446 L 30.930441 361.486946 L 31.321041 361.905146 L 31.716141 362.318946 L 32.514541 363.126946 L 33.324041 363.908946 L 34.144641 364.664846 L 34.976241 365.394746 L 35.818841 366.098446 L 36.672541 366.776146 L 37.537341 367.427846 L 38.413141 368.053346 L 39.299941 368.652846 L 40.197841 369.226346 L 41.106841 369.773746 L 42.026841 370.295046 L 42.957941 370.790246 L 43.900041 371.259446 L 44.853141 371.702546 L 45.817441 372.119646 L 46.792641 372.510546 L 47.778941 372.875546 L 48.776341 373.214346 L 49.784741 373.527146 L 50.804241 373.813846 L 51.834741 374.074546 L 52.876341 374.309146 L 53.929041 374.517646 L 54.992641 374.700146 L 56.067441 374.856446 L 57.153241 374.986846 L 58.250041 375.091046 L 59.357941 375.169246 L 60.476841 375.221446 L 61.606841 375.247446 L 62.176041 375.250746 L 62.745141 375.247546 L 63.875141 375.222346 L 64.994041 375.171846 L 66.101941 375.096146 L 67.198841 374.995246 L 68.284641 374.869146 L 69.359341 374.717746 L 70.423041 374.541146 L 71.475641 374.339246 L 72.517241 374.112146 L 73.547741 373.859846 L 74.567241 373.582346 L 75.575641 373.279546 L 76.573041 372.951546 L 77.559341 372.598246 L 78.534641 372.219846 L 79.498841 371.816146 L 80.452041 371.387146 L 81.394141 370.933046 L 82.325141 370.453646 L 83.245141 369.948946 L 84.154141 369.419146 L 85.052041 368.864046 L 85.938941 368.283746 L 86.814741 367.678146 L 87.679441 367.047346 L 88.533141 366.391346 L 89.375841 365.710046 L 90.207441 365.003646 L 91.027941 364.271946 L 91.837441 363.514946 L 92.635841 362.732746 L 93.030941 362.332246 L 93.421541 361.927046 L 94.184341 361.107546 L 94.922541 360.275946 L 95.636141 359.432246 L 96.325041 358.576446 L 96.989441 357.708546 L 97.629141 356.828546 L 98.244341 355.936546 L 98.834841 355.032346 L 99.400841 354.116146 L 99.942141 353.187746 L 100.458841 352.247346 L 100.950941 351.294746 L 101.418441 350.330146 L 101.861341 349.353446 L 102.279641 348.364546 L 102.673341 347.363646 L 103.042441 346.350646 L 103.386941 345.325546 L 103.706841 344.288346 L 104.002141 343.239046 L 104.272741 342.177646 L 104.518841 341.104146 L 104.740241 340.018646 L 104.937141 338.920946 L 105.109341 337.811146 L 105.257041 336.689346 L 105.380041 335.555346 L 105.478441 334.409346 L 105.552241 333.251146 L 105.601441 332.080946 L 105.626041 330.898546 L 105.629141 330.302846 L 105.626041 329.707246 L 105.601041 328.525046 L 105.550941 327.355246 L 105.475841 326.197746 L 105.375841 325.052546 L 105.250641 323.919646 L 105.100541 322.799046 L 104.925341 321.690646 L 104.725241 320.594646 L 104.500041 319.510946 L 104.249741 318.439546 L 103.974541 317.380446 L 103.674241 316.333746 L 103.348941 315.299246 L 102.998641 314.277046 L 102.623241 313.267146 L 102.222941 312.269546 L 101.797541 311.284246 L 101.347141 310.311346 L 100.871641 309.350646 L 100.371241 308.402246 L 99.845741 307.466246 L 99.295241 306.542446 L 98.719741 305.630946 L 98.119141 304.731846 L 97.493541 303.844946 L 96.842941 302.970446 L 96.167341 302.108146 L 95.466741 301.258246 L 94.741041 300.420546 L 93.990341 299.595246 L 93.214641 298.782246 L 92.817441 298.380346 L 92.415841 297.983046 L 91.605541 297.207346 L 90.785641 296.456646 L 89.956141 295.730946 L 89.117041 295.030346 L 88.268341 294.354746 L 87.410041 293.704146 L 86.542141 293.078546 L 85.664641 292.478046 L 84.777641 291.902446 L 83.880941 291.351946 L 82.974741 290.826546 L 82.058841 290.326046 L 81.133441 289.850646 L 80.198441 289.400146 L 79.253741 288.974846 L 78.299541 288.574446 L 77.335741 288.199046 L 76.362341 287.848746 L 75.379441 287.523446 L 74.386841 287.223246 L 73.384641 286.947946 L 72.372941 286.697746 L 71.351541 286.472546 L 70.320641 286.272346 L 69.280041 286.097146 L 68.229941 285.947046 L 67.170241 285.821946 L 66.100941 285.721846 L 65.022041 285.646746 L 63.933541 285.596746 L 62.835441 285.571646 L 62.282741 285.568546 Z M 315.545741 283.899546 L 314.434741 283.925646 L 313.333741 283.977746 L 312.242741 284.055946 L 311.161741 284.160246 L 310.090741 284.290546 L 309.029741 284.446946 L 307.978841 284.629446 L 306.937841 284.837946 L 305.906941 285.072546 L 304.885941 285.333146 L 303.875041 285.619946 L 302.874141 285.932646 L 301.883241 286.271546 L 300.902341 286.636446 L 299.931441 287.027446 L 298.970541 287.444446 L 298.019641 287.887646 L 297.078841 288.356746 L 296.147941 288.852046 L 295.227141 289.373346 L 294.316241 289.920746 L 293.415441 290.494146 L 292.524641 291.093646 L 291.643841 291.719246 L 290.773041 292.370846 L 289.912241 293.048546 L 289.061441 293.752346 L 288.220741 294.482146 L 287.389941 295.238046 L 286.569141 296.020046 L 285.758441 296.828046 L 285.356841 297.241846 L 284.959541 297.660146 L 284.183841 298.503546 L 283.433141 299.356446 L 282.707541 300.218646 L 282.006841 301.090346 L 281.331241 301.971346 L 280.680641 302.861746 L 280.055041 303.761546 L 279.454541 304.670646 L 278.879041 305.589246 L 278.328541 306.517146 L 277.803041 307.454446 L 277.302541 308.401146 L 276.827141 309.357246 L 276.376741 310.322746 L 275.951341 311.297646 L 275.550941 312.281846 L 275.175641 313.275446 L 274.825341 314.278446 L 274.500041 315.290846 L 274.199741 316.312646 L 273.924441 317.343746 L 273.674241 318.384346 L 273.449041 319.434246 L 273.248841 320.493546 L 273.073741 321.562246 L 272.923541 322.640246 L 272.798441 323.727746 L 272.698341 324.824546 L 272.623241 325.930846 L 272.573241 327.046446 L 272.548241 328.171346 L 272.545041 328.737446 L 272.548141 329.303446 L 272.572741 330.428446 L 272.621941 331.544046 L 272.695841 332.650246 L 272.794241 333.747046 L 272.917241 334.834546 L 273.064841 335.912646 L 273.237141 336.981246 L 273.433941 338.040546 L 273.655441 339.090546 L 273.901441 340.131046 L 274.172141 341.162246 L 274.467441 342.183946 L 274.787341 343.196346 L 275.131741 344.199346 L 275.500841 345.192946 L 275.894541 346.177246 L 276.312841 347.152046 L 276.755741 348.117546 L 277.223241 349.073646 L 277.715441 350.020346 L 278.232141 350.957646 L 278.773441 351.885546 L 279.339341 352.804146 L 279.929941 353.713246 L 280.545041 354.613046 L 281.184841 355.503446 L 281.849141 356.384446 L 282.538141 357.256146 L 283.251741 358.118346 L 283.989941 358.971246 L 284.752641 359.814746 L 285.143341 360.232946 L 285.538341 360.646746 L 286.336841 361.454746 L 287.146341 362.236746 L 287.966841 362.992646 L 288.798441 363.722446 L 289.641041 364.426246 L 290.494741 365.103946 L 291.359541 365.755546 L 292.235341 366.381146 L 293.122241 366.980646 L 294.020141 367.554046 L 294.929041 368.101446 L 295.849041 368.622746 L 296.780141 369.118046 L 297.722241 369.587246 L 298.675441 370.030346 L 299.639641 370.447346 L 300.614941 370.838346 L 301.601241 371.203246 L 302.598541 371.542146 L 303.607041 371.854946 L 304.626441 372.141646 L 305.657041 372.402246 L 306.698641 372.636846 L 307.751241 372.845446 L 308.814941 373.027846 L 309.889641 373.184246 L 310.975441 373.314546 L 312.072241 373.418846 L 313.180141 373.497046 L 314.299141 373.549146 L 315.429141 373.575246 L 315.998241 373.578446 L 316.567341 373.575346 L 317.697341 373.550146 L 318.816341 373.499646 L 319.924241 373.423946 L 321.021041 373.323046 L 322.106841 373.196846 L 323.181541 373.045446 L 324.245241 372.868846 L 325.297841 372.667046 L 326.339441 372.439946 L 327.369941 372.187646 L 328.389441 371.910046 L 329.397841 371.607246 L 330.395241 371.279246 L 331.381541 370.926046 L 332.356841 370.547546 L 333.321041 370.143846 L 334.274241 369.714946 L 335.216341 369.260746 L 336.147441 368.781346 L 337.067441 368.276746 L 337.976341 367.746846 L 338.874241 367.191746 L 339.761141 366.611446 L 340.636941 366.005946 L 341.501641 365.375146 L 342.355341 364.719146 L 343.198041 364.037846 L 344.029641 363.331346 L 344.850141 362.599646 L 345.659641 361.842746 L 346.458141 361.060546 L 346.853141 360.659946 L 347.243741 360.254746 L 348.006541 359.435246 L 348.744741 358.603646 L 349.458341 357.759946 L 350.147241 356.904246 L 350.811641 356.036346 L 351.451441 355.156346 L 352.066541 354.264246 L 352.657041 353.360146 L 353.223041 352.443846 L 353.764341 351.515546 L 354.281041 350.575046 L 354.773141 349.622546 L 355.240741 348.657946 L 355.683641 347.681146 L 356.101941 346.692346 L 356.495641 345.691446 L 356.864641 344.678446 L 357.209141 343.653346 L 357.529041 342.616146 L 357.824341 341.566846 L 358.094941 340.505446 L 358.341041 339.431946 L 358.562541 338.346346 L 358.759341 337.248646 L 358.931541 336.138946 L 359.079241 335.017046 L 359.202241 333.883146 L 359.300641 332.737046 L 359.374441 331.578946 L 359.423741 330.408646 L 359.448341 329.226346 L 359.451341 328.630646 L 359.448241 328.034946 L 359.423241 326.852846 L 359.373141 325.683046 L 359.298141 324.525546 L 359.198041 323.380246 L 359.072941 322.247346 L 358.922741 321.126746 L 358.747641 320.018446 L 358.547441 318.922446 L 358.322241 317.838746 L 358.072041 316.767346 L 357.796741 315.708246 L 357.496441 314.661446 L 357.171141 313.626946 L 356.820841 312.604746 L 356.445541 311.594946 L 356.045141 310.597346 L 355.619741 309.612046 L 355.169341 308.639046 L 354.693941 307.678346 L 354.193441 306.730046 L 353.667941 305.793946 L 353.117441 304.870246 L 352.541941 303.958746 L 351.941341 303.059546 L 351.315841 302.172746 L 350.665241 301.298146 L 349.989541 300.435946 L 349.288941 299.585946 L 348.563241 298.748346 L 347.812641 297.923046 L 347.036841 297.109946 L 346.639641 296.708046 L 346.238041 296.310846 L 345.427741 295.535146 L 344.607841 294.784446 L 343.778341 294.058746 L 342.939241 293.358146 L 342.090541 292.682446 L 341.232241 292.031946 L 340.364341 291.406346 L 339.486941 290.805746 L 338.599841 290.230246 L 337.703141 289.679746 L 336.796941 289.154246 L 335.881041 288.653846 L 334.955641 288.178346 L 334.020641 287.727946 L 333.076041 287.302546 L 332.121841 286.902246 L 331.158041 286.526846 L 330.184641 286.176546 L 329.201641 285.851246 L 328.209041 285.550946 L 327.206841 285.275746 L 326.195141 285.025446 L 325.173741 284.800246 L 324.142841 284.600046 L 323.102341 284.424946 L 322.052141 284.274746 L 320.992441 284.149646 L 319.923141 284.049546 L 318.844241 283.974546 L 317.755741 283.924446 L 316.657641 283.899446 L 316.105041 283.896346 Z M 218.963041 131.086646 L 220.499841 131.127546 L 222.025341 131.209246 L 223.539641 131.331846 L 225.042741 131.495346 L 226.534541 131.699746 L 228.015041 131.944946 L 229.484341 132.231046 L 230.942341 132.558046 L 232.389041 132.925846 L 233.824541 133.334546 L 235.248741 133.784146 L 236.661741 134.274546 L 238.063441 134.805946 L 239.453841 135.378046 L 240.833041 135.991146 L 242.200941 136.645046 L 243.557641 137.339846 L 244.903041 138.075546 L 246.237141 138.852146 L 247.560041 139.669546 L 248.871641 140.527846 L 250.172041 141.426946 L 251.461141 142.366946 L 252.738941 143.347846 L 254.005541 144.369646 L 255.260841 145.432346 L 256.504941 146.535846 L 257.737741 147.680246 L 258.959241 148.865446 L 260.169541 150.091546 L 261.368541 151.358546 L 261.963841 152.007346 L 261.963841 134.925046 L 279.259641 134.925046 L 279.259641 251.298346 L 261.963841 251.298346 L 261.963841 233.575446 L 261.421341 234.217646 L 260.324241 235.471746 L 259.211141 236.685346 L 258.082041 237.858546 L 256.936741 238.991246 L 255.775541 240.083446 L 254.598141 241.135246 L 253.404741 242.146646 L 252.195341 243.117446 L 250.969841 244.047946 L 249.728341 244.937946 L 248.470641 245.787446 L 247.197041 246.596546 L 245.907341 247.365146 L 244.601541 248.093346 L 243.279641 248.781046 L 241.941741 249.428246 L 240.587841 250.035046 L 239.217841 250.601446 L 237.831741 251.127346 L 236.429641 251.612746 L 235.011441 252.057746 L 233.577241 252.462346 L 232.126941 252.826346 L 230.660641 253.150046 L 229.178241 253.433146 L 227.679741 253.675946 L 226.165241 253.878146 L 224.634641 254.040046 L 223.088041 254.161346 L 221.525341 254.242246 L 219.946641 254.282746 L 219.151241 254.287746 L 218.355741 254.283346 L 216.776141 254.248146 L 215.211841 254.177646 L 213.662741 254.071946 L 212.128841 253.930946 L 210.610141 253.754746 L 209.106641 253.543346 L 207.618441 253.296646 L 206.145441 253.014746 L 204.687641 252.697546 L 203.245041 252.345146 L 201.817641 251.957446 L 200.405541 251.534646 L 199.008641 251.076446 L 197.626941 250.583146 L 196.260541 250.054546 L 194.909241 249.490646 L 193.573241 248.891546 L 192.252441 248.257246 L 190.946841 247.587646 L 189.656541 246.882846 L 188.381441 246.142746 L 187.121541 245.367446 L 185.876841 244.556946 L 184.647341 243.711146 L 183.433141 242.830146 L 182.234141 241.913946 L 181.050341 240.962446 L 179.881741 239.975646 L 178.728441 238.953746 L 177.590241 237.896446 L 176.467341 236.804046 L 175.911641 236.244546 L 175.362141 235.678946 L 174.289041 234.537046 L 173.250541 233.381046 L 172.246741 232.210746 L 171.277541 231.026346 L 170.342941 229.827746 L 169.442941 228.614946 L 168.577541 227.388046 L 167.746841 226.146846 L 166.950641 224.891546 L 166.189141 223.622046 L 165.462241 222.338446 L 164.769941 221.040546 L 164.112241 219.728546 L 163.489141 218.402246 L 162.900641 217.061946 L 162.346841 215.707346 L 161.827641 214.338546 L 161.343041 212.955646 L 160.893041 211.558546 L 160.477641 210.147246 L 160.096841 208.721746 L 159.750741 207.282146 L 159.439141 205.828246 L 159.162241 204.360246 L 158.919941 202.878046 L 158.712241 201.381646 L 158.539241 199.871146 L 158.400741 198.346446 L 158.296841 196.807546 L 158.227641 195.254446 L 158.193041 193.687146 L 158.188741 192.898146 L 158.193041 192.109146 L 158.227441 190.541546 L 158.296241 188.987546 L 158.399441 187.447446 L 158.537041 185.921046 L 158.709141 184.408346 L 158.915541 182.909546 L 159.156441 181.424446 L 159.431641 179.953046 L 159.741341 178.495446 L 160.085341 177.051646 L 160.463841 175.621546 L 160.876741 174.205246 L 161.324041 172.802746 L 161.805741 171.413946 L 162.321841 170.038946 L 162.872341 168.677746 L 163.457241 167.330246 L 164.076541 165.996546 L 164.730241 164.676546 L 165.418341 163.370346 L 166.140941 162.077946 L 166.897841 160.799246 L 167.689241 159.534346 L 168.514941 158.283146 L 169.375141 157.045846 L 170.269741 155.822146 L 171.198641 154.612346 L 172.162041 153.416246 L 173.159841 152.233946 L 174.192041 151.065346 L 175.258641 149.910546 L 175.804841 149.338246 L 176.357141 148.772246 L 177.472041 147.666846 L 178.601041 146.597046 L 179.743941 145.563046 L 180.900841 144.564646 L 182.071741 143.601846 L 183.256541 142.674746 L 184.455341 141.783346 L 185.668141 140.927546 L 186.894841 140.107446 L 188.135641 139.322946 L 189.390341 138.574146 L 190.658941 137.860946 L 191.941641 137.183446 L 193.238241 136.541646 L 194.548741 135.935446 L 195.873341 135.364946 L 197.211841 134.830046 L 198.564341 134.330846 L 199.930841 133.867346 L 201.311241 133.439446 L 202.705641 133.047146 L 204.114041 132.690646 L 205.536341 132.369646 L 206.972641 132.084446 L 208.422941 131.834846 L 209.887241 131.620846 L 211.365441 131.442546 L 212.857641 131.299946 L 214.363841 131.192946 L 215.883941 131.121646 L 217.418041 131.086046 L 218.190341 131.081546 Z M 218.912241 147.526546 L 217.801241 147.552646 L 216.700241 147.604746 L 215.609241 147.682946 L 214.528241 147.787146 L 213.457241 147.917546 L 212.396341 148.073946 L 211.345341 148.256346 L 210.304341 148.464946 L 209.273441 148.699446 L 208.252541 148.960146 L 207.241541 149.246846 L 206.240641 149.559646 L 205.249741 149.898546 L 204.268841 150.263446 L 203.297941 150.654446 L 202.337041 151.071446 L 201.386241 151.514546 L 200.445341 151.983746 L 199.514541 152.478946 L 198.593641 153.000346 L 197.682841 153.547646 L 196.782041 154.121146 L 195.891141 154.720646 L 195.010341 155.346246 L 194.139541 155.997846 L 193.278741 156.675546 L 192.428041 157.379346 L 191.587241 158.109146 L 190.756441 158.865046 L 189.935741 159.647046 L 189.124941 160.455046 L 188.723341 160.868846 L 188.326141 161.287046 L 187.550441 162.130546 L 186.799741 162.983446 L 186.074041 163.845646 L 185.373441 164.717246 L 184.697841 165.598346 L 184.047241 166.488746 L 183.421641 167.388446 L 182.821041 168.297646 L 182.245541 169.216246 L 181.695041 170.144146 L 181.169541 171.081446 L 180.669141 172.028146 L 180.193641 172.984246 L 179.743241 173.949746 L 179.317841 174.924546 L 178.917541 175.908846 L 178.542141 176.902446 L 178.191841 177.905446 L 177.866541 178.917846 L 177.566241 179.939546 L 177.291041 180.970746 L 177.040741 182.011246 L 176.815541 183.061146 L 176.615441 184.120446 L 176.440241 185.189146 L 176.290141 186.267246 L 176.164941 187.354746 L 176.064841 188.451546 L 175.989841 189.557746 L 175.939741 190.673346 L 175.914741 191.798346 L 175.911641 192.364346 L 175.914741 192.930346 L 175.939341 194.055346 L 175.988541 195.170946 L 176.062341 196.277246 L 176.160741 197.374046 L 176.283741 198.461446 L 176.431441 199.539546 L 176.603641 200.608246 L 176.800541 201.667546 L 177.021941 202.717446 L 177.268041 203.758046 L 177.538641 204.789146 L 177.833941 205.810946 L 178.153841 206.823346 L 178.498341 207.826346 L 178.867441 208.819946 L 179.261141 209.804146 L 179.679441 210.779046 L 180.122341 211.744546 L 180.589841 212.700546 L 181.081941 213.647246 L 181.598641 214.584646 L 182.139941 215.512546 L 182.705941 216.431046 L 183.296441 217.340246 L 183.911641 218.240046 L 184.551341 219.130446 L 185.215741 220.011446 L 185.904641 220.883046 L 186.618241 221.745346 L 187.356441 222.598146 L 188.119241 223.441646 L 188.509841 223.859946 L 188.904941 224.273646 L 189.703341 225.081746 L 190.512841 225.863646 L 191.333341 226.619546 L 192.164941 227.349446 L 193.007641 228.053146 L 193.861341 228.730846 L 194.726041 229.382546 L 195.601841 230.008146 L 196.488741 230.607646 L 197.386641 231.181046 L 198.295641 231.728446 L 199.215641 232.249746 L 200.146641 232.744946 L 201.088741 233.214146 L 202.041941 233.657246 L 203.006141 234.074346 L 203.981441 234.465346 L 204.967741 234.830246 L 205.965141 235.169046 L 206.973541 235.481846 L 207.993041 235.768546 L 209.023541 236.029246 L 210.065141 236.263846 L 211.117741 236.472346 L 212.181441 236.654846 L 213.256141 236.811246 L 214.341941 236.941546 L 215.438841 237.045846 L 216.546741 237.124046 L 217.665641 237.176146 L 218.795641 237.202246 L 219.364741 237.205446 L 219.933941 237.202346 L 221.063941 237.177046 L 222.182841 237.126646 L 223.290741 237.050946 L 224.387541 236.949946 L 225.473341 236.823846 L 226.548141 236.672446 L 227.611741 236.495846 L 228.664441 236.293946 L 229.706041 236.066846 L 230.736541 235.814546 L 231.756041 235.537046 L 232.764441 235.234246 L 233.761841 234.906246 L 234.748141 234.553046 L 235.723341 234.174546 L 236.687641 233.770846 L 237.640741 233.341846 L 238.582841 232.887746 L 239.513941 232.408346 L 240.433941 231.903746 L 241.342941 231.373846 L 242.240841 230.818746 L 243.127641 230.238446 L 244.003441 229.632846 L 244.868241 229.002046 L 245.721941 228.346046 L 246.564541 227.664846 L 247.396141 226.958346 L 248.216741 226.226646 L 249.026241 225.469646 L 249.824641 224.687546 L 250.219741 224.286946 L 250.610341 223.881746 L 251.373141 223.062246 L 252.111241 222.230646 L 252.824841 221.386946 L 253.513841 220.531146 L 254.178141 219.663246 L 254.817941 218.783346 L 255.433041 217.891246 L 256.023641 216.987046 L 256.589541 216.070846 L 257.130841 215.142446 L 257.647641 214.202046 L 258.139741 213.249546 L 258.607241 212.284846 L 259.050141 211.308146 L 259.468441 210.319346 L 259.862141 209.318346 L 260.231241 208.305346 L 260.575741 207.280246 L 260.895541 206.243046 L 261.190841 205.193746 L 261.461541 204.132346 L 261.707541 203.058946 L 261.929041 201.973346 L 262.125841 200.875646 L 262.298141 199.765846 L 262.445741 198.644046 L 262.568741 197.510046 L 262.667241 196.364046 L 262.741041 195.205846 L 262.790241 194.035646 L 262.814841 192.853346 L 262.817941 192.257646 L 262.814841 191.661946 L 262.789741 190.479846 L 262.739741 189.309946 L 262.664641 188.152446 L 262.564541 187.007246 L 262.439441 185.874346 L 262.289341 184.753746 L 262.114141 183.645446 L 261.913941 182.549446 L 261.688741 181.465746 L 261.438541 180.394346 L 261.163241 179.335246 L 260.863041 178.288446 L 260.537741 177.253946 L 260.187341 176.231746 L 259.812041 175.221846 L 259.411641 174.224246 L 258.986241 173.239046 L 258.535841 172.266046 L 258.060441 171.305346 L 257.559941 170.356946 L 257.034541 169.420946 L 256.484041 168.497146 L 255.908441 167.585746 L 255.307941 166.686546 L 254.682341 165.799646 L 254.031741 164.925146 L 253.356141 164.062846 L 252.655441 163.212946 L 251.929841 162.375346 L 251.179141 161.549946 L 250.403441 160.736946 L 250.006141 160.335046 L 249.604641 159.937746 L 248.794241 159.162046 L 247.974341 158.411346 L 247.144841 157.685746 L 246.305741 156.985046 L 245.457041 156.309446 L 244.598741 155.658846 L 243.730941 155.033246 L 242.853441 154.432746 L 241.966341 153.857246 L 241.069741 153.306746 L 240.163441 152.781246 L 239.247641 152.280746 L 238.322241 151.805346 L 237.387141 151.354946 L 236.442541 150.929546 L 235.488341 150.529146 L 234.524541 150.153846 L 233.551141 149.803446 L 232.568141 149.478246 L 231.575641 149.177946 L 230.573441 148.902646 L 229.561641 148.652446 L 228.540341 148.427246 L 227.509341 148.227046 L 226.468841 148.051846 L 225.418741 147.901746 L 224.358941 147.776646 L 223.289641 147.676546 L 222.210741 147.601446 L 221.122241 147.551446 L 220.024141 147.526446 L 219.471541 147.523246 Z M 87.831541 147.274146 L 86.720541 147.300446 L 85.619541 147.352946 L 84.528541 147.431846 L 83.447541 147.536946 L 82.376541 147.668246 L 81.315641 147.825946 L 80.264641 148.009846 L 79.223741 148.220046 L 78.192741 148.456546 L 77.171841 148.719246 L 76.160941 149.008246 L 75.159941 149.323546 L 74.169041 149.665146 L 73.188141 150.032946 L 72.217241 150.427046 L 71.256441 150.847446 L 70.305541 151.294146 L 69.364641 151.767046 L 68.433841 152.266246 L 67.512941 152.791746 L 66.602141 153.343446 L 65.701341 153.921546 L 64.810541 154.525846 L 63.929641 155.156346 L 63.058841 155.813246 L 62.198141 156.496346 L 61.347341 157.205746 L 60.506541 157.941446 L 59.675741 158.703346 L 58.855041 159.491646 L 58.044341 160.306146 L 57.642641 160.723246 L 57.245441 161.144746 L 56.469741 161.994446 L 55.719041 162.853146 L 54.993341 163.720846 L 54.292741 164.597446 L 53.617141 165.483046 L 52.966541 166.377646 L 52.340941 167.281146 L 51.740441 168.193646 L 51.164841 169.115146 L 50.614341 170.045546 L 50.088841 170.984946 L 49.588441 171.933346 L 49.112941 172.890646 L 48.662541 173.856946 L 48.237141 174.832246 L 47.836841 175.816446 L 47.461441 176.809646 L 47.111141 177.811846 L 46.785841 178.823046 L 46.485541 179.843146 L 46.210341 180.872146 L 45.960141 181.910246 L 45.734841 182.957246 L 45.534741 184.013146 L 45.359541 185.078146 L 45.209441 186.152046 L 45.084341 187.234846 L 44.984241 188.326746 L 44.909141 189.427546 L 44.859041 190.537246 L 44.834041 191.656046 L 44.830941 192.218746 L 44.833941 192.781446 L 44.858341 193.899946 L 44.907141 195.009346 L 44.980341 196.109446 L 45.077941 197.200446 L 45.199941 198.282346 L 45.346341 199.354946 L 45.517141 200.418446 L 45.712341 201.472746 L 45.931841 202.517846 L 46.175841 203.553846 L 46.444241 204.580546 L 46.736941 205.598146 L 47.054141 206.606646 L 47.395741 207.605846 L 47.761641 208.595946 L 48.152041 209.576846 L 48.566741 210.548546 L 49.005941 211.511146 L 49.469441 212.464446 L 49.957441 213.408646 L 50.469741 214.343746 L 51.006541 215.269546 L 51.567641 216.186246 L 52.153241 217.093746 L 52.763141 217.992046 L 53.397441 218.881146 L 54.056141 219.761146 L 54.739341 220.631946 L 55.446841 221.493546 L 56.178741 222.346046 L 56.935041 223.189346 L 57.322341 223.607546 L 57.714241 224.021246 L 58.507041 224.829346 L 59.311941 225.611246 L 60.128941 226.367146 L 60.958041 227.097046 L 61.799241 227.800746 L 62.652541 228.478546 L 63.517941 229.130146 L 64.395341 229.755746 L 65.284941 230.355246 L 66.186641 230.928646 L 67.100341 231.476046 L 68.026241 231.997346 L 68.964141 232.492546 L 69.914141 232.961746 L 70.876341 233.404846 L 71.850541 233.821946 L 72.836841 234.212946 L 73.835241 234.577846 L 74.845741 234.916646 L 75.868341 235.229446 L 76.903041 235.516246 L 77.949841 235.776846 L 79.008741 236.011446 L 80.079741 236.219946 L 81.162841 236.402446 L 82.258041 236.558846 L 83.365241 236.689146 L 84.484641 236.793446 L 85.616041 236.871646 L 86.759641 236.923746 L 87.915241 236.949846 L 88.497641 236.953046 L 89.079941 236.949946 L 90.235141 236.924646 L 91.377841 236.874246 L 92.508041 236.798546 L 93.625741 236.697546 L 94.730941 236.571446 L 95.823641 236.420046 L 96.903741 236.243446 L 97.971441 236.041546 L 99.026541 235.814446 L 100.069141 235.562146 L 101.099241 235.284646 L 102.116841 234.981846 L 103.121941 234.653846 L 104.114541 234.300646 L 105.094641 233.922146 L 106.062141 233.518446 L 107.017141 233.089446 L 107.959741 232.635346 L 108.889741 232.155946 L 109.807241 231.651346 L 110.712241 231.121446 L 111.604741 230.566346 L 112.484741 229.986046 L 113.352141 229.380446 L 114.207141 228.749646 L 115.049541 228.093646 L 115.879441 227.412446 L 116.696941 226.705946 L 117.501841 225.974246 L 118.294141 225.217246 L 119.074041 224.435146 L 119.459341 224.034546 L 119.840041 223.629246 L 120.583441 222.809346 L 121.302841 221.976946 L 121.998241 221.132046 L 122.669641 220.274546 L 123.317141 219.404546 L 123.940641 218.522146 L 124.540141 217.627146 L 125.115641 216.719646 L 125.667241 215.799646 L 126.194741 214.867046 L 126.698341 213.922046 L 127.177941 212.964546 L 127.633641 211.994446 L 128.065241 211.011846 L 128.472941 210.016846 L 128.856641 209.009246 L 129.216341 207.989146 L 129.552041 206.956546 L 129.863741 205.911346 L 130.151541 204.853746 L 130.415341 203.783646 L 130.655141 202.700946 L 130.870941 201.605746 L 131.062741 200.498046 L 131.230641 199.377946 L 131.374541 198.245246 L 131.494441 197.099946 L 131.590341 195.942246 L 131.662341 194.772046 L 131.710241 193.589246 L 131.734241 192.394046 L 131.737241 191.791646 L 131.734041 191.189446 L 131.708141 189.994846 L 131.656441 188.813346 L 131.578841 187.644946 L 131.475441 186.489746 L 131.346141 185.347646 L 131.191041 184.218646 L 131.010041 183.102846 L 130.803141 182.000146 L 130.570441 180.910646 L 130.311841 179.834246 L 130.027441 178.770946 L 129.717141 177.720846 L 129.381041 176.683846 L 129.019041 175.659946 L 128.631141 174.649246 L 128.217441 173.651746 L 127.777841 172.667246 L 127.312441 171.695946 L 126.821141 170.737746 L 126.304041 169.792746 L 125.761041 168.860846 L 125.192141 167.942046 L 124.597441 167.036446 L 123.976941 166.143946 L 123.330441 165.264646 L 122.658141 164.398446 L 121.960041 163.545346 L 121.236041 162.705446 L 120.486241 161.878646 L 119.710441 161.064946 L 118.908941 160.264446 L 118.498441 159.869046 L 118.083841 159.478446 L 117.249341 158.715646 L 116.407741 157.977546 L 115.559041 157.263946 L 114.703241 156.574946 L 113.840341 155.910646 L 112.970441 155.270846 L 112.093341 154.655746 L 111.209241 154.065146 L 110.317941 153.499246 L 109.419641 152.957946 L 108.514241 152.441146 L 107.601741 151.949046 L 106.682141 151.481546 L 105.755441 151.038646 L 104.821641 150.620346 L 103.880841 150.226646 L 102.932841 149.857546 L 101.977841 149.513046 L 101.015741 149.193246 L 100.046441 148.897946 L 99.070141 148.627246 L 98.086741 148.381246 L 97.096241 148.159746 L 96.098741 147.962946 L 95.094041 147.790646 L 94.082241 147.643046 L 93.063441 147.520046 L 92.037441 147.421546 L 91.004441 147.347746 L 89.964341 147.298546 L 88.917141 147.273946 L 88.390841 147.270846 Z M 20.629641 54.645046 L 75.293041 5.533346 L 100.702941 5.533346 L 33.014241 66.389146 L 97.072941 121.906646 L 70.808941 121.693146 L 20.629641 77.919746 L 20.629641 165.680146 L 2.906641 165.680146 L 2.906641 5.533346 L 20.629641 5.533346 Z M 152.270341 1.004346 L 153.855741 1.039546 L 155.425141 1.110046 L 156.978441 1.215846 L 158.515641 1.356746 L 160.036841 1.532946 L 161.541941 1.744446 L 163.031041 1.991046 L 164.504041 2.273046 L 165.961041 2.590146 L 167.401941 2.942546 L 168.826741 3.330246 L 170.235541 3.753146 L 171.628241 4.211246 L 173.004941 4.704646 L 174.365541 5.233246 L 175.710141 5.797046 L 175.893141 5.879546 L 175.893141 7.894346 L 180.000541 7.894346 L 180.927841 8.404846 L 182.192141 9.144946 L 183.440341 9.920246 L 184.672541 10.730746 L 185.888641 11.576546 L 187.088741 12.457546 L 188.272741 13.373846 L 189.440641 14.325346 L 190.592541 15.312046 L 191.728341 16.334046 L 192.848141 17.391246 L 193.951841 18.483746 L 194.497741 19.043146 L 195.037241 19.608846 L 196.090941 20.750846 L 197.110641 21.907346 L 198.096341 23.078246 L 199.048041 24.263446 L 199.965741 25.463146 L 200.849441 26.677146 L 201.699241 27.905546 L 202.514941 29.148346 L 203.296741 30.405546 L 204.044441 31.677146 L 204.758241 32.963146 L 205.438041 34.263446 L 206.083841 35.578246 L 206.695641 36.907346 L 207.273441 38.250846 L 207.817341 39.608746 L 208.327141 40.981046 L 208.803041 42.367746 L 209.244841 43.768846 L 209.652741 45.184346 L 210.026641 46.614146 L 210.366541 48.058446 L 210.672441 49.517046 L 210.944341 50.990046 L 211.182241 52.477446 L 211.386241 53.979246 L 211.556141 55.495446 L 211.692141 57.026046 L 211.794141 58.570946 L 211.862041 60.130346 L 211.896041 61.704046 L 211.900341 62.496346 L 211.896041 63.288546 L 211.861641 64.862546 L 211.792741 66.422246 L 211.689541 67.967846 L 211.551941 69.499246 L 211.379941 71.016546 L 211.173441 72.519546 L 210.932641 74.008446 L 210.657341 75.483046 L 210.347741 76.943646 L 210.003641 78.389946 L 209.625141 79.822046 L 209.212341 81.240046 L 208.765041 82.643846 L 208.283341 84.033446 L 207.767241 85.408846 L 207.216741 86.770146 L 206.631841 88.117146 L 206.012541 89.450046 L 205.358741 90.768746 L 204.670641 92.073346 L 203.948141 93.363646 L 203.191141 94.639846 L 202.399841 95.901846 L 201.574041 97.149646 L 200.713841 98.383246 L 199.819341 99.602746 L 198.890341 100.807946 L 197.926941 101.999046 L 196.929141 103.175946 L 195.896941 104.338746 L 194.830341 105.487246 L 194.284141 106.056246 L 193.731841 106.618946 L 192.616041 107.717846 L 191.485341 108.781346 L 190.339941 109.809346 L 189.179741 110.801946 L 188.004641 111.759046 L 186.814841 112.680746 L 185.610241 113.567046 L 184.390741 114.417746 L 183.156541 115.233146 L 181.907441 116.012946 L 180.643541 116.757446 L 179.364941 117.466446 L 178.071441 118.139946 L 176.763141 118.778046 L 175.440041 119.380646 L 174.102141 119.947846 L 172.749441 120.479546 L 171.381941 120.975846 L 169.999641 121.436746 L 168.602541 121.862146 L 167.190641 122.252046 L 165.763941 122.606546 L 164.322341 122.925546 L 162.866041 123.209146 L 161.394841 123.457346 L 159.908941 123.670046 L 158.408241 123.847246 L 156.892641 123.989046 L 155.362241 124.095446 L 153.817141 124.166346 L 152.257141 124.201746 L 151.471641 124.206146 L 150.679441 124.201746 L 149.106541 124.166346 L 147.548841 124.095446 L 146.006441 123.989046 L 144.479141 123.847246 L 142.967141 123.670046 L 141.470341 123.457346 L 139.988841 123.209146 L 138.522441 122.925546 L 137.071341 122.606546 L 135.635441 122.252046 L 134.214741 121.862146 L 132.809341 121.436746 L 131.419041 120.975846 L 130.044041 120.479546 L 128.684341 119.947846 L 127.339741 119.380646 L 126.010341 118.778046 L 124.696241 118.139946 L 123.397341 117.466446 L 122.113641 116.757446 L 120.845241 116.012946 L 119.592041 115.233146 L 118.354041 114.417746 L 117.131241 113.567046 L 115.923641 112.680746 L 114.731341 111.759046 L 113.554141 110.801946 L 112.392241 109.809346 L 111.245641 108.781346 L 110.114141 107.717846 L 108.997941 106.618946 L 108.445541 106.056246 L 107.899341 105.487246 L 106.832741 104.338746 L 105.800541 103.175946 L 104.802741 101.999046 L 103.839341 100.807946 L 102.910341 99.602746 L 102.015841 98.383246 L 101.155641 97.149646 L 100.329841 95.901846 L 99.538541 94.639846 L 98.781541 93.363646 L 98.059041 92.073346 L 97.370941 90.768746 L 96.717141 89.450046 L 96.097841 88.117146 L 95.512941 86.770146 L 94.962441 85.408846 L 94.446341 84.033446 L 93.964641 82.643846 L 93.517341 81.240046 L 93.104541 79.822046 L 92.726041 78.389946 L 92.381941 76.943646 L 92.072341 75.483046 L 91.797041 74.008446 L 91.556241 72.519546 L 91.349741 71.016546 L 91.177741 69.499246 L 91.040141 67.967846 L 90.936841 66.422246 L 90.868041 64.862546 L 90.833641 63.288546 L 90.829341 62.496346 L 90.833641 61.704046 L 90.867841 60.130346 L 90.936241 58.570946 L 91.038841 57.026046 L 91.175641 55.495446 L 91.346641 53.979246 L 91.551841 52.477446 L 91.791141 50.990046 L 92.064741 49.517046 L 92.372541 48.058446 L 92.714541 46.614146 L 93.090741 45.184346 L 93.501041 43.768846 L 93.945641 42.367746 L 94.424441 40.981046 L 94.937441 39.608746 L 95.484541 38.250846 L 96.065941 36.907346 L 96.681541 35.578246 L 97.331241 34.263446 L 98.015241 32.963146 L 98.733341 31.677146 L 99.485741 30.405546 L 100.272341 29.148346 L 101.093041 27.905546 L 101.948041 26.677146 L 102.837141 25.463146 L 103.760441 24.263446 L 104.718041 23.078246 L 105.709741 21.907346 L 106.735741 20.750846 L 107.795841 19.608846 L 108.338741 19.043146 L 108.887941 18.483746 L 109.998041 17.391246 L 111.124141 16.334046 L 112.266041 15.312046 L 113.423741 14.325346 L 114.597341 13.373846 L 115.786741 12.457546 L 116.991941 11.576546 L 118.213141 10.730746 L 119.450041 9.920246 L 120.702841 9.144946 L 121.971541 8.404846 L 123.256041 7.700046 L 124.556441 7.030546 L 125.872641 6.396146 L 127.204641 5.797046 L 128.552541 5.233246 L 129.916341 4.704646 L 131.295941 4.211246 L 132.691341 3.753146 L 134.102641 3.330246 L 135.529841 2.942546 L 136.972841 2.590146 L 138.431641 2.273046 L 139.906341 1.991046 L 141.396841 1.744446 L 142.903241 1.532946 L 144.425441 1.356746 L 145.963541 1.215846 L 147.517441 1.110046 L 149.087241 1.039546 L 150.672841 1.004346 L 151.471641 0.999946 Z M 240.278341 41.826446 L 240.280941 43.531446 L 240.301741 46.841946 L 240.343441 50.019846 L 240.406041 53.065146 L 240.489441 55.977846 L 240.593741 58.757846 L 240.718841 61.405346 L 240.864741 63.920146 L 241.031641 66.302346 L 241.219241 68.551846 L 241.427841 70.668846 L 241.657141 72.653146 L 241.907441 74.504846 L 242.178441 76.223846 L 242.470441 77.810346 L 242.783241 79.264146 L 242.947441 79.941346 L 243.116841 80.598046 L 243.471341 81.887546 L 243.846641 83.145346 L 244.242841 84.371446 L 244.659941 85.565846 L 245.097841 86.728646 L 245.556541 87.859646 L 246.036141 88.959046 L 246.536641 90.026646 L 247.057941 91.062546 L 247.600141 92.066846 L 248.163141 93.039446 L 248.747041 93.980246 L 249.351741 94.889446 L 249.977341 95.766946 L 250.623741 96.612646 L 250.954741 97.023646 L 251.289641 97.424346 L 251.966941 98.187546 L 252.654241 98.899846 L 253.351541 99.561346 L 254.058841 100.171846 L 254.776141 100.731546 L 255.503541 101.240346 L 256.240841 101.698246 L 256.988241 102.105346 L 257.745541 102.461446 L 258.512941 102.766746 L 259.290341 103.021146 L 260.077741 103.224646 L 260.875141 103.377346 L 261.682541 103.479046 L 262.499941 103.529946 L 262.912341 103.536346 L 263.340241 103.528846 L 264.201041 103.468746 L 265.068541 103.348646 L 265.942641 103.168446 L 266.823441 102.928246 L 267.710941 102.627946 L 268.605141 102.267646 L 269.505941 101.847246 L 269.958841 101.614546 L 279.140541 116.561546 L 278.595141 116.850646 L 277.515041 117.401146 L 276.449041 117.914946 L 275.397241 118.392046 L 274.359641 118.832446 L 273.336241 119.236146 L 272.326941 119.603146 L 271.331841 119.933446 L 270.350941 120.227046 L 269.384241 120.483946 L 268.431741 120.704146 L 267.493341 120.887646 L 266.569141 121.034446 L 265.659141 121.144546 L 264.763341 121.217946 L 263.881741 121.254646 L 263.446241 121.259246 L 263.013941 121.255446 L 262.158141 121.225446 L 261.314041 121.165346 L 260.481641 121.075346 L 259.660841 120.955146 L 258.851741 120.805046 L 258.054341 120.624846 L 257.268641 120.414746 L 256.494641 120.174446 L 255.732241 119.904246 L 254.981541 119.603946 L 254.242541 119.273646 L 253.515241 118.913346 L 252.799541 118.522946 L 252.095541 118.102546 L 251.403241 117.652146 L 251.061541 117.415746 L 250.721341 117.171546 L 250.041541 116.659346 L 249.362541 116.115546 L 248.684441 115.540046 L 248.007141 114.932846 L 247.330741 114.293846 L 246.655041 113.623246 L 245.980341 112.920946 L 245.306341 112.186946 L 244.633241 111.421246 L 243.960941 110.623846 L 243.289541 109.794746 L 242.618841 108.933946 L 241.949141 108.041446 L 241.280141 107.117346 L 240.612041 106.161446 L 240.278341 105.671646 L 240.278341 118.269846 L 222.341841 118.269846 L 222.341841 7.894346 L 240.278341 7.894346 Z M 150.899241 17.871846 L 149.763641 17.896846 L 148.640141 17.946946 L 147.528641 18.022046 L 146.429341 18.122146 L 145.342041 18.247246 L 144.266941 18.397346 L 143.203841 18.572546 L 142.152941 18.772646 L 141.114041 18.997946 L 140.087241 19.248146 L 139.072541 19.523346 L 138.070041 19.823646 L 137.079541 20.148946 L 136.101141 20.499246 L 135.134841 20.874646 L 134.180641 21.274946 L 133.238441 21.700346 L 132.308441 22.150746 L 131.390541 22.626246 L 130.484741 23.126646 L 129.590941 23.652146 L 128.709341 24.202646 L 127.839841 24.778246 L 126.982341 25.378746 L 126.136941 26.004346 L 125.303741 26.654946 L 124.482541 27.330546 L 123.673441 28.031146 L 122.876541 28.756846 L 122.091641 29.507546 L 121.318841 30.283246 L 120.936941 30.680446 L 120.559541 31.082246 L 119.822641 31.893746 L 119.109541 32.716246 L 118.420141 33.549446 L 117.754541 34.393546 L 117.112641 35.248546 L 116.494641 36.114346 L 115.900341 36.990946 L 115.329741 37.878446 L 114.783041 38.776746 L 114.260041 39.685946 L 113.760841 40.605946 L 113.285441 41.536746 L 112.833741 42.478446 L 112.405841 43.431046 L 112.001741 44.394446 L 111.621341 45.368646 L 111.264841 46.353646 L 110.932041 47.349646 L 110.622941 48.356346 L 110.337741 49.373946 L 110.076241 50.402446 L 109.838541 51.441646 L 109.624541 52.491846 L 109.434341 53.552746 L 109.267941 54.624646 L 109.125341 55.707246 L 109.006541 56.800746 L 108.911441 57.905146 L 108.840141 59.020346 L 108.792541 60.146346 L 108.768741 61.283246 L 108.765841 61.855746 L 108.768841 62.428346 L 108.793441 63.566246 L 108.842741 64.694346 L 108.916541 65.812746 L 109.014941 66.921246 L 109.137941 68.019946 L 109.285641 69.108846 L 109.457841 70.187946 L 109.654741 71.257246 L 109.876141 72.316746 L 110.122241 73.366446 L 110.392841 74.406446 L 110.688141 75.436546 L 111.008041 76.456846 L 111.352541 77.467346 L 111.721541 78.468046 L 112.115241 79.458946 L 112.533541 80.440046 L 112.976441 81.411346 L 113.444041 82.372846 L 113.936141 83.324546 L 114.452841 84.266446 L 114.994141 85.198546 L 115.560141 86.120846 L 116.150641 87.033346 L 116.765841 87.936046 L 117.405541 88.828946 L 118.069941 89.712146 L 118.758841 90.585446 L 119.472441 91.448946 L 120.210641 92.302546 L 120.973441 93.146446 L 121.364041 93.564746 L 121.758841 93.978546 L 122.555641 94.786546 L 123.361841 95.568546 L 124.177341 96.324446 L 125.002241 97.054246 L 125.836541 97.758046 L 126.680241 98.435746 L 127.533341 99.087446 L 128.395841 99.712946 L 129.267641 100.312446 L 130.148841 100.885946 L 131.039441 101.433346 L 131.939441 101.954646 L 132.848841 102.449846 L 133.767641 102.919046 L 134.695741 103.362146 L 135.633241 103.779246 L 136.580141 104.170146 L 137.536441 104.535146 L 138.502141 104.873946 L 139.477241 105.186746 L 140.461641 105.473446 L 141.455441 105.734146 L 142.458641 105.968746 L 143.471241 106.177246 L 144.493241 106.359646 L 145.524641 106.516046 L 146.565341 106.646446 L 147.615541 106.750646 L 148.675041 106.828846 L 149.743941 106.881046 L 150.822141 106.907046 L 151.364841 106.910346 L 151.907541 106.907046 L 152.986041 106.881046 L 154.055341 106.828846 L 155.115441 106.750646 L 156.166441 106.646446 L 157.208241 106.516046 L 158.240841 106.359646 L 159.264241 106.177246 L 160.278541 105.968746 L 161.283641 105.734146 L 162.279541 105.473446 L 163.266241 105.186746 L 164.243841 104.873946 L 165.212241 104.535146 L 166.171441 104.170146 L 167.121441 103.779246 L 168.062341 103.362146 L 168.994041 102.919046 L 169.916541 102.449846 L 170.829841 101.954646 L 171.734041 101.433346 L 172.629041 100.885946 L 173.514841 100.312446 L 174.391441 99.712946 L 175.258941 99.087446 L 176.117241 98.435746 L 176.966341 97.758046 L 177.806241 97.054246 L 178.637041 96.324446 L 179.458641 95.568546 L 180.271041 94.786546 L 181.074241 93.978546 L 181.472441 93.564746 L 181.866341 93.146546 L 182.635641 92.302846 L 183.380041 91.449546 L 184.099641 90.586646 L 184.794441 89.714246 L 185.464441 88.832146 L 186.109641 87.940546 L 186.729941 87.039246 L 187.325541 86.128446 L 187.896241 85.207946 L 188.442141 84.277946 L 188.963241 83.338346 L 189.459541 82.389146 L 189.931041 81.430346 L 190.377741 80.461946 L 190.799541 79.484046 L 191.196541 78.496446 L 191.568741 77.499246 L 191.916141 76.492546 L 192.238741 75.476146 L 192.536541 74.450246 L 192.809541 73.414646 L 193.057641 72.369546 L 193.280941 71.314846 L 193.479541 70.250546 L 193.653241 69.176646 L 193.802041 68.093146 L 193.926141 67.000046 L 194.025441 65.897346 L 194.099841 64.785146 L 194.149441 63.663246 L 194.174341 62.531846 L 194.177441 61.962446 L 194.174341 61.393246 L 194.149941 60.262646 L 194.101141 59.142446 L 194.027941 58.032646 L 193.930341 56.933346 L 193.808441 55.844446 L 193.662041 54.765946 L 193.491241 53.697846 L 193.296041 52.640246 L 193.076441 51.593046 L 192.832541 50.556246 L 192.564141 49.529846 L 192.271341 48.513946 L 191.954241 47.508446 L 191.612641 46.513346 L 191.246641 45.528746 L 190.856341 44.554446 L 190.441541 43.590646 L 190.002441 42.637346 L 189.538841 41.694346 L 189.050941 40.761846 L 188.538541 39.839746 L 188.001841 38.928046 L 187.440641 38.026846 L 186.855141 37.136046 L 186.245241 36.255646 L 185.610841 35.385646 L 184.952141 34.526146 L 184.269041 33.677046 L 183.561541 32.838346 L 182.829541 32.010046 L 182.073241 31.192246 L 181.685941 30.787246 L 181.294341 30.386646 L 180.503341 29.604546 L 179.702241 28.847546 L 178.890841 28.115846 L 178.069241 27.409346 L 177.237441 26.728146 L 176.395441 26.072146 L 175.543241 25.441346 L 174.680741 24.835746 L 173.808041 24.255446 L 172.925241 23.700346 L 172.032041 23.170546 L 171.128741 22.665846 L 170.215241 22.186446 L 169.291441 21.732346 L 168.357441 21.303346 L 167.413241 20.899646 L 166.458841 20.521246 L 165.494241 20.167946 L 164.519341 19.839946 L 163.534341 19.537146 L 162.539041 19.259646 L 161.533541 19.007346 L 160.517741 18.780246 L 159.491841 18.578346 L 158.455641 18.401746 L 157.409341 18.250346 L 156.352741 18.124246 L 155.285941 18.023246 L 154.208841 17.947546 L 153.121641 17.897146 L 152.024141 17.871846 L 151.471641 17.868746 Z" transform="scale(1.000000,1.000000) translate(72.156059,35.677454)" fill="#ffffff" opacity="1.000000"></path>
    </g>
</svg>