<?xml version="1.0" encoding="UTF-8" standalone="yes"?>
<!DOCTYPE svg PUBLIC "-//W3C//DTD SVG 1.1//EN" "http://www.w3.org/Graphics/SVG/1.1/DTD/svg11.dtd">

<svg width="500" height="500" viewBox="0 0 500 500" xmlns="http://www.w3.org/2000/svg" xmlns:xlink="http://www.w3.org/1999/xlink" version="1.1" baseProfile="full">
    <g transform="scale(1.000000,-1.000000) translate(0,-500)">
        <path d="M 52.571709 1.000000 L 496.791680 52.571709 C 496.791680 52.571709 496.791680 52.571709 496.791680 52.571709 L 445.219971 496.791680 C 445.219971 496.791680 445.219971 496.791680 445.219971 496.791680 L 1.000000 445.219971 C 1.000000 445.219971 1.000000 445.219971 1.000000 445.219971 L 52.571709 1.000000 C 52.571709 1.000000 52.571709 1.000000 52.571709 1.000000 Z" transform="scale(1.000000,1.000000) translate(1.104161,1.104151)" fill="#ffc900" opacity="1.000000"></path>
        <path d="M 1.000000 1.000000 L 35.512351 1.000000 L 48.610412 32.185860 L 109.734697 32.185860 L 122.832758 1.000000 L 157.345110 1.000000 L 94.141768 148.613069 L 64.203342 148.613069 Z M 60.668945 60.876851 L 79.172555 105.368677 L 97.676165 60.876851 Z M 165.351458 1.000000 L 215.664645 1.000000 C 257.245791 1.000000 290.926519 33.849106 290.926519 74.806535 C 290.926519 115.763964 257.245791 148.613069 215.664645 148.613069 L 165.351458 148.613069 Z M 198.408469 31.354237 L 198.408469 118.258832 L 215.664645 118.258832 C 240.613332 118.258832 257.453696 98.507788 257.453696 74.806535 C 257.453696 51.105281 240.613332 31.354237 215.664645 31.354237 Z M 283.963654 1.000000 L 318.476006 1.000000 L 331.574067 32.185860 L 392.698352 32.185860 L 405.796413 1.000000 L 440.308764 1.000000 L 377.105422 148.613069 L 347.166997 148.613069 Z M 343.632599 60.876851 L 362.136209 105.368677 L 380.639819 60.876851 Z" transform="scale(1.000000,1.000000) translate(38.530260,173.663254)" fill="#ffffff" opacity="1.000000"></path>
        <path d="M 163.467069 1.001738 L 164.377569 1.016238 L 165.282969 1.045238 L 166.183469 1.088838 L 167.078869 1.146838 L 167.969169 1.219338 L 168.854469 1.306438 L 169.734769 1.407938 L 170.610069 1.524038 L 171.480269 1.654538 L 172.345469 1.799638 L 173.205569 1.959238 L 174.060669 2.133338 L 174.910769 2.321938 L 175.755769 2.524938 L 176.595769 2.742538 L 177.430669 2.974738 L 178.260569 3.221338 L 179.085469 3.482438 L 179.905369 3.758038 L 180.720169 4.048238 L 181.529869 4.352838 L 182.334669 4.672038 L 183.134269 5.005638 L 183.928969 5.353838 L 184.718569 5.716538 L 185.503169 6.093638 L 186.282669 6.485338 L 187.057169 6.891538 L 187.826669 7.312238 L 188.591069 7.747438 L 189.350469 8.197138 L 189.728269 8.427438 L 190.477769 8.896938 L 191.946969 9.867238 L 193.376669 10.879538 L 194.766969 11.933738 L 196.117669 13.029738 L 197.428969 14.167738 L 198.700669 15.347638 L 199.932969 16.569438 L 201.125769 17.833138 L 202.279069 19.138738 L 203.392869 20.486338 L 204.467169 21.875738 L 205.501969 23.307038 L 206.497369 24.780338 L 207.453169 26.295538 L 208.369569 27.852538 L 208.812869 28.646838 L 209.030369 29.047238 L 209.455169 29.851938 L 209.866169 30.661938 L 210.263469 31.477138 L 210.647069 32.297538 L 211.017069 33.123238 L 211.373269 33.954138 L 211.715769 34.790338 L 212.044569 35.631738 L 212.359769 36.478338 L 212.661169 37.330238 L 212.948869 38.187338 L 213.222869 39.049738 L 213.483169 39.917238 L 213.729869 40.790138 L 213.962769 41.668138 L 214.181969 42.551538 L 214.387469 43.440038 L 214.579269 44.333838 L 214.757369 45.232838 L 214.921769 46.137138 L 215.072469 47.046638 L 215.209569 47.961338 L 215.332869 48.881338 L 215.442469 49.806538 L 215.538369 50.737038 L 215.620569 51.672638 L 215.689069 52.613638 L 215.743869 53.559738 L 215.784969 54.511238 L 215.812369 55.467838 L 215.826069 56.429738 L 215.827769 56.912638 L 215.826069 57.395538 L 215.812369 58.357638 L 215.784969 59.314738 L 215.743869 60.266738 L 215.689069 61.213738 L 215.620569 62.155638 L 215.538369 63.092538 L 215.442469 64.024438 L 215.332869 64.951238 L 215.209569 65.873038 L 215.072469 66.789738 L 214.921769 67.701438 L 214.757369 68.608138 L 214.579269 69.509838 L 214.387469 70.406438 L 214.181969 71.297938 L 213.962769 72.184538 L 213.729869 73.066038 L 213.483169 73.942438 L 213.222869 74.813838 L 212.948869 75.680238 L 212.661169 76.541638 L 212.359769 77.397938 L 212.044569 78.249138 L 211.715769 79.095438 L 211.373269 79.936638 L 211.017069 80.772738 L 210.647069 81.603938 L 210.263469 82.429938 L 209.866169 83.251038 L 209.455169 84.067038 L 209.030369 84.878038 L 208.812869 85.281638 L 208.592469 85.683238 L 208.144169 86.478538 L 207.685969 87.263138 L 207.217969 88.037038 L 206.739969 88.800238 L 206.252169 89.552738 L 205.754569 90.294638 L 205.246969 91.025838 L 204.729569 91.746338 L 204.202269 92.456138 L 203.665169 93.155338 L 203.118169 93.843738 L 202.561269 94.521538 L 201.994469 95.188638 L 201.417769 95.845138 L 200.831269 96.490838 L 200.234869 97.125938 L 199.628569 97.750338 L 199.012469 98.364038 L 198.386469 98.967138 L 197.750569 99.559438 L 197.104869 100.141138 L 196.449169 100.712138 L 195.783669 101.272538 L 195.108269 101.822138 L 194.423069 102.361138 L 193.727969 102.889438 L 193.022969 103.407038 L 192.308069 103.913938 L 191.583369 104.410238 L 190.848769 104.895738 L 190.104269 105.370638 L 189.728269 105.604138 L 189.350469 105.834438 L 188.591069 106.284138 L 187.826669 106.719338 L 187.057169 107.140038 L 186.282669 107.546238 L 185.503169 107.937938 L 184.718569 108.315138 L 183.928969 108.677738 L 183.134269 109.025938 L 182.334669 109.359638 L 181.529869 109.678738 L 180.720169 109.983338 L 179.905369 110.273538 L 179.085469 110.549138 L 178.260569 110.810238 L 177.430669 111.056938 L 176.595769 111.289038 L 175.755769 111.506638 L 174.910769 111.709738 L 174.060669 111.898338 L 173.205569 112.072338 L 172.345469 112.231938 L 171.480269 112.377038 L 170.610069 112.507538 L 169.734769 112.623638 L 168.854469 112.725138 L 167.969169 112.812238 L 167.078869 112.884738 L 166.183469 112.942738 L 165.282969 112.986338 L 164.377569 113.015338 L 163.467069 113.029838 L 163.009869 113.031638 L 162.565369 113.029738 L 161.678869 113.014838 L 160.795569 112.985038 L 159.915469 112.940338 L 159.038669 112.880638 L 158.164969 112.806138 L 157.294569 112.716638 L 156.427369 112.612338 L 155.563469 112.493038 L 154.702669 112.358838 L 153.845169 112.209738 L 152.990869 112.045738 L 152.139769 111.866838 L 151.291969 111.672938 L 150.447369 111.464238 L 149.605969 111.240638 L 148.767769 111.002038 L 147.932869 110.748538 L 147.101069 110.480238 L 146.272569 110.196938 L 145.447269 109.898738 L 144.625269 109.585638 L 143.806469 109.257538 L 142.990769 108.914638 L 142.178469 108.556838 L 141.369269 108.184038 L 140.563369 107.796438 L 139.760669 107.393838 L 138.961169 106.976338 L 138.164869 106.544038 L 137.371869 106.096738 L 136.581969 105.634538 L 136.188269 105.397838 L 136.188269 130.028138 L 110.191969 130.028138 L 110.191969 2.856838 L 136.188269 2.856838 L 136.188269 8.633738 L 136.569269 8.397138 L 137.334969 7.934838 L 138.105469 7.487638 L 138.880769 7.055238 L 139.660869 6.637738 L 140.445869 6.235138 L 141.235669 5.847538 L 142.030369 5.474738 L 142.829869 5.116938 L 143.634169 4.774038 L 144.443269 4.445938 L 145.257269 4.132838 L 146.076169 3.834638 L 146.899769 3.551438 L 147.728269 3.283038 L 148.561669 3.029538 L 149.399869 2.791038 L 150.242869 2.567338 L 151.090669 2.358638 L 151.943369 2.164738 L 152.800869 1.985838 L 153.663269 1.821838 L 154.530469 1.672738 L 155.402469 1.538538 L 156.279269 1.419338 L 157.160969 1.314938 L 158.047569 1.225438 L 158.938869 1.150938 L 159.835069 1.091238 L 160.736169 1.046538 L 161.641969 1.016738 L 162.552769 1.001838 L 163.009869 0.999938 Z M 48.322769 1.003338 L 49.700869 1.030738 L 51.064569 1.085538 L 52.413669 1.167738 L 53.748369 1.277438 L 55.068469 1.414438 L 56.374069 1.578838 L 57.665169 1.770638 L 58.941769 1.989838 L 60.203869 2.236438 L 61.451469 2.510438 L 62.684569 2.811938 L 63.903169 3.140738 L 65.107169 3.496938 L 66.296769 3.880538 L 67.471869 4.291638 L 68.053869 4.507338 L 68.053869 2.856838 L 94.050169 2.856838 L 94.050169 69.085538 L 94.044069 69.856938 L 93.994869 71.385738 L 93.896569 72.896038 L 93.749069 74.387838 L 93.552469 75.861138 L 93.306669 77.315838 L 93.011669 78.752038 L 92.667569 80.169638 L 92.274269 81.568738 L 91.831769 82.949338 L 91.340169 84.311338 L 90.799369 85.654838 L 90.209369 86.979838 L 89.570269 88.286238 L 88.882069 89.574138 L 88.144569 90.843538 L 87.757469 91.471238 L 87.359569 92.092438 L 86.535869 93.309338 L 85.675069 94.492438 L 84.777269 95.641738 L 83.842369 96.757138 L 82.870469 97.838738 L 81.861469 98.886438 L 80.815269 99.900338 L 79.732169 100.880338 L 78.611869 101.826538 L 77.454569 102.738838 L 76.260169 103.617238 L 75.028669 104.461938 L 73.760169 105.272638 L 72.454569 106.049638 L 71.111869 106.792638 L 70.426569 107.151538 L 69.734169 107.500638 L 68.334269 108.165538 L 66.914169 108.786038 L 65.473969 109.362338 L 64.013669 109.894238 L 62.533169 110.381838 L 61.032469 110.825038 L 59.511669 111.224038 L 57.970769 111.578638 L 56.409669 111.888938 L 54.828369 112.154838 L 53.226969 112.376538 L 51.605469 112.553838 L 49.963769 112.686838 L 48.301869 112.775438 L 46.619869 112.819738 L 45.771369 112.825338 L 45.037969 112.821138 L 43.580869 112.787238 L 42.136569 112.719538 L 40.705269 112.618038 L 39.286769 112.482638 L 37.881269 112.313338 L 36.488569 112.110238 L 35.108769 111.873338 L 33.741969 111.602538 L 32.387969 111.297838 L 31.046869 110.959338 L 29.718669 110.587038 L 28.403469 110.180838 L 27.101069 109.740838 L 25.811569 109.266938 L 24.534969 108.759138 L 23.901469 108.492638 L 23.272869 108.218138 L 22.034869 107.647538 L 20.822769 107.047938 L 19.636469 106.419338 L 18.475869 105.761638 L 17.341169 105.075038 L 16.232169 104.359338 L 15.148969 103.614638 L 14.091569 102.840938 L 13.059969 102.038238 L 12.054169 101.206538 L 11.074169 100.345838 L 10.119969 99.456038 L 9.191469 98.537238 L 8.288869 97.589438 L 7.411969 96.612738 L 6.983269 96.113438 L 26.996269 79.401538 L 27.365369 79.833838 L 28.151969 80.662438 L 29.003069 81.442538 L 29.918569 82.174338 L 30.898569 82.857738 L 31.943069 83.492838 L 33.052069 84.079538 L 34.225469 84.617938 L 34.836369 84.868938 L 35.459369 85.106338 L 36.729569 85.535038 L 38.031969 85.902638 L 39.366569 86.208838 L 40.733469 86.453838 L 42.132569 86.637638 L 43.563869 86.760138 L 45.027469 86.821338 L 45.771369 86.829038 L 46.348569 86.824538 L 47.484969 86.789138 L 48.597169 86.718238 L 49.685169 86.611838 L 50.749069 86.469938 L 51.788669 86.292638 L 52.804169 86.079938 L 53.795469 85.831638 L 54.762569 85.547938 L 55.705569 85.228838 L 56.624269 84.874238 L 57.518869 84.484138 L 58.389269 84.058638 L 59.235569 83.597638 L 60.057569 83.101138 L 60.855469 82.569238 L 61.245369 82.289938 L 61.626769 82.003638 L 62.356969 81.415338 L 63.043569 80.806038 L 63.686769 80.175838 L 64.286369 79.524638 L 64.842469 78.852438 L 65.355069 78.159338 L 65.824069 77.445338 L 66.249569 76.710238 L 66.631669 75.954338 L 66.970169 75.177338 L 67.265069 74.379538 L 67.516569 73.560638 L 67.724469 72.720838 L 67.888869 71.860138 L 68.009769 70.978438 L 68.053869 70.529738 L 67.459369 70.745538 L 66.261669 71.156538 L 65.052769 71.540238 L 63.832569 71.896438 L 62.601169 72.225238 L 61.358369 72.526638 L 60.104369 72.800638 L 58.839069 73.047338 L 57.562469 73.266538 L 56.274569 73.458338 L 54.975369 73.622738 L 53.664869 73.759738 L 52.343169 73.869338 L 51.010169 73.951538 L 49.665869 74.006338 L 48.310269 74.033738 L 47.628269 74.037138 L 46.805469 74.032538 L 45.175069 73.995438 L 43.564769 73.921338 L 41.974669 73.810138 L 40.404769 73.661838 L 38.854869 73.476438 L 37.325269 73.254038 L 35.815769 72.994538 L 34.326369 72.697938 L 32.857169 72.364238 L 31.408069 71.993538 L 29.979169 71.585738 L 28.570369 71.140838 L 27.181769 70.658938 L 25.813269 70.139838 L 24.464869 69.583738 L 23.798269 69.291838 L 23.138669 68.991738 L 21.845869 68.370338 L 20.588669 67.720738 L 19.366869 67.042938 L 18.180469 66.336938 L 17.029669 65.602738 L 15.914169 64.840338 L 14.834269 64.049738 L 13.789769 63.230838 L 12.780769 62.383838 L 11.807169 61.508638 L 10.869069 60.605138 L 9.966369 59.673438 L 9.099169 58.713638 L 8.267469 57.725538 L 7.471269 56.709238 L 7.086369 56.190538 L 6.711969 55.666338 L 5.998669 54.606538 L 5.332969 53.531438 L 4.714769 52.441038 L 4.144169 51.335238 L 3.621169 50.214238 L 3.145669 49.077838 L 2.717669 47.926138 L 2.337269 46.759138 L 2.004469 45.576838 L 1.719169 44.379238 L 1.481369 43.166238 L 1.291169 41.938038 L 1.148569 40.694438 L 1.053469 39.435638 L 1.005869 38.161438 L 0.999969 37.518538 L 1.005869 36.875738 L 1.053469 35.601538 L 1.148569 34.342638 L 1.291169 33.099138 L 1.481369 31.870838 L 1.719169 30.657938 L 2.004469 29.460338 L 2.337269 28.278038 L 2.717669 27.111038 L 3.145669 25.959338 L 3.621169 24.822938 L 4.144169 23.701838 L 4.714769 22.596138 L 5.332969 21.505738 L 5.998669 20.430538 L 6.711969 19.370738 L 7.086369 18.846638 L 7.471269 18.327938 L 8.267469 17.311638 L 9.099169 16.323538 L 9.966369 15.363638 L 10.869069 14.432038 L 11.807169 13.528538 L 12.780769 12.653338 L 13.789769 11.806238 L 14.834269 10.987438 L 15.914169 10.196838 L 17.029669 9.434338 L 18.180469 8.700138 L 19.366869 7.994138 L 20.588669 7.316338 L 21.845869 6.666838 L 23.138669 6.045438 L 23.798269 5.745338 L 24.464869 5.453338 L 25.813269 4.897238 L 27.181769 4.378238 L 28.570369 3.896238 L 29.979169 3.451438 L 31.408069 3.043638 L 32.857169 2.672838 L 34.326369 2.339238 L 35.815769 2.042638 L 37.325269 1.783138 L 38.854869 1.560638 L 40.404769 1.375338 L 41.974669 1.227038 L 43.564769 1.115838 L 45.175069 1.041638 L 46.805469 1.004538 L 47.628269 0.999938 Z M 272.690169 1.003338 L 274.068269 1.030738 L 275.431969 1.085538 L 276.781069 1.167738 L 278.115669 1.277438 L 279.435869 1.414438 L 280.741469 1.578838 L 282.032569 1.770638 L 283.309169 1.989838 L 284.571269 2.236438 L 285.818869 2.510438 L 287.051969 2.811938 L 288.270469 3.140738 L 289.474569 3.496938 L 290.664169 3.880538 L 291.839169 4.291638 L 292.421269 4.507338 L 292.421269 2.856838 L 318.417569 2.856838 L 318.417569 69.085538 L 318.411469 69.856938 L 318.362269 71.385738 L 318.263969 72.896038 L 318.116469 74.387838 L 317.919869 75.861138 L 317.673969 77.315838 L 317.379069 78.752038 L 317.034869 80.169638 L 316.641569 81.568738 L 316.199169 82.949338 L 315.707569 84.311338 L 315.166769 85.654838 L 314.576769 86.979838 L 313.937669 88.286238 L 313.249369 89.574138 L 312.511969 90.843538 L 312.124869 91.471238 L 311.726869 92.092438 L 310.903269 93.309338 L 310.042469 94.492438 L 309.144669 95.641738 L 308.209769 96.757138 L 307.237869 97.838738 L 306.228769 98.886438 L 305.182669 99.900338 L 304.099469 100.880338 L 302.979269 101.826538 L 301.821969 102.738838 L 300.627569 103.617238 L 299.396069 104.461938 L 298.127569 105.272638 L 296.821869 106.049638 L 295.479169 106.792638 L 294.793969 107.151538 L 294.101569 107.500638 L 292.701669 108.165538 L 291.281569 108.786038 L 289.841369 109.362338 L 288.381069 109.894238 L 286.900469 110.381838 L 285.399869 110.825038 L 283.879069 111.224038 L 282.338069 111.578638 L 280.776969 111.888938 L 279.195769 112.154838 L 277.594369 112.376538 L 275.972769 112.553838 L 274.331169 112.686838 L 272.669269 112.775438 L 270.987269 112.819738 L 270.138769 112.825338 L 269.405369 112.821138 L 267.948169 112.787238 L 266.503969 112.719538 L 265.072569 112.618038 L 263.654169 112.482638 L 262.248569 112.313338 L 260.855969 112.110238 L 259.476169 111.873338 L 258.109369 111.602538 L 256.755369 111.297838 L 255.414269 110.959338 L 254.086069 110.587038 L 252.770769 110.180838 L 251.468369 109.740838 L 250.178869 109.266938 L 248.902269 108.759138 L 248.268869 108.492638 L 247.640169 108.218138 L 246.402269 107.647538 L 245.190169 107.047938 L 244.003769 106.419338 L 242.843269 105.761638 L 241.708469 105.075038 L 240.599569 104.359338 L 239.516369 103.614638 L 238.458969 102.840938 L 237.427369 102.038238 L 236.421569 101.206538 L 235.441569 100.345838 L 234.487269 99.456038 L 233.558869 98.537238 L 232.656269 97.589438 L 231.779369 96.612738 L 231.350569 96.113438 L 251.363669 79.401538 L 251.732769 79.833838 L 252.519369 80.662438 L 253.370369 81.442538 L 254.285969 82.174338 L 255.265969 82.857738 L 256.310469 83.492838 L 257.419469 84.079538 L 258.592869 84.617938 L 259.203769 84.868938 L 259.826769 85.106338 L 261.096969 85.535038 L 262.399369 85.902638 L 263.733969 86.208838 L 265.100869 86.453838 L 266.499969 86.637638 L 267.931269 86.760138 L 269.394869 86.821338 L 270.138769 86.829038 L 270.715969 86.824538 L 271.852369 86.789138 L 272.964569 86.718238 L 274.052569 86.611838 L 275.116369 86.469938 L 276.156069 86.292638 L 277.171569 86.079938 L 278.162869 85.831638 L 279.129969 85.547938 L 280.072969 85.228838 L 280.991669 84.874238 L 281.886269 84.484138 L 282.756669 84.058638 L 283.602969 83.597638 L 284.424969 83.101138 L 285.222869 82.569238 L 285.612769 82.289938 L 285.994169 82.003638 L 286.724269 81.415338 L 287.410969 80.806038 L 288.054069 80.175838 L 288.653769 79.524638 L 289.209869 78.852438 L 289.722369 78.159338 L 290.191469 77.445338 L 290.616969 76.710238 L 290.998969 75.954338 L 291.337469 75.177338 L 291.632469 74.379538 L 291.883969 73.560638 L 292.091869 72.720838 L 292.256269 71.860138 L 292.377169 70.978438 L 292.421269 70.529738 L 291.826669 70.745538 L 290.629069 71.156538 L 289.420169 71.540238 L 288.199969 71.896438 L 286.968469 72.225238 L 285.725769 72.526638 L 284.471769 72.800638 L 283.206369 73.047338 L 281.929769 73.266538 L 280.641869 73.458338 L 279.342769 73.622738 L 278.032269 73.759738 L 276.710569 73.869338 L 275.377569 73.951538 L 274.033269 74.006338 L 272.677669 74.033738 L 271.995569 74.037138 L 271.172869 74.032538 L 269.542469 73.995438 L 267.932169 73.921338 L 266.342069 73.810138 L 264.772069 73.661838 L 263.222269 73.476438 L 261.692669 73.254038 L 260.183069 72.994538 L 258.693769 72.697938 L 257.224469 72.364238 L 255.775469 71.993538 L 254.346469 71.585738 L 252.937769 71.140838 L 251.549069 70.658938 L 250.180569 70.139838 L 248.832269 69.583738 L 248.165669 69.291838 L 247.505969 68.991738 L 246.213269 68.370338 L 244.956069 67.720738 L 243.734269 67.042938 L 242.547869 66.336938 L 241.396969 65.602738 L 240.281569 64.840338 L 239.201669 64.049738 L 238.157169 63.230838 L 237.148069 62.383838 L 236.174569 61.508638 L 235.236469 60.605138 L 234.333769 59.673438 L 233.466569 58.713638 L 232.634869 57.725538 L 231.838569 56.709238 L 231.453769 56.190538 L 231.079269 55.666338 L 230.366069 54.606538 L 229.700369 53.531438 L 229.082169 52.441038 L 228.511569 51.335238 L 227.988569 50.214238 L 227.513069 49.077838 L 227.085069 47.926138 L 226.704669 46.759138 L 226.371869 45.576838 L 226.086569 44.379238 L 225.848769 43.166238 L 225.658569 41.938038 L 225.515969 40.694438 L 225.420869 39.435638 L 225.373269 38.161438 L 225.367369 37.518538 L 225.373269 36.875738 L 225.420869 35.601538 L 225.515969 34.342638 L 225.658569 33.099138 L 225.848769 31.870838 L 226.086569 30.657938 L 226.371869 29.460338 L 226.704669 28.278038 L 227.085069 27.111038 L 227.513069 25.959338 L 227.988569 24.822938 L 228.511569 23.701838 L 229.082169 22.596138 L 229.700369 21.505738 L 230.366069 20.430538 L 231.079269 19.370738 L 231.453769 18.846638 L 231.838569 18.327938 L 232.634869 17.311638 L 233.466569 16.323538 L 234.333769 15.363638 L 235.236469 14.432038 L 236.174569 13.528538 L 237.148069 12.653338 L 238.157169 11.806238 L 239.201669 10.987438 L 240.281569 10.196838 L 241.396969 9.434338 L 242.547869 8.700138 L 243.734269 7.994138 L 244.956069 7.316338 L 246.213269 6.666838 L 247.505969 6.045438 L 248.165669 5.745338 L 248.832269 5.453338 L 250.180569 4.897238 L 251.549069 4.378238 L 252.937769 3.896238 L 254.346469 3.451438 L 255.775469 3.043638 L 257.224469 2.672838 L 258.693769 2.339238 L 260.183069 2.042638 L 261.692669 1.783138 L 263.222269 1.560638 L 264.772069 1.375338 L 266.342069 1.227038 L 267.932169 1.115838 L 269.542469 1.041638 L 271.172869 1.004538 L 271.995569 0.999938 Z M 162.291569 27.004638 L 160.877969 27.071538 L 159.494969 27.205338 L 158.142669 27.405938 L 156.820869 27.673538 L 155.529769 28.008038 L 154.269269 28.409338 L 153.039469 28.877638 L 151.840169 29.412738 L 150.671569 30.014838 L 149.533569 30.683738 L 148.426269 31.419538 L 147.349569 32.222238 L 146.303369 33.091838 L 145.287969 34.028338 L 144.303069 35.031738 L 143.822169 35.558538 L 143.352469 36.097838 L 142.457869 37.201138 L 141.622969 38.337538 L 140.847669 39.506938 L 140.131969 40.709338 L 139.475969 41.944838 L 138.879569 43.213438 L 138.342769 44.515038 L 137.865669 45.849638 L 137.448169 47.217338 L 137.090369 48.618038 L 136.792169 50.051838 L 136.553569 51.518638 L 136.374669 53.018438 L 136.255369 54.551338 L 136.195769 56.117238 L 136.188269 56.912638 L 136.195869 57.708138 L 136.256269 59.274838 L 136.377169 60.809338 L 136.558569 62.311638 L 136.800269 63.781638 L 137.102569 65.219438 L 137.465169 66.624938 L 137.888369 67.998338 L 138.371869 69.339338 L 138.915869 70.648238 L 139.520369 71.924838 L 140.185269 73.169238 L 140.910569 74.381338 L 141.696369 75.561238 L 142.542569 76.708838 L 143.449269 77.824238 L 143.925269 78.369938 L 144.412369 78.903038 L 145.407769 79.918538 L 146.431269 80.866338 L 147.482969 81.746338 L 148.562969 82.558738 L 149.671169 83.303438 L 150.807469 83.980438 L 151.972069 84.589738 L 153.164869 85.131338 L 154.385869 85.605238 L 155.635069 86.011438 L 156.912469 86.349838 L 158.218069 86.620638 L 159.551869 86.823738 L 160.913969 86.959138 L 162.304169 87.026838 L 163.009869 87.035338 L 163.715569 87.026838 L 165.105869 86.959138 L 166.467869 86.823738 L 167.801669 86.620638 L 169.107269 86.349838 L 170.384669 86.011438 L 171.633869 85.605238 L 172.854869 85.131338 L 174.047669 84.589738 L 175.212269 83.980438 L 176.348669 83.303438 L 177.456769 82.558738 L 178.536769 81.746338 L 179.588469 80.866338 L 180.612069 79.918538 L 181.607369 78.903038 L 182.094469 78.369938 L 182.570469 77.824238 L 183.477169 76.708838 L 184.323369 75.561238 L 185.109169 74.381338 L 185.834569 73.169238 L 186.499469 71.924838 L 187.103869 70.648238 L 187.647869 69.339338 L 188.131469 67.998338 L 188.554569 66.624938 L 188.917269 65.219438 L 189.219469 63.781638 L 189.461269 62.311638 L 189.642569 60.809338 L 189.763469 59.274838 L 189.823869 57.708138 L 189.831469 56.912638 L 189.823969 56.117238 L 189.764369 54.551338 L 189.645069 53.018438 L 189.466169 51.518638 L 189.227669 50.051838 L 188.929469 48.618038 L 188.571569 47.217338 L 188.154069 45.849638 L 187.676969 44.515038 L 187.140269 43.213438 L 186.543869 41.944838 L 185.887769 40.709338 L 185.172169 39.506938 L 184.396869 38.337538 L 183.561869 37.201138 L 182.667269 36.097838 L 182.197669 35.558538 L 181.716669 35.031738 L 180.731869 34.028338 L 179.716369 33.091838 L 178.670269 32.222238 L 177.593469 31.419538 L 176.486169 30.683738 L 175.348169 30.014838 L 174.179569 29.412738 L 172.980369 28.877638 L 171.750469 28.409338 L 170.489969 28.008038 L 169.198869 27.673538 L 167.877169 27.405938 L 166.524769 27.205338 L 165.141769 27.071538 L 163.728169 27.004638 L 163.009869 26.996238 Z M 47.101869 26.999438 L 46.062969 27.025238 L 45.042669 27.076838 L 44.040869 27.154238 L 43.057669 27.257338 L 42.092969 27.386338 L 41.146769 27.541038 L 40.219169 27.721638 L 39.310069 27.927938 L 38.419469 28.160038 L 37.547469 28.417938 L 36.693969 28.701638 L 35.859069 29.011138 L 35.042669 29.346338 L 34.244769 29.707438 L 33.465369 30.094238 L 33.082669 30.297338 L 32.708269 30.504338 L 31.994969 30.921738 L 31.329269 31.344038 L 30.711169 31.771238 L 30.140469 32.203238 L 29.617469 32.640038 L 29.141969 33.081638 L 28.713969 33.528138 L 28.333569 33.979538 L 28.000769 34.435638 L 27.715469 34.896638 L 27.477669 35.362438 L 27.287469 35.833138 L 27.144869 36.308638 L 27.049769 36.789038 L 27.002169 37.274138 L 26.996269 37.518538 L 27.002169 37.762938 L 27.049769 38.248138 L 27.144869 38.728438 L 27.287469 39.203938 L 27.477669 39.674638 L 27.715469 40.140438 L 28.000769 40.601438 L 28.333569 41.057638 L 28.713969 41.508938 L 29.141969 41.955438 L 29.617469 42.397138 L 30.140469 42.833938 L 30.711169 43.265938 L 31.329269 43.693038 L 31.994969 44.115338 L 32.708269 44.532838 L 33.082669 44.739738 L 33.465369 44.942838 L 34.244769 45.329738 L 35.042669 45.690738 L 35.859069 46.026038 L 36.693969 46.335538 L 37.547469 46.619238 L 38.419469 46.877138 L 39.310069 47.109238 L 40.219169 47.315538 L 41.146769 47.496038 L 42.092969 47.650838 L 43.057669 47.779738 L 44.040869 47.882938 L 45.042669 47.960238 L 46.062969 48.011838 L 47.101869 48.037638 L 47.628269 48.040838 L 48.154469 48.037638 L 49.192569 48.011838 L 50.211269 47.960238 L 51.210669 47.882938 L 52.190669 47.779738 L 53.151369 47.650838 L 54.092669 47.496038 L 55.014669 47.315538 L 55.917269 47.109238 L 56.800569 46.877138 L 57.664569 46.619238 L 58.509169 46.335538 L 59.334469 46.026038 L 60.140369 45.690738 L 60.926969 45.329738 L 61.694269 44.942838 L 62.070669 44.739738 L 62.438769 44.532838 L 63.139869 44.115338 L 63.794369 43.693038 L 64.401969 43.265938 L 64.962969 42.833938 L 65.477169 42.397138 L 65.944569 41.955438 L 66.365269 41.508938 L 66.739269 41.057638 L 67.066469 40.601438 L 67.346869 40.140438 L 67.580669 39.674638 L 67.767569 39.203938 L 67.907869 38.728438 L 68.001369 38.248138 L 68.048069 37.762938 L 68.053869 37.518538 L 68.048069 37.274138 L 68.001369 36.789038 L 67.907869 36.308638 L 67.767569 35.833138 L 67.580669 35.362438 L 67.346869 34.896638 L 67.066469 34.435638 L 66.739269 33.979538 L 66.365269 33.528138 L 65.944569 33.081638 L 65.477169 32.640038 L 64.962969 32.203238 L 64.401969 31.771238 L 63.794369 31.344038 L 63.139869 30.921738 L 62.438769 30.504338 L 62.070669 30.297338 L 61.694269 30.094238 L 60.926969 29.707438 L 60.140369 29.346338 L 59.334469 29.011138 L 58.509169 28.701638 L 57.664569 28.417938 L 56.800569 28.160038 L 55.917269 27.927938 L 55.014669 27.721638 L 54.092669 27.541038 L 53.151369 27.386338 L 52.190669 27.257338 L 51.210669 27.154238 L 50.211269 27.076838 L 49.192569 27.025238 L 48.154469 26.999438 L 47.628269 26.996238 Z M 271.469269 26.999438 L 270.430369 27.025238 L 269.410069 27.076838 L 268.408269 27.154238 L 267.425069 27.257338 L 266.460369 27.386338 L 265.514169 27.541038 L 264.586569 27.721638 L 263.677469 27.927938 L 262.786869 28.160038 L 261.914869 28.417938 L 261.061369 28.701638 L 260.226369 29.011138 L 259.409969 29.346338 L 258.612169 29.707438 L 257.832769 30.094238 L 257.450069 30.297338 L 257.075569 30.504338 L 256.362369 30.921738 L 255.696669 31.344038 L 255.078469 31.771238 L 254.507869 32.203238 L 253.984869 32.640038 L 253.509369 33.081638 L 253.081369 33.528138 L 252.700969 33.979538 L 252.368169 34.435638 L 252.082869 34.896638 L 251.845069 35.362438 L 251.654869 35.833138 L 251.512269 36.308638 L 251.417169 36.789038 L 251.369569 37.274138 L 251.363669 37.518538 L 251.369569 37.762938 L 251.417169 38.248138 L 251.512269 38.728438 L 251.654869 39.203938 L 251.845069 39.674638 L 252.082869 40.140438 L 252.368169 40.601438 L 252.700969 41.057638 L 253.081369 41.508938 L 253.509369 41.955438 L 253.984869 42.397138 L 254.507869 42.833938 L 255.078469 43.265938 L 255.696669 43.693038 L 256.362369 44.115338 L 257.075569 44.532838 L 257.450069 44.739738 L 257.832769 44.942838 L 258.612169 45.329738 L 259.409969 45.690738 L 260.226369 46.026038 L 261.061369 46.335538 L 261.914869 46.619238 L 262.786869 46.877138 L 263.677469 47.109238 L 264.586569 47.315538 L 265.514169 47.496038 L 266.460369 47.650838 L 267.425069 47.779738 L 268.408269 47.882938 L 269.410069 47.960238 L 270.430369 48.011838 L 271.469269 48.037638 L 271.995569 48.040838 L 272.521869 48.037638 L 273.559969 48.011838 L 274.578669 47.960238 L 275.577969 47.882938 L 276.558069 47.779738 L 277.518669 47.650838 L 278.460069 47.496038 L 279.382069 47.315538 L 280.284669 47.109238 L 281.167969 46.877138 L 282.031969 46.619238 L 282.876569 46.335538 L 283.701869 46.026038 L 284.507769 45.690738 L 285.294369 45.329738 L 286.061669 44.942838 L 286.437969 44.739738 L 286.806169 44.532838 L 287.507269 44.115338 L 288.161669 43.693038 L 288.769369 43.265938 L 289.330269 42.833938 L 289.844469 42.397138 L 290.311969 41.955438 L 290.732669 41.508938 L 291.106569 41.057638 L 291.433769 40.601438 L 291.714269 40.140438 L 291.947969 39.674638 L 292.134969 39.203938 L 292.275169 38.728438 L 292.368669 38.248138 L 292.415469 37.762938 L 292.421269 37.518538 L 292.415469 37.274138 L 292.368669 36.789038 L 292.275169 36.308638 L 292.134969 35.833138 L 291.947969 35.362438 L 291.714269 34.896638 L 291.433769 34.435638 L 291.106569 33.979538 L 290.732669 33.528138 L 290.311969 33.081638 L 289.844469 32.640038 L 289.330269 32.203238 L 288.769369 31.771238 L 288.161669 31.344038 L 287.507269 30.921738 L 286.806169 30.504338 L 286.437969 30.297338 L 286.061669 30.094238 L 285.294369 29.707438 L 284.507769 29.346338 L 283.701869 29.011138 L 282.876569 28.701638 L 282.031969 28.417938 L 281.167969 28.160038 L 280.284669 27.927938 L 279.382069 27.721638 L 278.460069 27.541038 L 277.518669 27.386338 L 276.558069 27.257338 L 275.577969 27.154238 L 274.578669 27.076838 L 273.559969 27.025238 L 272.521869 26.999438 L 271.995569 26.996238 Z" transform="scale(1.000000,1.000000) translate(85.668531,341.669362)" fill="#ffffff" opacity="1.000000"></path>
        <path d="M 169.628157 1.001919 L 170.653057 1.018019 L 171.672857 1.050219 L 172.687457 1.098519 L 173.696957 1.162919 L 174.701257 1.243419 L 175.700457 1.339919 L 176.694557 1.452619 L 177.683457 1.581319 L 178.667257 1.726219 L 179.645857 1.887119 L 180.619357 2.064219 L 181.587757 2.257319 L 182.550957 2.466519 L 183.508957 2.691919 L 184.461957 2.933319 L 185.409757 3.190819 L 186.352357 3.464419 L 187.289857 3.754119 L 188.222257 4.059919 L 189.149457 4.381819 L 190.071557 4.719819 L 190.988457 5.073819 L 191.900257 5.444019 L 192.806957 5.830319 L 193.708457 6.232719 L 194.604857 6.651119 L 195.496057 7.085719 L 196.382157 7.536319 L 197.263057 8.003019 L 198.138857 8.485919 L 199.009557 8.984819 L 199.442957 9.240319 L 199.874257 9.499319 L 200.728457 10.025919 L 201.571157 10.564219 L 202.402457 11.114119 L 203.222357 11.675619 L 204.030957 12.248819 L 204.828057 12.833519 L 205.613757 13.429919 L 206.388057 14.037919 L 207.151057 14.657619 L 207.902557 15.288819 L 208.642657 15.931719 L 209.371357 16.586219 L 210.088757 17.252319 L 210.794657 17.930119 L 211.489157 18.619519 L 212.172257 19.320519 L 212.843957 20.033119 L 213.504357 20.757419 L 214.153257 21.493219 L 214.790757 22.240719 L 215.416857 22.999919 L 216.031557 23.770619 L 216.634957 24.553019 L 217.226857 25.347019 L 217.807357 26.152619 L 218.376457 26.969819 L 218.934157 27.798719 L 219.480557 28.639219 L 220.015457 29.491319 L 220.538957 30.355119 L 221.051057 31.230419 L 221.302857 31.672519 L 221.551257 32.116719 L 222.036357 33.009519 L 222.505757 33.908119 L 222.959557 34.812519 L 223.397657 35.722719 L 223.820157 36.638819 L 224.226957 37.560619 L 224.618157 38.488319 L 224.993657 39.421819 L 225.353557 40.361119 L 225.697857 41.306219 L 226.026457 42.257119 L 226.339357 43.213819 L 226.636657 44.176419 L 226.918357 45.144719 L 227.184357 46.118919 L 227.434657 47.098919 L 227.669357 48.084619 L 227.888457 49.076219 L 228.091857 50.073719 L 228.279657 51.076919 L 228.451757 52.085919 L 228.608257 53.100819 L 228.749057 54.121419 L 228.874257 55.147919 L 228.983757 56.180219 L 229.077657 57.218319 L 229.155857 58.262219 L 229.218457 59.311919 L 229.265457 60.367419 L 229.296757 61.428819 L 229.312357 62.495919 L 229.314357 63.031719 L 229.312357 63.567519 L 229.296757 64.634819 L 229.265457 65.696619 L 229.218457 66.752819 L 229.155857 67.803419 L 229.077657 68.848519 L 228.983757 69.887919 L 228.874257 70.921719 L 228.749057 71.950019 L 228.608257 72.972719 L 228.451757 73.989819 L 228.279657 75.001319 L 228.091857 76.007219 L 227.888457 77.007519 L 227.669357 78.002219 L 227.434657 78.991319 L 227.184357 79.974919 L 226.918357 80.952919 L 226.636657 81.925219 L 226.339357 82.892019 L 226.026457 83.853219 L 225.697857 84.808819 L 225.353557 85.758919 L 224.993657 86.703319 L 224.618157 87.642119 L 224.226957 88.575419 L 223.820157 89.503119 L 223.397657 90.425119 L 222.959557 91.341619 L 222.505757 92.252519 L 222.036357 93.157819 L 221.551257 94.057619 L 221.302857 94.505319 L 221.051057 94.950919 L 220.538957 95.833219 L 220.015457 96.703719 L 219.480557 97.562319 L 218.934157 98.409019 L 218.376457 99.243919 L 217.807357 100.067019 L 217.226857 100.878219 L 216.634957 101.677519 L 216.031557 102.465019 L 215.416857 103.240719 L 214.790757 104.004519 L 214.153257 104.756519 L 213.504357 105.496619 L 212.843957 106.224919 L 212.172257 106.941319 L 211.489157 107.645919 L 210.794657 108.338619 L 210.088757 109.019519 L 209.371357 109.688619 L 208.642657 110.345819 L 207.902557 110.991119 L 207.151057 111.624619 L 206.388057 112.246319 L 205.613757 112.856119 L 204.828057 113.454019 L 204.030957 114.040119 L 203.222357 114.614419 L 202.402457 115.176819 L 201.571157 115.727419 L 200.728457 116.266119 L 199.874257 116.792919 L 199.442957 117.051919 L 199.009557 117.307419 L 198.138857 117.806419 L 197.263057 118.289219 L 196.382157 118.755919 L 195.496057 119.206619 L 194.604857 119.641119 L 193.708457 120.059619 L 192.806957 120.462019 L 191.900257 120.848219 L 190.988457 121.218419 L 190.071557 121.572519 L 189.149457 121.910519 L 188.222257 122.232419 L 187.289857 122.538119 L 186.352357 122.827819 L 185.409757 123.101519 L 184.461957 123.359019 L 183.508957 123.600419 L 182.550957 123.825719 L 181.587757 124.034919 L 180.619357 124.228119 L 179.645857 124.405119 L 178.667257 124.566119 L 177.683457 124.710919 L 176.694557 124.839719 L 175.700457 124.952319 L 174.701257 125.048919 L 173.696957 125.129419 L 172.687457 125.193719 L 171.672857 125.242019 L 170.653057 125.274219 L 169.628157 125.290319 L 169.113757 125.292319 L 168.592357 125.290319 L 167.553757 125.274219 L 166.521057 125.242019 L 165.494157 125.193719 L 164.473057 125.129419 L 163.457757 125.048919 L 162.448257 124.952319 L 161.444557 124.839719 L 160.446757 124.710919 L 159.454657 124.566119 L 158.468457 124.405119 L 157.488057 124.228119 L 156.513457 124.034919 L 155.544657 123.825719 L 154.581657 123.600419 L 153.624457 123.359019 L 152.673057 123.101519 L 151.727557 122.827819 L 150.787857 122.538119 L 149.853857 122.232419 L 148.925757 121.910519 L 148.003457 121.572519 L 147.086957 121.218419 L 146.176257 120.848219 L 145.271457 120.462019 L 144.372357 120.059619 L 143.479157 119.641119 L 142.591657 119.206619 L 141.710057 118.755919 L 140.834257 118.289219 L 139.964257 117.806419 L 139.100057 117.307419 L 138.670157 117.051919 L 138.242357 116.792919 L 137.395157 116.266119 L 136.559157 115.727419 L 135.734357 115.176819 L 134.920657 114.614419 L 134.118157 114.040119 L 133.326857 113.454019 L 132.546757 112.856119 L 131.777757 112.246319 L 131.019957 111.624619 L 130.273357 110.991119 L 129.537957 110.345819 L 128.813657 109.688619 L 128.100657 109.019519 L 127.398757 108.338619 L 126.707957 107.645919 L 126.028457 106.941319 L 125.360057 106.224919 L 124.702857 105.496619 L 124.056857 104.756519 L 123.422057 104.004519 L 122.798357 103.240719 L 122.185857 102.465019 L 121.584557 101.677519 L 120.994457 100.878219 L 120.415457 100.067019 L 119.847757 99.243919 L 119.291157 98.409019 L 118.745657 97.562319 L 118.211457 96.703719 L 117.688357 95.833219 L 117.176457 94.950919 L 116.924757 94.505319 L 116.676357 94.057619 L 116.191257 93.157819 L 115.721857 92.252519 L 115.268057 91.341619 L 114.829957 90.425119 L 114.407457 89.503119 L 114.000657 88.575419 L 113.609457 87.642119 L 113.233857 86.703319 L 112.873957 85.758919 L 112.529757 84.808819 L 112.201157 83.853219 L 111.888257 82.892019 L 111.590857 81.925219 L 111.309257 80.952919 L 111.043257 79.974919 L 110.792857 78.991319 L 110.558157 78.002219 L 110.339157 77.007519 L 110.135657 76.007219 L 109.947957 75.001319 L 109.775757 73.989819 L 109.619357 72.972719 L 109.478457 71.950019 L 109.353357 70.921719 L 109.243757 69.887919 L 109.149957 68.848519 L 109.071657 67.803419 L 109.009057 66.752819 L 108.962157 65.696619 L 108.930857 64.634819 L 108.915157 63.567519 L 108.913257 63.031719 L 108.915157 62.495919 L 108.930857 61.428819 L 108.962157 60.367419 L 109.009057 59.311919 L 109.071657 58.262219 L 109.149957 57.218319 L 109.243757 56.180219 L 109.353357 55.147919 L 109.478457 54.121419 L 109.619357 53.100819 L 109.775757 52.085919 L 109.947957 51.076919 L 110.135657 50.073719 L 110.339157 49.076219 L 110.558157 48.084619 L 110.792857 47.098919 L 111.043257 46.118919 L 111.309257 45.144719 L 111.590857 44.176419 L 111.888257 43.213819 L 112.201157 42.257119 L 112.529757 41.306219 L 112.873957 40.361119 L 113.233857 39.421819 L 113.609457 38.488319 L 114.000657 37.560619 L 114.407457 36.638819 L 114.829957 35.722719 L 115.268057 34.812519 L 115.721857 33.908119 L 116.191257 33.009519 L 116.676357 32.116719 L 116.924757 31.672519 L 117.176457 31.230419 L 117.688357 30.355119 L 118.211457 29.491319 L 118.745657 28.639219 L 119.291157 27.798719 L 119.847757 26.969819 L 120.415457 26.152619 L 120.994457 25.347019 L 121.584557 24.553019 L 122.185857 23.770619 L 122.798357 22.999919 L 123.422057 22.240719 L 124.056857 21.493219 L 124.702857 20.757419 L 125.360057 20.033119 L 126.028457 19.320519 L 126.707957 18.619519 L 127.398757 17.930119 L 128.100657 17.252319 L 128.813657 16.586219 L 129.537957 15.931719 L 130.273357 15.288819 L 131.019957 14.657619 L 131.777757 14.037919 L 132.546757 13.429919 L 133.326857 12.833519 L 134.118157 12.248819 L 134.920657 11.675619 L 135.734357 11.114119 L 136.559157 10.564219 L 137.395157 10.025919 L 138.242357 9.499319 L 138.670157 9.240319 L 139.100057 8.984819 L 139.964257 8.485919 L 140.834257 8.003019 L 141.710057 7.536319 L 142.591657 7.085719 L 143.479157 6.651119 L 144.372357 6.232719 L 145.271457 5.830319 L 146.176257 5.444019 L 147.086957 5.073819 L 148.003457 4.719819 L 148.925757 4.381819 L 149.853857 4.059919 L 150.787857 3.754119 L 151.727557 3.464419 L 152.673057 3.190819 L 153.624457 2.933319 L 154.581657 2.691919 L 155.544657 2.466519 L 156.513457 2.257319 L 157.488057 2.064219 L 158.468457 1.887119 L 159.454657 1.726219 L 160.446757 1.581319 L 161.444557 1.452619 L 162.448257 1.339919 L 163.457757 1.243419 L 164.473057 1.162919 L 165.494157 1.098519 L 166.521057 1.050219 L 167.553757 1.018019 L 168.592357 1.001919 L 169.113757 0.999919 Z M 271.304557 66.694119 L 271.312057 67.491019 L 271.371957 69.059319 L 271.491757 70.593619 L 271.671557 72.094019 L 271.911157 73.560419 L 272.210657 74.992819 L 272.570157 76.391219 L 272.989457 77.755719 L 273.468757 79.086219 L 274.007957 80.382719 L 274.606957 81.645219 L 275.265957 82.873719 L 275.984857 84.068319 L 276.763657 85.228919 L 277.602357 86.355519 L 278.500957 87.448119 L 278.972757 87.981719 L 279.455657 88.502819 L 280.443657 89.495319 L 281.461257 90.421619 L 282.508257 91.281819 L 283.584757 92.075719 L 284.690857 92.803619 L 285.826457 93.465219 L 286.991457 94.060719 L 288.186057 94.590119 L 289.410157 95.053219 L 290.663657 95.450219 L 291.946757 95.781119 L 293.259357 96.045719 L 294.601457 96.244219 L 295.973057 96.376619 L 297.374157 96.442719 L 298.085857 96.451019 L 298.470957 96.448619 L 299.234557 96.429419 L 299.989257 96.390919 L 300.734957 96.333219 L 301.471657 96.256319 L 302.199557 96.160219 L 302.918457 96.044919 L 303.628357 95.910319 L 304.329357 95.756519 L 305.021457 95.583519 L 305.704557 95.391319 L 306.378757 95.179819 L 307.043957 94.949119 L 307.700257 94.699219 L 308.347657 94.430119 L 308.986057 94.141719 L 309.615557 93.834119 L 310.236057 93.507319 L 310.847657 93.161319 L 311.450257 92.796019 L 312.043957 92.411619 L 312.628757 92.007819 L 313.204557 91.584919 L 313.771457 91.142819 L 314.329457 90.681419 L 314.878457 90.200819 L 315.418457 89.701019 L 315.949557 89.181919 L 316.471757 88.643719 L 316.984957 88.086219 L 317.489257 87.509419 L 317.984657 86.913519 L 318.228957 86.608319 L 340.661157 104.691419 L 340.171457 105.302219 L 339.172757 106.497619 L 338.148057 107.658219 L 337.097457 108.784019 L 336.020857 109.874819 L 334.918357 110.930819 L 333.789957 111.951919 L 332.635657 112.938119 L 331.455357 113.889519 L 330.249257 114.806019 L 329.017057 115.687619 L 327.759057 116.534319 L 326.475057 117.346219 L 325.165157 118.123219 L 323.829257 118.865419 L 322.467557 119.572619 L 321.776957 119.913219 L 321.081657 120.244119 L 319.682257 120.874519 L 318.271357 121.462819 L 316.848757 122.009219 L 315.414557 122.513419 L 313.968757 122.975719 L 312.511257 123.396019 L 311.042257 123.774219 L 309.561557 124.110419 L 308.069257 124.404519 L 306.565257 124.656719 L 305.049757 124.866819 L 303.522557 125.034919 L 301.983757 125.161019 L 300.433257 125.245019 L 298.871257 125.287119 L 298.085857 125.292319 L 297.186557 125.285419 L 295.400057 125.229919 L 293.629657 125.119119 L 291.875357 124.952819 L 290.137157 124.731019 L 288.415057 124.453819 L 286.709057 124.121219 L 285.019157 123.733219 L 283.345257 123.289719 L 281.687557 122.790719 L 280.045957 122.236419 L 278.420357 121.626619 L 276.810957 120.961319 L 275.217557 120.240719 L 273.640357 119.464519 L 272.079157 118.633019 L 271.304557 118.196419 L 271.304557 123.232219 L 242.463257 123.232219 L 242.463257 3.060019 L 271.304557 3.060019 Z M 29.841257 42.659619 L 37.852757 49.984419 L 77.910157 3.060019 L 115.678557 3.060019 L 58.911457 69.669819 L 116.823057 123.232219 L 74.247757 123.232219 L 29.841257 82.030319 L 29.841257 123.492019 L 0.999957 123.492019 L 0.999957 3.060019 L 29.841257 3.060019 Z M 168.692857 29.843619 L 167.857757 29.862119 L 167.031557 29.899219 L 166.214357 29.954919 L 165.406057 30.029119 L 164.606657 30.121919 L 163.816257 30.233219 L 163.034757 30.363119 L 162.262257 30.511519 L 161.498657 30.678519 L 160.743957 30.864019 L 159.998257 31.068119 L 159.261457 31.290719 L 158.533657 31.531919 L 157.814757 31.791719 L 157.104857 32.070019 L 156.403857 32.366819 L 155.711757 32.682219 L 155.028657 33.016219 L 154.354457 33.368719 L 153.689257 33.739819 L 153.032957 34.129419 L 152.385557 34.537619 L 151.747157 34.964319 L 151.117657 35.409619 L 150.497157 35.873419 L 149.885557 36.355819 L 149.282957 36.856819 L 148.689257 37.376219 L 148.104457 37.914319 L 147.528657 38.470919 L 146.961757 39.046019 L 146.681657 39.340619 L 146.404857 39.638619 L 145.864357 40.241519 L 145.341257 40.853519 L 144.835657 41.474719 L 144.347457 42.105119 L 143.876657 42.744619 L 143.423357 43.393319 L 142.987457 44.051219 L 142.568957 44.718219 L 142.167957 45.394419 L 141.784357 46.079719 L 141.418257 46.774319 L 141.069557 47.477919 L 140.738257 48.190819 L 140.424457 48.912819 L 140.127957 49.644019 L 139.849057 50.384319 L 139.587457 51.133819 L 139.343357 51.892519 L 139.116757 52.660419 L 138.907457 53.437419 L 138.715757 54.223519 L 138.541357 55.018919 L 138.384457 55.823419 L 138.244957 56.637019 L 138.122857 57.459919 L 138.018257 58.291919 L 137.931057 59.133019 L 137.861357 59.983419 L 137.809057 60.842919 L 137.774157 61.711519 L 137.756757 62.589319 L 137.754557 63.031719 L 137.758557 63.616619 L 137.790757 64.776219 L 137.855157 65.922519 L 137.951757 67.055419 L 138.080457 68.174919 L 138.241457 69.280919 L 138.434557 70.373619 L 138.659857 71.452819 L 138.917357 72.518619 L 139.207057 73.571019 L 139.528957 74.610019 L 139.883057 75.635619 L 140.269357 76.647719 L 140.687757 77.646519 L 141.138457 78.631819 L 141.621257 79.603719 L 141.874757 80.084719 L 142.135257 80.560719 L 142.674457 81.493319 L 143.237757 82.399919 L 143.825257 83.280719 L 144.436757 84.135519 L 145.072557 84.964319 L 145.732357 85.767319 L 146.416457 86.544319 L 147.124557 87.295319 L 147.856857 88.020519 L 148.613357 88.719719 L 149.393857 89.393019 L 150.198657 90.040419 L 151.027457 90.661819 L 151.880457 91.257319 L 152.757657 91.826819 L 153.205257 92.101919 L 153.657357 92.369519 L 154.570257 92.879119 L 155.494857 93.354819 L 156.430957 93.796519 L 157.378757 94.204219 L 158.338157 94.578019 L 159.309257 94.917819 L 160.291857 95.223619 L 161.286157 95.495419 L 162.292057 95.733219 L 163.309557 95.937119 L 164.338757 96.107019 L 165.379557 96.242919 L 166.431957 96.344819 L 167.495957 96.412819 L 168.571557 96.446719 L 169.113757 96.451019 L 169.655957 96.446719 L 170.731657 96.412819 L 171.795657 96.344819 L 172.848057 96.242919 L 173.888857 96.107019 L 174.917957 95.937119 L 175.935457 95.733219 L 176.941457 95.495419 L 177.935657 95.223619 L 178.918357 94.917819 L 179.889357 94.578019 L 180.848757 94.204219 L 181.796557 93.796519 L 182.732757 93.354819 L 183.657257 92.879119 L 184.570157 92.369519 L 185.022257 92.101919 L 185.469957 91.826819 L 186.347057 91.257319 L 187.200057 90.661819 L 188.028957 90.040419 L 188.833657 89.393019 L 189.614257 88.719719 L 190.370657 88.020519 L 191.102957 87.295319 L 191.811157 86.544319 L 192.495157 85.767319 L 193.155057 84.964319 L 193.790757 84.135519 L 194.402357 83.280719 L 194.989857 82.399919 L 195.553157 81.493319 L 196.092257 80.560719 L 196.352857 80.084719 L 196.606357 79.603719 L 197.089157 78.631819 L 197.539757 77.646519 L 197.958257 76.647719 L 198.344557 75.635619 L 198.698557 74.610019 L 199.020457 73.571019 L 199.310157 72.518619 L 199.567657 71.452819 L 199.793057 70.373619 L 199.986157 69.280919 L 200.147057 68.174919 L 200.275857 67.055419 L 200.372457 65.922519 L 200.436757 64.776219 L 200.468957 63.616619 L 200.473057 63.031719 L 200.470857 62.589319 L 200.453357 61.711519 L 200.418557 60.842919 L 200.366257 59.983419 L 200.296457 59.133019 L 200.209257 58.291919 L 200.104657 57.459919 L 199.982657 56.637019 L 199.843157 55.823419 L 199.686257 55.018919 L 199.511857 54.223519 L 199.320057 53.437419 L 199.110857 52.660419 L 198.884157 51.892519 L 198.640057 51.133819 L 198.378557 50.384319 L 198.099557 49.644019 L 197.803157 48.912819 L 197.489357 48.190819 L 197.158057 47.477919 L 196.809357 46.774319 L 196.443157 46.079719 L 196.059557 45.394419 L 195.658557 44.718219 L 195.240157 44.051219 L 194.804257 43.393319 L 194.350857 42.744619 L 193.880157 42.105119 L 193.391957 41.474719 L 192.886257 40.853519 L 192.363257 40.241519 L 191.822757 39.638619 L 191.545957 39.340619 L 191.265857 39.046019 L 190.698957 38.470919 L 190.123157 37.914319 L 189.538357 37.376219 L 188.944657 36.856819 L 188.342057 36.355819 L 187.730457 35.873419 L 187.109857 35.409619 L 186.480457 34.964319 L 185.841957 34.537619 L 185.194657 34.129419 L 184.538357 33.739819 L 183.873157 33.368719 L 183.198957 33.016219 L 182.515757 32.682219 L 181.823757 32.366819 L 181.122757 32.070019 L 180.412757 31.791719 L 179.693857 31.531919 L 178.966057 31.290719 L 178.229257 31.068119 L 177.483557 30.864019 L 176.728957 30.678519 L 175.965357 30.511519 L 175.192857 30.363119 L 174.411357 30.233219 L 173.620957 30.121919 L 172.821557 30.029119 L 172.013257 29.954919 L 171.196057 29.899219 L 170.369857 29.862119 L 169.534657 29.843619 L 169.113757 29.841319 Z" transform="scale(1.000000,1.000000) translate(82.017443,26.097781)" fill="#ffffff" opacity="1.000000"></path>
    </g>
</svg>