<?xml version="1.0" encoding="UTF-8" standalone="yes"?>
<!DOCTYPE svg PUBLIC "-//W3C//DTD SVG 1.1//EN" "http://www.w3.org/Graphics/SVG/1.1/DTD/svg11.dtd">

<svg width="500" height="500" viewBox="0 0 500 500" xmlns="http://www.w3.org/2000/svg" xmlns:xlink="http://www.w3.org/1999/xlink" version="1.1" baseProfile="full">
    <g transform="scale(1.000000,-1.000000) translate(0,-500)">
        <path d="M 88.722963 44.861481 C 88.722963 20.637454 69.085508 1.000000 44.861481 1.000000 C 20.637454 1.000000 1.000000 20.637454 1.000000 44.861481 C 1.000000 69.085508 20.637454 88.722963 44.861481 88.722963 C 69.085508 88.722963 88.722963 69.085508 88.722963 44.861481 Z" transform="scale(1.000000,1.000000) translate(205.232140,357.707361)" fill="#FF6F59" opacity="1.000000"></path>
        <path d="M 53.628084 27.314042 C 53.628084 12.781198 41.846886 1.000000 27.314042 1.000000 C 12.781198 1.000000 1.000000 12.781198 1.000000 27.314042 C 1.000000 41.846886 12.781198 53.628084 27.314042 53.628084 C 41.846886 53.628084 53.628084 41.846886 53.628084 27.314042 Z" transform="scale(1.000000,1.000000) translate(222.779580,70.430323)" fill="#FF6F59" opacity="1.000000"></path>
        <path d="M 79.956356 40.478178 C 79.956356 18.674982 62.281374 1.000000 40.478178 1.000000 C 18.674982 1.000000 1.000000 18.674982 1.000000 40.478178 C 1.000000 62.281374 18.674982 79.956356 40.478178 79.956356 C 62.281374 79.956356 79.956356 62.281374 79.956356 40.478178 Z" transform="scale(1.000000,1.000000) translate(101.840299,317.460683)" fill="#FF6F59" opacity="1.000000"></path>
        <path d="M 44.861481 22.930741 C 44.861481 10.818727 35.042754 1.000000 22.930741 1.000000 C 10.818727 1.000000 1.000000 10.818727 1.000000 22.930741 C 1.000000 35.042754 10.818727 44.861481 22.930741 44.861481 C 35.042754 44.861481 44.861481 35.042754 44.861481 22.930741 Z" transform="scale(1.000000,1.000000) translate(334.938025,119.472049)" fill="#FF6F59" opacity="1.000000"></path>
        <path d="M 71.161289 36.080645 C 71.161289 16.706140 55.455150 1.000000 36.080645 1.000000 C 16.706140 1.000000 1.000000 16.706140 1.000000 36.080645 C 1.000000 55.455150 16.706140 71.161289 36.080645 71.161289 C 55.455150 71.161289 71.161289 55.455150 71.161289 36.080645 Z" transform="scale(1.000000,1.000000) translate(61.593622,214.068842)" fill="#FF6F59" opacity="1.000000"></path>
        <path d="M 36.066414 18.533207 C 36.066414 8.849884 28.216530 1.000000 18.533207 1.000000 C 8.849884 1.000000 1.000000 8.849884 1.000000 18.533207 C 1.000000 28.216530 8.849884 36.066414 18.533207 36.066414 C 28.216530 36.066414 36.066414 28.216530 36.066414 18.533207 Z" transform="scale(1.000000,1.000000) translate(383.965536,231.630503)" fill="#FF6F59" opacity="1.000000"></path>
        <path d="M 9.997865 53.403938 C -1.999288 41.406784 -1.999288 21.995018 9.997865 9.997865 C 21.980788 -1.999288 41.421015 -1.999288 53.403938 9.997865 C 65.401092 21.995019 65.401092 41.406785 53.403938 53.403938 C 41.421019 65.415321 21.995025 65.529165 9.997865 53.403938 Z" transform="scale(1.000000,1.000000) translate(110.617574,110.673436)" fill="#FF6F59" opacity="1.000000"></path>
        <path d="M 27.299812 14.149906 C 27.299812 6.887413 21.412398 1.000000 14.149906 1.000000 C 6.887413 1.000000 1.000000 6.887413 1.000000 14.149906 C 1.000000 21.412398 6.887413 27.299812 14.149906 27.299812 C 21.412398 27.299812 27.299812 21.412398 27.299812 14.149906 Z" transform="scale(1.000000,1.000000) translate(343.704636,343.788955)" fill="#FF6F59" opacity="1.000000"></path>
    </g>
</svg>