<?xml version="1.0" encoding="UTF-8" standalone="yes"?>
<!DOCTYPE svg PUBLIC "-//W3C//DTD SVG 1.1//EN" "http://www.w3.org/Graphics/SVG/1.1/DTD/svg11.dtd">

<svg width="248" height="150" viewBox="0 0 248 150" xmlns="http://www.w3.org/2000/svg" xmlns:xlink="http://www.w3.org/1999/xlink" version="1.1" baseProfile="full">
    <g transform="scale(1.000000,-1.000000) translate(0,-150)">
        <path d="M 25.657789 25.479433 L 25.657789 1.802604 L 22.670317 1.802604 L 22.670317 5.860215 Q 18.612707 1.000000 13.395778 1.000000 Q 8.178850 1.000000 4.589425 4.723192 Q 1.000000 8.446385 1.000000 13.596429 Q 1.000000 18.746474 4.611720 22.425077 Q 8.223439 26.103680 13.262011 26.103680 Q 19.058598 26.103680 22.670317 21.154287 L 22.670317 25.479433 Z M 22.848674 13.529546 Q 22.848674 17.587157 20.128737 20.373977 Q 17.408800 23.160798 13.462662 23.160798 Q 9.516524 23.160798 6.796587 20.284799 Q 4.076650 17.408800 4.076650 13.484957 Q 4.076650 9.561113 6.841176 6.685114 Q 9.605702 3.809115 13.462662 3.809115 Q 17.319622 3.809115 20.084148 6.573641 Q 22.848674 9.338167 22.848674 13.529546 Z M 32.747461 1.802604 L 32.747461 34.620204 L 35.734933 34.620204 L 35.734933 21.421822 Q 39.614187 26.103680 45.232417 26.103680 Q 50.315578 26.103680 53.860414 22.425077 Q 57.405250 18.746474 57.405250 13.574135 Q 57.405250 8.401796 53.793530 4.700898 Q 50.181811 1.000000 45.143239 1.000000 Q 39.525009 1.000000 35.734933 6.172339 L 35.734933 1.802604 Z M 35.556576 13.797080 Q 35.556576 9.650291 38.276513 6.796587 Q 40.996450 3.942883 44.920293 3.942883 Q 48.844137 3.942883 51.586368 6.841176 Q 54.328600 9.739470 54.328600 13.641018 Q 54.328600 17.542567 51.653252 20.440861 Q 48.977904 23.339154 44.964883 23.339154 Q 40.951861 23.339154 38.254218 20.619217 Q 35.556576 17.899280 35.556576 13.797080 Z M 86.521952 25.479433 L 86.521952 1.802604 L 83.534480 1.802604 L 83.534480 5.860215 Q 79.476870 1.000000 74.259941 1.000000 Q 69.043013 1.000000 65.453588 4.723192 Q 61.864163 8.446385 61.864163 13.596429 Q 61.864163 18.746474 65.475883 22.425077 Q 69.087602 26.103680 74.126174 26.103680 Q 79.922761 26.103680 83.534480 21.154287 L 83.534480 25.479433 Z M 83.712837 13.529546 Q 83.712837 17.587157 80.992900 20.373977 Q 78.272963 23.160798 74.326825 23.160798 Q 70.380687 23.160798 67.660750 20.284799 Q 64.940813 17.408800 64.940813 13.484957 Q 64.940813 9.561113 67.705339 6.685114 Q 70.469865 3.809115 74.326825 3.809115 Q 78.183785 3.809115 80.948311 6.573641 Q 83.712837 9.338167 83.712837 13.529546 Z M 128.168200 34.620204 L 128.168200 1.802604 L 125.180728 1.802604 L 125.180728 5.860215 Q 121.123117 1.000000 115.883894 1.000000 Q 110.644672 1.000000 107.077541 4.700898 Q 103.510411 8.401796 103.510411 13.574135 Q 103.510411 18.746474 107.122130 22.425077 Q 110.733850 26.103680 115.772422 26.103680 Q 121.569009 26.103680 125.180728 21.154287 L 125.180728 34.620204 Z M 125.359085 13.484957 Q 125.359085 17.542567 122.683737 20.351683 Q 120.008389 23.160798 115.995367 23.160798 Q 111.982346 23.160798 109.284703 20.284799 Q 106.587061 17.408800 106.587061 13.507251 Q 106.587061 9.605702 109.351587 6.707409 Q 112.116113 3.809115 115.883894 3.809115 Q 119.651676 3.809115 122.505380 6.551347 Q 125.359085 9.293578 125.359085 13.484957 Z M 158.667165 25.479433 L 158.667165 1.802604 L 155.679693 1.802604 L 155.679693 5.860215 Q 151.622082 1.000000 146.405154 1.000000 Q 141.188226 1.000000 137.598801 4.723192 Q 134.009376 8.446385 134.009376 13.596429 Q 134.009376 18.746474 137.621096 22.425077 Q 141.232815 26.103680 146.271387 26.103680 Q 152.067974 26.103680 155.679693 21.154287 L 155.679693 25.479433 Z M 155.858050 13.529546 Q 155.858050 17.587157 153.138113 20.373977 Q 150.418176 23.160798 146.472038 23.160798 Q 142.525900 23.160798 139.805963 20.284799 Q 137.086026 17.408800 137.086026 13.484957 Q 137.086026 9.561113 139.850552 6.685114 Q 142.615078 3.809115 146.472038 3.809115 Q 150.328998 3.809115 153.093524 6.573641 Q 155.858050 9.338167 155.858050 13.529546 Z M 165.088000 34.620204 L 168.164650 34.620204 L 168.164650 15.937359 L 179.088987 25.479433 L 183.592489 25.479433 L 170.572463 14.198383 L 184.350504 1.802604 L 180.025359 1.802604 L 168.164650 12.459407 L 168.164650 1.802604 L 165.088000 1.802604 Z M 186.802906 13.484957 Q 186.802906 18.701885 190.392331 22.402783 Q 193.981756 26.103680 199.131801 26.103680 Q 204.281846 26.103680 207.871270 22.402783 Q 211.460695 18.701885 211.460695 13.529546 Q 211.460695 8.357207 207.915860 4.678603 Q 204.371024 1.000000 199.154096 1.000000 Q 193.937167 1.000000 190.370037 4.678603 Q 186.802906 8.357207 186.802906 13.484957 Z M 208.384045 13.440367 Q 208.384045 17.364211 205.641814 20.240210 Q 202.899582 23.116209 199.131801 23.116209 Q 195.364019 23.116209 192.644082 20.240210 Q 189.924146 17.364211 189.924146 13.395778 Q 189.924146 9.427346 192.554904 6.662820 Q 195.185663 3.898293 199.087212 3.898293 Q 202.988761 3.898293 205.686403 6.685114 Q 208.384045 9.471935 208.384045 13.440367 Z M 215.964198 25.479433 L 219.085437 25.479433 L 219.085437 22.046070 Q 220.333932 24.141759 221.515544 25.122720 Q 222.697156 26.103680 224.146303 26.103680 Q 225.595450 26.103680 227.066891 25.301076 L 225.461682 22.714907 Q 224.792845 23.116209 224.079419 23.116209 Q 222.697156 23.116209 221.470955 21.689357 Q 220.244754 20.262504 219.665095 18.010753 Q 219.085437 15.759002 219.085437 9.828648 L 219.085437 1.802604 L 215.964198 1.802604 Z" transform="scale(1.000000,1.000000) translate(10.662370,47.997301)" fill="#ffffff" opacity="1.000000"></path>
        <path d="M 37.254135 1.000000 L 136.861557 37.254135 C 136.861557 37.254135 136.861557 37.254135 136.861557 37.254135 L 100.607422 136.861557 C 100.607422 136.861557 100.607422 136.861557 100.607422 136.861557 L 1.000000 100.607422 C 1.000000 100.607422 1.000000 100.607422 1.000000 100.607422 L 37.254135 1.000000 C 37.254135 1.000000 37.254135 1.000000 37.254135 1.000000 Z" transform="scale(1.000000,1.000000) translate(47.437180,8.745773)" fill="#b6000b" opacity="1.000000"></path>
        <path d="M 105.193767 1.004223 L 105.833567 1.038323 L 106.463667 1.106623 L 107.084267 1.209023 L 107.695267 1.345623 L 108.296767 1.516323 L 108.888567 1.721123 L 109.470867 1.960123 L 110.043567 2.233223 L 110.606667 2.540423 L 111.160167 2.881823 L 111.704167 3.257323 L 112.238567 3.667023 L 112.763367 4.110823 L 113.278567 4.588723 L 113.784167 5.100823 L 114.033367 5.369723 L 114.033367 1.802523 L 117.645067 1.802523 L 117.645067 35.244423 L 114.033367 35.244423 L 114.033367 22.402723 L 113.805967 22.668823 L 113.341067 23.175723 L 112.862867 23.648723 L 112.371167 24.088023 L 111.865967 24.493523 L 111.347467 24.865223 L 110.815567 25.203123 L 110.270167 25.507223 L 109.711467 25.777523 L 109.139267 26.014023 L 108.553667 26.216823 L 107.954667 26.385723 L 107.342267 26.520923 L 106.716467 26.622323 L 106.077267 26.689823 L 105.424667 26.723623 L 105.093267 26.727923 L 104.761867 26.724223 L 104.108467 26.694723 L 103.467867 26.635923 L 102.839967 26.547623 L 102.224767 26.429823 L 101.622267 26.282623 L 101.032567 26.106023 L 100.455467 25.900023 L 99.891167 25.664523 L 99.339567 25.399623 L 98.800667 25.105223 L 98.274467 24.781423 L 97.760967 24.428223 L 97.260267 24.045523 L 96.772167 23.633423 L 96.296867 23.191923 L 96.063967 22.960123 L 95.836267 22.723123 L 95.402567 22.240123 L 94.997767 21.745123 L 94.621967 21.238123 L 94.274967 20.719023 L 93.956967 20.187923 L 93.667767 19.644923 L 93.407567 19.089823 L 93.176267 18.522723 L 92.973867 17.943523 L 92.800367 17.352423 L 92.655867 16.749223 L 92.540167 16.134023 L 92.453467 15.506823 L 92.395567 14.867623 L 92.366667 14.216323 L 92.363067 13.886223 L 92.366667 13.556023 L 92.395167 12.904623 L 92.452367 12.265023 L 92.538067 11.637323 L 92.652267 11.021423 L 92.795167 10.417423 L 92.966467 9.825223 L 93.166467 9.244823 L 93.394967 8.676323 L 93.652067 8.119623 L 93.937767 7.574823 L 94.251967 7.041823 L 94.594667 6.520723 L 94.966067 6.011423 L 95.365967 5.514023 L 95.794467 5.028423 L 96.019367 4.790023 L 96.249367 4.556823 L 96.718467 4.112723 L 97.199567 3.698123 L 97.692667 3.313223 L 98.197767 2.957923 L 98.714867 2.632223 L 99.244067 2.336123 L 99.785167 2.069623 L 100.338367 1.832723 L 100.903567 1.625423 L 101.480767 1.447823 L 102.070067 1.299723 L 102.671267 1.181323 L 103.284567 1.092523 L 103.909867 1.033223 L 104.547167 1.003623 L 104.870367 0.999923 Z M 74.715767 1.004223 L 75.352867 1.038323 L 75.980667 1.106623 L 76.598967 1.209023 L 77.207867 1.345623 L 77.807367 1.516323 L 78.397467 1.721123 L 78.978167 1.960123 L 79.549467 2.233223 L 80.111367 2.540423 L 80.663867 2.881823 L 81.206967 3.257323 L 81.740667 3.667023 L 82.264867 4.110823 L 82.779767 4.588723 L 83.285267 5.100823 L 83.534467 5.369723 L 83.534467 1.802523 L 87.146167 1.802523 L 87.146167 26.103623 L 83.534467 26.103623 L 83.534467 22.402723 L 83.307067 22.668823 L 82.842167 23.175723 L 82.363867 23.648723 L 81.872167 24.088023 L 81.367067 24.493523 L 80.848567 24.865223 L 80.316567 25.203123 L 79.771267 25.507223 L 79.212467 25.777523 L 78.640267 26.014023 L 78.054767 26.216823 L 77.455767 26.385723 L 76.843367 26.520923 L 76.217567 26.622323 L 75.578267 26.689823 L 74.925667 26.723623 L 74.594267 26.727923 L 74.262867 26.724223 L 73.609567 26.694723 L 72.968967 26.635923 L 72.340967 26.547623 L 71.725867 26.429823 L 71.123367 26.282623 L 70.533567 26.106023 L 69.956567 25.900023 L 69.392167 25.664523 L 68.840567 25.399623 L 68.301667 25.105223 L 67.775467 24.781423 L 67.262067 24.428223 L 66.761267 24.045523 L 66.273267 23.633423 L 65.797867 23.191923 L 65.564967 22.960123 L 65.337367 22.723123 L 64.903667 22.240323 L 64.498867 21.745623 L 64.122967 21.239123 L 63.775967 20.720823 L 63.457967 20.190623 L 63.168867 19.648523 L 62.908567 19.094723 L 62.677267 18.528923 L 62.474867 17.951423 L 62.301467 17.362023 L 62.156867 16.760723 L 62.041167 16.147623 L 61.954467 15.522723 L 61.896667 14.885923 L 61.867767 14.237223 L 61.864067 13.908523 L 61.867667 13.579723 L 61.896467 12.930723 L 61.953967 12.293223 L 62.040167 11.667223 L 62.155067 11.052723 L 62.298767 10.449723 L 62.471267 9.858223 L 62.672367 9.278223 L 62.902267 8.709723 L 63.160967 8.152723 L 63.448367 7.607223 L 63.764467 7.073123 L 64.109367 6.550623 L 64.482967 6.039623 L 64.885267 5.540123 L 65.316367 5.052023 L 65.542667 4.812323 L 65.774067 4.577723 L 66.245567 4.131023 L 66.728767 3.714023 L 67.223567 3.326823 L 67.730067 2.969423 L 68.248267 2.641823 L 68.778067 2.343923 L 69.319667 2.075923 L 69.872767 1.837623 L 70.437667 1.629123 L 71.014167 1.450423 L 71.602367 1.301523 L 72.202267 1.182423 L 72.813767 1.093023 L 73.436967 1.033423 L 74.071867 1.003723 L 74.393667 0.999923 Z M 135.713667 1.004223 L 136.350867 1.038323 L 136.978567 1.106623 L 137.596867 1.209023 L 138.205767 1.345623 L 138.805267 1.516323 L 139.395467 1.721123 L 139.976167 1.960123 L 140.547467 2.233223 L 141.109367 2.540423 L 141.661767 2.881823 L 142.204867 3.257323 L 142.738567 3.667023 L 143.262867 4.110823 L 143.777667 4.588723 L 144.283167 5.100823 L 144.532367 5.369723 L 144.532367 1.802523 L 148.144067 1.802523 L 148.144067 26.103623 L 144.532367 26.103623 L 144.532367 22.402723 L 144.304967 22.668823 L 143.840067 23.175723 L 143.361767 23.648723 L 142.870067 24.088023 L 142.364967 24.493523 L 141.846467 24.865223 L 141.314567 25.203123 L 140.769167 25.507223 L 140.210367 25.777523 L 139.638267 26.014023 L 139.052667 26.216823 L 138.453667 26.385723 L 137.841267 26.520923 L 137.215467 26.622323 L 136.576267 26.689823 L 135.923567 26.723623 L 135.592267 26.727923 L 135.260767 26.724223 L 134.607467 26.694723 L 133.966867 26.635923 L 133.338967 26.547623 L 132.723767 26.429823 L 132.121267 26.282623 L 131.531467 26.106023 L 130.954467 25.900023 L 130.390167 25.664523 L 129.838567 25.399623 L 129.299667 25.105223 L 128.773467 24.781423 L 128.259967 24.428223 L 127.759167 24.045523 L 127.271167 23.633423 L 126.795867 23.191923 L 126.562967 22.960123 L 126.335267 22.723123 L 125.901567 22.240323 L 125.496767 21.745623 L 125.120867 21.239123 L 124.773967 20.720823 L 124.455867 20.190623 L 124.166767 19.648523 L 123.906567 19.094723 L 123.675267 18.528923 L 123.472867 17.951423 L 123.299367 17.362023 L 123.154767 16.760723 L 123.039167 16.147623 L 122.952367 15.522723 L 122.894567 14.885923 L 122.865667 14.237223 L 122.862067 13.908523 L 122.865667 13.579723 L 122.894367 12.930723 L 122.951867 12.293223 L 123.038067 11.667223 L 123.153067 11.052723 L 123.296767 10.449723 L 123.469167 9.858223 L 123.670367 9.278223 L 123.900267 8.709723 L 124.158867 8.152723 L 124.446267 7.607223 L 124.762367 7.073123 L 125.107267 6.550623 L 125.480867 6.039623 L 125.883267 5.540123 L 126.314367 5.052023 L 126.540667 4.812323 L 126.772067 4.577723 L 127.243467 4.131023 L 127.726667 3.714023 L 128.221467 3.326823 L 128.728067 2.969423 L 129.246167 2.641823 L 129.776067 2.343923 L 130.317567 2.075923 L 130.870767 1.837623 L 131.435567 1.629123 L 132.012067 1.450423 L 132.600267 1.301523 L 133.200167 1.182423 L 133.811667 1.093023 L 134.434867 1.033423 L 135.069767 1.003723 L 135.391567 0.999923 Z M 74.197167 4.444223 L 73.294267 4.531323 L 72.424767 4.705423 L 71.588767 4.966723 L 70.786167 5.315123 L 70.016967 5.750523 L 69.281267 6.273023 L 68.578967 6.882623 L 68.240367 7.220123 L 67.916367 7.572423 L 67.331167 8.300423 L 66.829567 9.059823 L 66.411467 9.850623 L 66.077067 10.672723 L 65.826267 11.526223 L 65.659067 12.411023 L 65.575467 13.327223 L 65.564967 13.797023 L 65.575267 14.266823 L 65.657467 15.183023 L 65.821967 16.067823 L 66.068567 16.921323 L 66.397367 17.743423 L 66.808467 18.534223 L 67.301767 19.293623 L 67.877167 20.021623 L 68.195767 20.373923 L 68.529267 20.711423 L 69.223867 21.321023 L 69.955367 21.843523 L 70.723867 22.279023 L 71.529267 22.627323 L 72.371567 22.888623 L 73.250767 23.062823 L 74.166967 23.149823 L 74.638867 23.160723 L 75.110867 23.150223 L 76.026967 23.065923 L 76.906267 22.897323 L 77.748567 22.644423 L 78.553967 22.307223 L 79.322367 21.885723 L 80.053967 21.379923 L 80.748567 20.789823 L 81.082067 20.463123 L 81.400567 20.120823 L 81.976067 19.406023 L 82.469367 18.650823 L 82.880367 17.855123 L 83.209267 17.019123 L 83.455867 16.142623 L 83.620267 15.225823 L 83.702467 14.268523 L 83.712767 13.774723 L 83.702367 13.281023 L 83.618767 12.324423 L 83.451567 11.409023 L 83.200667 10.534623 L 82.866267 9.701323 L 82.448267 8.909223 L 81.946667 8.158123 L 81.361367 7.448223 L 81.037467 7.108623 L 80.698967 6.784723 L 79.998167 6.199423 L 79.265167 5.697823 L 78.500167 5.279823 L 77.703167 4.945423 L 76.874067 4.694623 L 76.012967 4.527323 L 75.119767 4.443723 L 74.661167 4.433323 Z M 104.696167 4.444323 L 103.793267 4.532023 L 102.923767 4.707623 L 102.087667 4.971023 L 101.285067 5.322123 L 100.515967 5.761023 L 99.780167 6.287723 L 99.077967 6.902223 L 98.739367 7.242423 L 98.415367 7.597323 L 97.830167 8.329523 L 97.328467 9.091723 L 96.910467 9.883923 L 96.576067 10.706023 L 96.325267 11.558123 L 96.158067 12.440123 L 96.074467 13.352123 L 96.063967 13.819323 L 96.074167 14.286423 L 96.155667 15.197723 L 96.318667 16.078423 L 96.563267 16.928323 L 96.889267 17.747723 L 97.296867 18.536323 L 97.785967 19.294423 L 98.356567 20.021723 L 98.672467 20.373923 L 99.003567 20.711423 L 99.696067 21.321023 L 100.428967 21.843523 L 101.202367 22.279023 L 102.016067 22.627323 L 102.870267 22.888623 L 103.764867 23.062823 L 104.699767 23.149823 L 105.182467 23.160723 L 105.664967 23.150223 L 106.598467 23.065923 L 107.490267 22.897323 L 108.340267 22.644423 L 109.148467 22.307223 L 109.914867 21.885723 L 110.639367 21.379923 L 111.322167 20.789823 L 111.647867 20.463123 L 111.958367 20.120723 L 112.519167 19.404423 L 112.999967 18.646423 L 113.400567 17.846623 L 113.720967 17.005023 L 113.961367 16.121623 L 114.121567 15.196323 L 114.201767 14.229323 L 114.211767 13.730123 L 114.200967 13.231223 L 114.114567 12.266323 L 113.941767 11.345223 L 113.682567 10.468123 L 113.337067 9.634823 L 112.905067 8.845423 L 112.386767 8.100023 L 111.781967 7.398423 L 111.447267 7.064023 L 111.098667 6.745523 L 110.383867 6.170023 L 109.645367 5.676723 L 108.883167 5.265723 L 108.097267 4.936823 L 107.287767 4.690223 L 106.454467 4.525823 L 105.597467 4.443623 L 105.160167 4.433323 Z M 135.195167 4.444223 L 134.292167 4.531323 L 133.422667 4.705423 L 132.586667 4.966723 L 131.784067 5.315123 L 131.014867 5.750523 L 130.279167 6.273023 L 129.576867 6.882623 L 129.238267 7.220123 L 128.914367 7.572423 L 128.329067 8.300423 L 127.827467 9.059823 L 127.409467 9.850623 L 127.075067 10.672723 L 126.824167 11.526223 L 126.656967 12.411023 L 126.573367 13.327223 L 126.562967 13.797023 L 126.573267 14.266823 L 126.655467 15.183023 L 126.819867 16.067823 L 127.066467 16.921323 L 127.395367 17.743423 L 127.806367 18.534223 L 128.299667 19.293623 L 128.875167 20.021623 L 129.193667 20.373923 L 129.527167 20.711423 L 130.221767 21.321023 L 130.953267 21.843523 L 131.721767 22.279023 L 132.527167 22.627323 L 133.369467 22.888623 L 134.248767 23.062823 L 135.164867 23.149823 L 135.636867 23.160723 L 136.108767 23.150223 L 137.024967 23.065923 L 137.904167 22.897323 L 138.746467 22.644423 L 139.551867 22.307223 L 140.320367 21.885723 L 141.051867 21.379923 L 141.746467 20.789823 L 142.079967 20.463123 L 142.398567 20.120823 L 142.973967 19.406023 L 143.467267 18.650823 L 143.878367 17.855123 L 144.207167 17.019123 L 144.453767 16.142623 L 144.618267 15.225823 L 144.700467 14.268523 L 144.710767 13.774723 L 144.700267 13.281023 L 144.616667 12.324423 L 144.449467 11.409023 L 144.198667 10.534623 L 143.864267 9.701323 L 143.446167 8.909223 L 142.944567 8.158123 L 142.359367 7.448223 L 142.035367 7.108623 L 141.696967 6.784723 L 140.996067 6.199423 L 140.263167 5.697823 L 139.498167 5.279823 L 138.701067 4.945423 L 137.872067 4.694623 L 137.010867 4.527323 L 136.117767 4.443723 L 135.659167 4.433323 Z" transform="scale(1.000000,1.000000) translate(15.545633,47.685177)" fill="#ffffff" opacity="1.000000"></path>
        <path d="M 106.769600 2.122000 L 107.440400 2.158600 L 108.101700 2.231200 L 108.753800 2.339700 L 109.396000 2.484200 L 110.028200 2.664500 L 110.649900 2.880600 L 111.261000 3.132400 L 111.861300 3.419600 L 112.450500 3.742000 L 113.028500 4.099400 L 113.595400 4.491500 L 114.151000 4.918300 L 114.695300 5.379400 L 115.010800 5.672500 L 115.010800 3.487700 L 115.055400 3.266500 L 115.177200 3.085900 L 115.357800 2.964100 L 115.579000 2.919500 L 119.190700 2.919500 L 119.411800 2.964100 L 119.592400 3.085900 L 119.714200 3.266500 L 119.758800 3.487700 L 119.758800 36.929600 L 119.714200 37.150700 L 119.592400 37.331300 L 119.411800 37.453100 L 119.190700 37.497700 L 115.579000 37.497700 L 115.357800 37.453100 L 115.177200 37.331300 L 115.055400 37.150700 L 115.010800 36.929600 L 115.010800 25.536700 L 114.787000 25.757600 L 114.272400 26.216200 L 113.742600 26.640400 L 113.197700 27.029900 L 112.637800 27.384500 L 112.063200 27.703800 L 111.474100 27.987700 L 110.870800 28.236000 L 110.253400 28.448800 L 109.622700 28.625700 L 108.978700 28.766900 L 108.321700 28.872500 L 107.652200 28.942400 L 106.977600 28.976900 L 106.632500 28.981200 L 106.281800 28.976900 L 105.602100 28.945600 L 104.934300 28.883700 L 104.278700 28.790800 L 103.635500 28.666900 L 103.004800 28.512000 L 102.387100 28.326300 L 101.782200 28.109500 L 101.190800 27.861800 L 100.612800 27.583400 L 100.048500 27.274200 L 99.498100 26.934700 L 98.961500 26.564800 L 98.439300 26.164800 L 97.931100 25.734800 L 97.441600 25.279800 L 97.199800 25.038900 L 96.959100 24.787900 L 96.508300 24.284900 L 96.086900 23.768600 L 95.695200 23.239000 L 95.333100 22.696000 L 95.001100 22.140100 L 94.698900 21.571200 L 94.427100 20.989500 L 94.185500 20.395300 L 93.974300 19.788700 L 93.793400 19.169900 L 93.643100 18.539400 L 93.522900 17.897000 L 93.433200 17.243200 L 93.373500 16.577900 L 93.344100 15.907600 L 93.340500 15.565200 L 93.344600 15.216300 L 93.374800 14.539100 L 93.435000 13.873300 L 93.525000 13.218900 L 93.644900 12.575700 L 93.794900 11.944700 L 93.974900 11.325200 L 94.184900 10.718100 L 94.424700 10.123200 L 94.694500 9.540900 L 94.993900 8.971400 L 95.322800 8.414800 L 95.681200 7.871100 L 96.068800 7.340500 L 96.485500 6.823200 L 96.926800 6.323700 L 97.160400 6.076200 L 97.404300 5.829300 L 97.893100 5.367400 L 98.395500 4.935400 L 98.911400 4.533600 L 99.440500 4.162300 L 99.983000 3.821500 L 100.538600 3.511500 L 101.107100 3.232400 L 101.688300 2.984400 L 102.282100 2.767500 L 102.887900 2.581900 L 103.505900 2.427400 L 104.135400 2.304100 L 104.776500 2.212000 L 105.429100 2.150800 L 106.086200 2.120600 L 106.423500 2.116900 Z M 106.119100 3.256300 L 105.509100 3.284000 L 104.911600 3.340000 L 104.326600 3.423900 L 103.754100 3.535900 L 103.193400 3.676000 L 102.644800 3.844000 L 102.107600 4.040200 L 101.581800 4.264500 L 101.067100 4.517100 L 100.563300 4.798100 L 100.070200 5.107800 L 99.587900 5.446200 L 99.116100 5.813700 L 98.654700 6.210500 L 98.199500 6.640900 L 97.978200 6.865000 L 97.766100 7.089500 L 97.354400 7.555200 L 96.970700 8.031300 L 96.615000 8.518000 L 96.287000 9.015500 L 95.986500 9.523800 L 95.713500 10.043000 L 95.467700 10.573300 L 95.249200 11.115100 L 95.057900 11.668200 L 94.893700 12.233400 L 94.756500 12.810100 L 94.646600 13.399300 L 94.563900 14.000800 L 94.508400 14.614600 L 94.480400 15.247300 L 94.476800 15.565200 L 94.479900 15.876300 L 94.507000 16.501500 L 94.561900 17.114100 L 94.644100 17.714100 L 94.754000 18.302000 L 94.891100 18.877500 L 95.055800 19.441200 L 95.247900 19.993300 L 95.467600 20.533800 L 95.714800 21.063000 L 95.990000 21.581200 L 96.292900 22.088400 L 96.624000 22.584900 L 96.983200 23.070600 L 97.370900 23.545600 L 97.791600 24.014600 L 98.010400 24.242500 L 98.229100 24.460800 L 98.684300 24.884400 L 99.150900 25.279200 L 99.628500 25.645200 L 100.117800 25.982700 L 100.618600 26.291700 L 101.131100 26.572600 L 101.655600 26.825300 L 102.192100 27.050000 L 102.741200 27.246900 L 103.302700 27.415800 L 103.877200 27.556900 L 104.464700 27.670100 L 105.065400 27.755300 L 105.679700 27.812300 L 106.313800 27.841200 L 106.631500 27.844900 L 106.940900 27.841300 L 107.563200 27.809900 L 108.171200 27.746600 L 108.765400 27.651200 L 109.346100 27.524000 L 109.913300 27.365100 L 110.467800 27.174100 L 111.009600 26.951200 L 111.539100 26.696100 L 112.056500 26.408700 L 112.562000 26.088600 L 113.055900 25.735600 L 113.538200 25.349400 L 114.008900 24.929900 L 114.467900 24.476800 L 114.919600 23.984800 L 115.147000 23.718700 L 115.288500 23.597700 L 115.448000 23.532900 L 115.614200 23.520000 L 115.775700 23.554800 L 115.921100 23.633200 L 116.039100 23.751000 L 116.118200 23.904000 L 116.147100 24.087900 L 116.147100 36.361400 L 118.622500 36.361400 L 118.622500 4.055800 L 116.147100 4.055800 L 116.147100 7.054900 L 116.119200 7.235300 L 116.042600 7.386500 L 115.928100 7.504000 L 115.786400 7.583800 L 115.628200 7.621600 L 115.464300 7.613200 L 115.305400 7.554500 L 115.162200 7.441100 L 114.925400 7.185100 L 114.437800 6.690400 L 113.942100 6.229800 L 113.438500 5.803100 L 112.927000 5.410000 L 112.407500 5.050500 L 111.880100 4.724300 L 111.344600 4.431200 L 110.800700 4.170900 L 110.248300 3.943200 L 109.687200 3.748000 L 109.116900 3.585200 L 108.537400 3.454700 L 107.948000 3.356600 L 107.348900 3.290800 L 106.731800 3.257500 L 106.422500 3.253200 Z M 137.289600 2.122000 L 137.957900 2.158600 L 138.617000 2.231200 L 139.266800 2.339800 L 139.906900 2.484300 L 140.537100 2.664700 L 141.157300 2.880800 L 141.766800 3.132600 L 142.365600 3.419800 L 142.953700 3.742200 L 143.530500 4.099600 L 144.096400 4.491800 L 144.651200 4.918500 L 145.195000 5.379500 L 145.509800 5.672200 L 145.509800 3.487700 L 145.554400 3.266500 L 145.676200 3.085900 L 145.856800 2.964100 L 146.078000 2.919500 L 149.689700 2.919500 L 149.910800 2.964100 L 150.091400 3.085900 L 150.213200 3.266500 L 150.257800 3.487700 L 150.257800 27.788800 L 150.213200 28.009900 L 150.091400 28.190500 L 149.910800 28.312300 L 149.689700 28.356900 L 146.078000 28.356900 L 145.856800 28.312300 L 145.676200 28.190500 L 145.554400 28.009900 L 145.509800 27.788800 L 145.509800 25.536600 L 145.285900 25.757600 L 144.771300 26.216200 L 144.241600 26.640400 L 143.696700 27.029900 L 143.136800 27.384500 L 142.562200 27.703800 L 141.973000 27.987700 L 141.369800 28.236000 L 140.752400 28.448800 L 140.121700 28.625700 L 139.477700 28.766900 L 138.820700 28.872500 L 138.151200 28.942400 L 137.476500 28.976900 L 137.131500 28.981200 L 136.780700 28.976900 L 136.101100 28.945600 L 135.433300 28.883700 L 134.777700 28.790800 L 134.134500 28.666900 L 133.503900 28.512100 L 132.886000 28.326200 L 132.281200 28.109500 L 131.689800 27.861800 L 131.111800 27.583400 L 130.547500 27.274200 L 129.997100 26.934700 L 129.460600 26.564800 L 128.938200 26.164700 L 128.430100 25.734800 L 127.940600 25.279800 L 127.698800 25.038900 L 127.458200 24.787900 L 127.007400 24.285300 L 126.586100 23.769400 L 126.194300 23.240300 L 125.832300 22.698300 L 125.500100 22.143100 L 125.198100 21.575300 L 124.926200 20.994900 L 124.684700 20.402000 L 124.473400 19.797000 L 124.292500 19.180000 L 124.142000 18.551100 L 124.022000 17.910900 L 123.932100 17.259200 L 123.872500 16.596300 L 123.843100 15.928600 L 123.839500 15.587400 L 123.843600 15.239700 L 123.874100 14.564800 L 123.934600 13.900800 L 124.025200 13.247800 L 124.146000 12.606100 L 124.296900 11.975900 L 124.478000 11.357100 L 124.689200 10.750300 L 124.930500 10.155600 L 125.201800 9.573000 L 125.502900 9.003000 L 125.833800 8.445200 L 126.194200 7.900400 L 126.584000 7.368300 L 127.003000 6.849100 L 127.446800 6.347100 L 127.681700 6.098500 L 127.926800 5.850400 L 128.417800 5.386000 L 128.922100 4.951700 L 129.439500 4.547700 L 129.970000 4.174300 L 130.513300 3.831700 L 131.069600 3.519800 L 131.638400 3.239200 L 132.219600 2.989700 L 132.812900 2.771500 L 133.418200 2.584700 L 134.035200 2.429400 L 134.663600 2.305300 L 135.303200 2.212600 L 135.953900 2.151000 L 136.608600 2.120700 L 136.944700 2.116900 Z M 76.291700 2.122000 L 76.959900 2.158600 L 77.619100 2.231200 L 78.268900 2.339800 L 78.909000 2.484300 L 79.539200 2.664700 L 80.159300 2.880800 L 80.768800 3.132600 L 81.367600 3.419800 L 81.955600 3.742200 L 82.532600 4.099600 L 83.098500 4.491800 L 83.653400 4.918500 L 84.197000 5.379500 L 84.511900 5.672200 L 84.511900 3.487700 L 84.556500 3.266500 L 84.678300 3.085900 L 84.858900 2.964100 L 85.080100 2.919500 L 88.691800 2.919500 L 88.912900 2.964100 L 89.093500 3.085900 L 89.215300 3.266500 L 89.259900 3.487700 L 89.259900 27.788800 L 89.215300 28.009900 L 89.093500 28.190500 L 88.912900 28.312300 L 88.691800 28.356900 L 85.080100 28.356900 L 84.858900 28.312300 L 84.678300 28.190500 L 84.556500 28.009900 L 84.511900 27.788800 L 84.511900 25.536600 L 84.288000 25.757600 L 83.773400 26.216200 L 83.243700 26.640400 L 82.698800 27.030000 L 82.138900 27.384500 L 81.564300 27.703800 L 80.975100 27.987700 L 80.371800 28.236000 L 79.754500 28.448800 L 79.123800 28.625700 L 78.479800 28.766900 L 77.822800 28.872500 L 77.153200 28.942400 L 76.478600 28.976900 L 76.133500 28.981200 L 75.782800 28.976900 L 75.103200 28.945600 L 74.435400 28.883700 L 73.779700 28.790800 L 73.136600 28.666900 L 72.506000 28.512100 L 71.888100 28.326200 L 71.283400 28.109500 L 70.691800 27.861800 L 70.113800 27.583400 L 69.549500 27.274200 L 68.999000 26.934700 L 68.462700 26.564800 L 67.940300 26.164700 L 67.432200 25.734900 L 66.942600 25.279800 L 66.700700 25.038800 L 66.460300 24.787900 L 66.009500 24.285300 L 65.588200 23.769400 L 65.196400 23.240300 L 64.834300 22.698200 L 64.502200 22.143100 L 64.200200 21.575300 L 63.928200 20.994900 L 63.686700 20.402000 L 63.475400 19.796900 L 63.294600 19.180000 L 63.144100 18.551200 L 63.024000 17.910800 L 62.934200 17.259200 L 62.874600 16.596300 L 62.845200 15.928700 L 62.841500 15.587400 L 62.845600 15.239700 L 62.876200 14.564800 L 62.936700 13.900800 L 63.027300 13.247900 L 63.148000 12.606100 L 63.298900 11.975800 L 63.480000 11.357200 L 63.691200 10.750300 L 63.932500 10.155500 L 64.203900 9.573000 L 64.505000 9.003000 L 64.835900 8.445200 L 65.196300 7.900400 L 65.586000 7.368400 L 66.005000 6.849100 L 66.448800 6.347100 L 66.683700 6.098500 L 66.928900 5.850400 L 67.419900 5.386000 L 67.924200 4.951700 L 68.441600 4.547700 L 68.972000 4.174300 L 69.515400 3.831700 L 70.071700 3.519800 L 70.640400 3.239200 L 71.221600 2.989700 L 71.815000 2.771500 L 72.420300 2.584700 L 73.037300 2.429400 L 73.665700 2.305300 L 74.305300 2.212600 L 74.956000 2.151000 L 75.610700 2.120700 L 75.946800 2.116900 Z M 75.644000 3.256400 L 75.036600 3.284100 L 74.441500 3.340400 L 73.858500 3.424800 L 73.287400 3.537500 L 72.728000 3.678300 L 72.180000 3.847300 L 71.643200 4.044600 L 71.117200 4.270300 L 70.602100 4.524300 L 70.097500 4.807200 L 69.603200 5.118800 L 69.119300 5.459400 L 68.645600 5.829300 L 68.181900 6.228600 L 67.724200 6.661800 L 67.501400 6.887500 L 67.287800 7.113300 L 66.873400 7.581600 L 66.487200 8.060100 L 66.129100 8.548800 L 65.799000 9.047600 L 65.496600 9.557200 L 65.221900 10.077200 L 64.974600 10.607900 L 64.754800 11.149500 L 64.562300 11.702400 L 64.397000 12.266600 L 64.259100 12.842300 L 64.148600 13.429900 L 64.065400 14.029400 L 64.009700 14.641000 L 63.981400 15.271100 L 63.977800 15.587300 L 63.981000 15.897100 L 64.008100 16.519700 L 64.062800 17.129800 L 64.145100 17.727400 L 64.254900 18.313000 L 64.392100 18.886800 L 64.556600 19.448600 L 64.748800 19.999000 L 64.968400 20.538200 L 65.215800 21.066300 L 65.490800 21.583500 L 65.793700 22.089900 L 66.124800 22.585600 L 66.484200 23.070900 L 66.871900 23.545800 L 67.292800 24.014700 L 67.511400 24.242500 L 67.730100 24.460700 L 68.185400 24.884500 L 68.651800 25.279200 L 69.129700 25.645200 L 69.618800 25.982700 L 70.119600 26.291700 L 70.632100 26.572600 L 71.156500 26.825300 L 71.693200 27.050100 L 72.242100 27.246800 L 72.803800 27.415800 L 73.378300 27.556900 L 73.965700 27.670100 L 74.566500 27.755300 L 75.180800 27.812300 L 75.814800 27.841200 L 76.132500 27.844900 L 76.441900 27.841300 L 77.064200 27.809900 L 77.672300 27.746600 L 78.266500 27.651200 L 78.847200 27.524000 L 79.414400 27.365100 L 79.968800 27.174100 L 80.510600 26.951200 L 81.040100 26.696100 L 81.557500 26.408600 L 82.063100 26.088600 L 82.557000 25.735600 L 83.039200 25.349400 L 83.509900 24.929900 L 83.969000 24.476800 L 84.420700 23.984800 L 84.648100 23.718700 L 84.789600 23.597700 L 84.949100 23.532900 L 85.115300 23.520000 L 85.276800 23.554800 L 85.422200 23.633200 L 85.540200 23.751000 L 85.619300 23.904000 L 85.648200 24.087900 L 85.648200 27.220600 L 88.123600 27.220600 L 88.123600 4.055800 L 85.648200 4.055800 L 85.648200 7.054900 L 85.620300 7.235300 L 85.543700 7.386500 L 85.429200 7.504000 L 85.287500 7.583800 L 85.129300 7.621600 L 84.965400 7.613200 L 84.806500 7.554500 L 84.663300 7.441100 L 84.426500 7.185100 L 83.938800 6.690300 L 83.443300 6.229600 L 82.940300 5.802800 L 82.429400 5.409800 L 81.910800 5.050300 L 81.384400 4.724100 L 80.850000 4.431000 L 80.307500 4.170700 L 79.756800 3.943000 L 79.197400 3.747900 L 78.629100 3.585100 L 78.051700 3.454700 L 77.464800 3.356600 L 76.868100 3.290800 L 76.253800 3.257500 L 75.946000 3.253200 Z M 136.641900 3.256400 L 136.034500 3.284100 L 135.439400 3.340400 L 134.856400 3.424800 L 134.285300 3.537500 L 133.725900 3.678300 L 133.177900 3.847300 L 132.641100 4.044600 L 132.115200 4.270300 L 131.600100 4.524300 L 131.095400 4.807200 L 130.601200 5.118800 L 130.117200 5.459400 L 129.643500 5.829300 L 129.179900 6.228600 L 128.722200 6.661800 L 128.499400 6.887500 L 128.285800 7.113300 L 127.871300 7.581700 L 127.485100 8.060100 L 127.127000 8.548800 L 126.796900 9.047600 L 126.494500 9.557200 L 126.219800 10.077100 L 125.972600 10.607900 L 125.752700 11.149600 L 125.560200 11.702300 L 125.395000 12.266600 L 125.257100 12.842400 L 125.146500 13.429900 L 125.063300 14.029400 L 125.007600 14.641000 L 124.979400 15.271100 L 124.975800 15.587400 L 124.978900 15.897100 L 125.006000 16.519700 L 125.060700 17.129700 L 125.143100 17.727500 L 125.252800 18.313000 L 125.390000 18.886700 L 125.554600 19.448600 L 125.746800 19.999000 L 125.966400 20.538200 L 126.213700 21.066300 L 126.488700 21.583400 L 126.791700 22.089900 L 127.122700 22.585600 L 127.482100 23.070900 L 127.869800 23.545800 L 128.290600 24.014600 L 128.509400 24.242500 L 128.728100 24.460800 L 129.183300 24.884500 L 129.649700 25.279200 L 130.127500 25.645200 L 130.616800 25.982700 L 131.117600 26.291700 L 131.630100 26.572600 L 132.154600 26.825300 L 132.691100 27.050100 L 133.240000 27.246800 L 133.801700 27.415800 L 134.376200 27.556900 L 134.963700 27.670100 L 135.564400 27.755300 L 136.178700 27.812300 L 136.812700 27.841200 L 137.130500 27.844900 L 137.439800 27.841300 L 138.062200 27.809900 L 138.670200 27.746600 L 139.264400 27.651200 L 139.845100 27.524000 L 140.412300 27.365100 L 140.966800 27.174100 L 141.508500 26.951200 L 142.038100 26.696100 L 142.555500 26.408700 L 143.061000 26.088600 L 143.554900 25.735600 L 144.037100 25.349400 L 144.507800 24.929900 L 144.966900 24.476800 L 145.418600 23.984800 L 145.646000 23.718700 L 145.787500 23.597700 L 145.947000 23.532900 L 146.113200 23.520000 L 146.274700 23.554800 L 146.420100 23.633200 L 146.538100 23.751000 L 146.617200 23.904000 L 146.646100 24.087900 L 146.646100 27.220600 L 149.121500 27.220600 L 149.121500 4.055800 L 146.646100 4.055800 L 146.646100 7.054900 L 146.618200 7.235300 L 146.541600 7.386500 L 146.427100 7.504000 L 146.285400 7.583800 L 146.127200 7.621600 L 145.963300 7.613200 L 145.804400 7.554500 L 145.661200 7.441100 L 145.424400 7.185100 L 144.936700 6.690300 L 144.441400 6.229600 L 143.938200 5.802800 L 143.427300 5.409800 L 142.908600 5.050300 L 142.382400 4.724100 L 141.848000 4.431000 L 141.305500 4.170700 L 140.754800 3.943000 L 140.195300 3.747900 L 139.627000 3.585100 L 139.049600 3.454700 L 138.462700 3.356600 L 137.866100 3.290800 L 137.251700 3.257500 L 136.943900 3.253200 Z M 76.718300 5.563100 L 77.666900 5.654700 L 78.584200 5.835900 L 79.468600 6.106600 L 80.318200 6.466300 L 81.131600 6.914100 L 81.908000 7.448500 L 82.637400 8.059300 L 82.994200 8.401600 L 83.345300 8.771900 L 83.964700 9.527700 L 84.496400 10.329200 L 84.939200 11.174800 L 85.292400 12.063000 L 85.556100 12.992100 L 85.730400 13.960100 L 85.816000 14.954200 L 85.826400 15.471700 L 85.814100 16.002300 L 85.725100 17.011200 L 85.548400 17.981600 L 85.283600 18.912300 L 84.930800 19.801000 L 84.490600 20.646700 L 83.964200 21.447500 L 83.362100 22.193000 L 83.025300 22.554100 L 82.662000 22.908000 L 81.922700 23.532400 L 81.141200 24.069000 L 80.319000 24.516400 L 79.457500 24.873700 L 78.558800 25.140500 L 77.624600 25.316800 L 76.669100 25.403400 L 76.171300 25.413900 L 75.658800 25.400600 L 74.685900 25.305300 L 73.748800 25.116400 L 72.849300 24.834000 L 71.989300 24.458500 L 71.170700 23.991000 L 70.394700 23.433200 L 69.670700 22.795900 L 69.319900 22.440200 L 68.977000 22.059100 L 68.370900 21.288300 L 67.849900 20.481400 L 67.415400 19.639500 L 67.068300 18.764200 L 66.808900 17.856800 L 66.637100 16.918900 L 66.552800 15.964400 L 66.542500 15.469500 L 66.555200 14.960700 L 66.646400 13.990600 L 66.826700 13.051200 L 67.096300 12.143800 L 67.454800 11.270200 L 67.901100 10.431800 L 68.433900 9.629600 L 69.043700 8.872900 L 69.384800 8.502800 L 69.752100 8.138700 L 70.497900 7.494900 L 71.282700 6.941200 L 72.105500 6.479100 L 72.964800 6.109500 L 73.858800 5.833400 L 74.785300 5.650900 L 75.729400 5.561300 L 76.193400 5.550400 L 76.219600 5.550400 Z M 107.197300 5.563200 L 108.110000 5.653500 L 108.998900 5.831800 L 109.862200 6.097800 L 110.698400 6.450700 L 111.506500 6.889400 L 112.285800 7.412600 L 113.027500 8.011200 L 113.394400 8.347200 L 113.757900 8.712600 L 114.398800 9.460800 L 114.949100 10.257800 L 115.407500 11.102300 L 115.773000 11.992200 L 116.045800 12.925600 L 116.226100 13.900800 L 116.314600 14.904100 L 116.325400 15.426600 L 116.313600 15.961400 L 116.227000 16.978400 L 116.055200 17.955900 L 115.797500 18.892300 L 115.454200 19.786200 L 115.025300 20.635900 L 114.512100 21.439800 L 113.924800 22.187500 L 113.595800 22.549400 L 113.239300 22.904800 L 112.510200 23.530900 L 111.734300 24.068700 L 110.912800 24.516700 L 110.047900 24.874100 L 109.141400 25.140700 L 108.195200 25.316900 L 107.222900 25.403400 L 106.715200 25.413900 L 106.192700 25.400700 L 105.201900 25.305700 L 104.249600 25.117100 L 103.338100 24.834800 L 102.469200 24.459200 L 101.644700 23.991300 L 100.866200 23.432600 L 100.143600 22.794400 L 99.795100 22.438400 L 99.455100 22.057600 L 98.854100 21.287600 L 98.337700 20.482300 L 97.906900 19.642900 L 97.562800 18.770600 L 97.305600 17.867000 L 97.135300 16.933500 L 97.051700 15.984000 L 97.041500 15.491700 L 97.054200 14.985400 L 97.145400 14.019400 L 97.325800 13.082800 L 97.595300 12.177100 L 97.953500 11.303900 L 98.399500 10.464500 L 98.931900 9.659900 L 99.541300 8.899400 L 99.882200 8.526700 L 100.249400 8.159800 L 100.995000 7.510800 L 101.779900 6.952700 L 102.602900 6.486700 L 103.462500 6.114200 L 104.356900 5.835800 L 105.283900 5.651600 L 106.228300 5.561400 L 106.692300 5.550400 L 106.719100 5.550400 Z M 137.716300 5.563100 L 138.664800 5.654700 L 139.582200 5.835900 L 140.466500 6.106600 L 141.316200 6.466300 L 142.129700 6.914100 L 142.905800 7.448400 L 143.635400 8.059400 L 143.992000 8.401500 L 144.343400 8.771900 L 144.962600 9.527700 L 145.494200 10.329100 L 145.937200 11.174800 L 146.290400 12.063100 L 146.554000 12.992100 L 146.728300 13.960100 L 146.813900 14.954100 L 146.824400 15.471700 L 146.812100 16.002300 L 146.723100 17.011300 L 146.546300 17.981600 L 146.281500 18.912200 L 145.928700 19.801000 L 145.488500 20.646700 L 144.962100 21.447400 L 144.360100 22.193100 L 144.023200 22.554100 L 143.659900 22.908000 L 142.920600 23.532400 L 142.139200 24.069000 L 141.316900 24.516400 L 140.455400 24.873700 L 139.556800 25.140500 L 138.622600 25.316800 L 137.667000 25.403400 L 137.169300 25.413900 L 136.656700 25.400600 L 135.683900 25.305300 L 134.746700 25.116400 L 133.847200 24.834000 L 132.987200 24.458500 L 132.168600 23.991000 L 131.392600 23.433200 L 130.668600 22.795900 L 130.317800 22.440100 L 129.975000 22.059100 L 129.368800 21.288300 L 128.847800 20.481400 L 128.413400 19.639600 L 128.066200 18.764200 L 127.806800 17.856700 L 127.635100 16.918900 L 127.550800 15.964400 L 127.540500 15.469600 L 127.553100 14.960700 L 127.644300 13.990600 L 127.824600 13.051100 L 128.094300 12.143800 L 128.452700 11.270200 L 128.899000 10.431800 L 129.431800 9.629500 L 130.041700 8.873000 L 130.382700 8.502800 L 130.750000 8.138700 L 131.495800 7.494900 L 132.280600 6.941200 L 133.103400 6.479100 L 133.962700 6.109500 L 134.856700 5.833400 L 135.783200 5.650900 L 136.727400 5.561300 L 137.191400 5.550400 L 137.217600 5.550400 Z M 75.797300 6.694900 L 74.951400 6.773600 L 74.139900 6.932900 L 73.360600 7.173000 L 72.611600 7.494700 L 71.891500 7.898900 L 71.199300 8.387200 L 70.525700 8.970200 L 70.204200 9.289900 L 69.904800 9.613500 L 69.350800 10.298700 L 68.877400 11.010500 L 68.483400 11.749800 L 68.167800 12.518000 L 67.930100 13.316900 L 67.770500 14.147800 L 67.689100 15.025000 L 67.678600 15.469700 L 67.686800 15.901200 L 67.761700 16.764300 L 67.913400 17.595200 L 68.141700 18.395500 L 68.447100 19.166500 L 68.830500 19.909800 L 69.293100 20.626400 L 69.844200 21.325600 L 70.145500 21.659700 L 70.449600 21.969500 L 71.099700 22.543800 L 71.781100 23.034300 L 72.495000 23.442600 L 73.243200 23.769800 L 74.027600 24.016400 L 74.850100 24.182300 L 75.725700 24.266900 L 76.171800 24.277800 L 76.604400 24.269600 L 77.465600 24.193000 L 78.288500 24.038300 L 79.074700 23.805500 L 79.826300 23.494200 L 80.544800 23.103500 L 81.231700 22.632000 L 81.896500 22.069100 L 82.211700 21.761200 L 82.503600 21.449600 L 83.046000 20.780400 L 83.510100 20.075200 L 83.897200 19.332200 L 84.207900 18.550400 L 84.442200 17.727500 L 84.599800 16.862300 L 84.680000 15.941800 L 84.690300 15.471800 L 84.681900 15.015600 L 84.605400 14.111600 L 84.451000 13.250900 L 84.218900 12.431400 L 83.909300 11.651600 L 83.521400 10.909900 L 83.053900 10.204700 L 82.495800 9.525500 L 82.190200 9.204300 L 81.880300 8.905900 L 81.222900 8.353400 L 80.538300 7.881600 L 79.825900 7.488900 L 79.084200 7.174400 L 78.311300 6.937500 L 77.505600 6.778200 L 76.652500 6.696900 L 76.206100 6.686800 Z M 106.296700 6.695000 L 105.451300 6.774100 L 104.640100 6.934700 L 103.861000 7.176700 L 103.112300 7.500700 L 102.392300 7.908200 L 101.699900 8.400400 L 101.026300 8.988200 L 100.704600 9.310600 L 100.404800 9.637200 L 99.850300 10.327000 L 99.376600 11.042000 L 98.982400 11.783100 L 98.666700 12.551600 L 98.429100 13.349100 L 98.269500 14.177100 L 98.188100 15.050000 L 98.177600 15.492000 L 98.185700 15.920900 L 98.259900 16.779400 L 98.410300 17.606400 L 98.636800 18.403400 L 98.939600 19.172000 L 99.319900 19.913400 L 99.778600 20.628800 L 100.325100 21.327500 L 100.623600 21.661200 L 100.924600 21.970100 L 101.571500 22.543500 L 102.253300 23.033600 L 102.971500 23.441800 L 103.727900 23.769100 L 104.524400 24.016000 L 105.363100 24.182200 L 106.258200 24.266900 L 106.715700 24.277800 L 107.159400 24.269500 L 108.038500 24.192800 L 108.873800 24.037900 L 109.667100 23.805200 L 110.420200 23.494500 L 111.135200 23.105000 L 111.813400 22.635200 L 112.465400 22.073800 L 112.772600 21.766600 L 113.056600 21.455600 L 113.585000 20.785200 L 114.037500 20.077100 L 114.415200 19.329600 L 114.718300 18.541000 L 114.947100 17.709800 L 115.100900 16.834500 L 115.179300 15.903100 L 115.189300 15.427500 L 115.180600 14.967000 L 115.101700 14.056200 L 114.942500 13.191400 L 114.703300 12.370900 L 114.384200 11.592700 L 113.984200 10.854900 L 113.502000 10.156100 L 112.926000 9.485500 L 112.609600 9.168600 L 112.287900 8.873200 L 111.613900 8.327600 L 110.921300 7.862000 L 110.209400 7.475000 L 109.477300 7.165500 L 108.723400 6.932800 L 107.945800 6.776500 L 107.129700 6.696800 L 106.704700 6.686800 Z M 136.795300 6.694900 L 135.949300 6.773600 L 135.137800 6.932900 L 134.358500 7.173000 L 133.609500 7.494700 L 132.889400 7.898900 L 132.197200 8.387200 L 131.523600 8.970200 L 131.202100 9.289800 L 130.902800 9.613600 L 130.348700 10.298700 L 129.875400 11.010500 L 129.481400 11.749800 L 129.165800 12.518100 L 128.928000 13.316900 L 128.768400 14.147800 L 128.687000 15.024900 L 128.676600 15.469700 L 128.684800 15.901200 L 128.759700 16.764400 L 128.911300 17.595200 L 129.139600 18.395400 L 129.445100 19.166500 L 129.828400 19.909800 L 130.291000 20.626400 L 130.842200 21.325700 L 131.143400 21.659700 L 131.447500 21.969500 L 132.097600 22.543800 L 132.779000 23.034300 L 133.492900 23.442600 L 134.241100 23.769800 L 135.025500 24.016400 L 135.848100 24.182300 L 136.723600 24.266900 L 137.169800 24.277800 L 137.602300 24.269600 L 138.463500 24.193000 L 139.286400 24.038300 L 140.072600 23.805500 L 140.824200 23.494200 L 141.542800 23.103500 L 142.229600 22.632000 L 142.894400 22.069100 L 143.209600 21.761100 L 143.501600 21.449700 L 144.043900 20.780400 L 144.508100 20.075200 L 144.895200 19.332300 L 145.205800 18.550400 L 145.440100 17.727400 L 145.597800 16.862300 L 145.678000 15.941800 L 145.688300 15.471900 L 145.679800 15.015600 L 145.603300 14.111600 L 145.448900 13.250800 L 145.216900 12.431400 L 144.907400 11.651700 L 144.519300 10.909900 L 144.051700 10.204700 L 143.493900 9.525600 L 143.188100 9.204200 L 142.878400 8.906000 L 142.220700 8.353400 L 141.536300 7.881600 L 140.823900 7.488900 L 140.082100 7.174400 L 139.309300 6.937500 L 138.503500 6.778200 L 137.650500 6.696900 L 137.204100 6.686800 Z" transform="scale(1.000000,1.000000) translate(14.000000,46.000000)" fill="#ffffff" opacity="1.000000"></path>
    </g>
</svg>