<?xml version="1.0" encoding="UTF-8" standalone="yes"?>
<!DOCTYPE svg PUBLIC "-//W3C//DTD SVG 1.1//EN" "http://www.w3.org/Graphics/SVG/1.1/DTD/svg11.dtd">

<svg width="100" height="100" viewBox="0 0 100 100" xmlns="http://www.w3.org/2000/svg" xmlns:xlink="http://www.w3.org/1999/xlink" version="1.1" baseProfile="full">
    <g transform="scale(1.000000,-1.000000) translate(0,-100)">
        <path d="M 70.975054 1.041254 L 71.769354 1.162454 L 72.536054 1.359654 L 73.271054 1.628654 L 73.970354 1.965554 L 74.629954 2.366254 L 75.245754 2.826754 L 75.813954 3.343054 L 76.330254 3.911254 L 76.790754 4.527054 L 77.191454 5.186654 L 77.528354 5.885954 L 77.797354 6.620954 L 77.994554 7.387654 L 78.115754 8.181954 L 78.157054 8.999954 L 78.157054 70.157054 L 78.115754 70.975054 L 77.994554 71.769354 L 77.797354 72.536054 L 77.528354 73.271054 L 77.191454 73.970354 L 76.790754 74.629954 L 76.330254 75.245754 L 75.813954 75.813954 L 75.245754 76.330254 L 74.629954 76.790754 L 73.970354 77.191454 L 73.271054 77.528354 L 72.536054 77.797354 L 71.769354 77.994554 L 70.975054 78.115754 L 70.157054 78.157054 L 8.999954 78.157054 L 8.181954 78.115754 L 7.387654 77.994554 L 6.620954 77.797354 L 5.885954 77.528354 L 5.186654 77.191454 L 4.527054 76.790754 L 3.911254 76.330254 L 3.343054 75.813954 L 2.826754 75.245754 L 2.366254 74.629954 L 1.965554 73.970354 L 1.628654 73.271054 L 1.359654 72.536054 L 1.162454 71.769354 L 1.041254 70.975054 L 0.999954 70.157054 L 0.999954 8.999954 L 1.041254 8.181954 L 1.162454 7.387654 L 1.359654 6.620954 L 1.628654 5.885954 L 1.965554 5.186654 L 2.366254 4.527054 L 2.826754 3.911254 L 3.343054 3.343054 L 3.911254 2.826754 L 4.527054 2.366254 L 5.186654 1.965554 L 5.885954 1.628654 L 6.620954 1.359654 L 7.387654 1.162454 L 8.181954 1.041254 L 8.999954 0.999954 L 70.157054 0.999954 Z M 39.168454 28.321254 L 38.298354 28.389154 L 37.566354 28.524854 L 36.972554 28.728454 L 36.727454 28.855754 L 36.510454 28.997854 L 36.142054 29.320154 L 35.860954 29.693454 L 35.667054 30.117654 L 35.602754 30.348754 L 35.552854 30.589654 L 35.472854 31.091354 L 35.419454 31.619754 L 35.392854 32.174754 L 35.389554 32.462254 L 35.389554 37.542554 L 35.402854 37.995754 L 35.509454 38.829554 L 35.722754 39.566354 L 36.042754 40.206254 L 36.242654 40.489854 L 36.463854 40.755854 L 36.953454 41.255154 L 37.506054 41.710854 L 38.121654 42.122854 L 38.453154 42.312554 L 38.794954 42.495254 L 39.492954 42.851554 L 40.210354 43.195654 L 40.947254 43.527754 L 41.322854 43.689254 L 41.698554 43.853454 L 42.435454 44.207354 L 43.152854 44.595154 L 43.850854 45.016854 L 44.192654 45.240454 L 44.524054 45.476754 L 45.139754 46.000254 L 45.692354 46.591654 L 46.181954 47.250954 L 46.403154 47.606054 L 46.506454 47.791554 L 46.693054 48.184754 L 46.853054 48.607754 L 46.986354 49.060354 L 47.092954 49.542754 L 47.172954 50.054754 L 47.226354 50.596454 L 47.252954 51.167854 L 47.256254 51.464654 L 47.248554 51.908754 L 47.186754 52.756454 L 47.063154 53.550254 L 46.877754 54.290154 L 46.630554 54.976054 L 46.321454 55.608054 L 45.950654 56.186154 L 45.517954 56.710254 L 45.278454 56.952154 L 45.023354 57.179854 L 44.465954 57.591354 L 43.845454 57.943954 L 43.161954 58.237854 L 42.415454 58.472954 L 41.605854 58.649254 L 40.733354 58.766854 L 39.797754 58.825654 L 39.306354 58.832954 L 38.847054 58.823854 L 37.964754 58.751154 L 37.130954 58.605754 L 36.345654 58.387554 L 35.971254 58.251254 L 35.610654 58.099754 L 34.936854 57.760454 L 34.326054 57.372654 L 33.778254 56.936354 L 33.528054 56.700054 L 33.292954 56.452254 L 32.866354 55.923854 L 32.497954 55.351854 L 32.187654 54.736154 L 32.054354 54.411954 L 31.935354 54.063254 L 31.680854 53.425854 L 31.404554 52.868354 L 31.106354 52.390854 L 30.949154 52.182154 L 30.783754 51.993354 L 30.420154 51.675854 L 30.012954 51.438354 L 29.562154 51.280754 L 29.320354 51.232054 L 29.062554 51.204754 L 28.483254 51.219254 L 27.819154 51.325954 L 27.070154 51.524654 L 26.663954 51.658554 L 26.260954 51.823154 L 25.538654 52.150354 L 24.927854 52.475054 L 24.428554 52.797454 L 24.220754 52.957754 L 24.037454 53.122254 L 23.734454 53.478554 L 23.516354 53.871154 L 23.383054 54.300254 L 23.348154 54.528354 L 23.332154 54.768854 L 23.349154 55.297254 L 23.431554 55.888654 L 23.579354 56.543154 L 23.677854 56.893954 L 23.743554 57.151154 L 23.920554 57.696554 L 24.158054 58.283054 L 24.456154 58.910854 L 24.627954 59.240154 L 24.814854 59.575854 L 25.234154 60.254554 L 25.714054 60.942854 L 26.254554 61.640954 L 26.547554 61.993554 L 26.857554 62.344154 L 27.533754 63.025154 L 28.285154 63.679554 L 29.111654 64.307354 L 29.553054 64.611254 L 30.013554 64.904854 L 30.992754 65.450154 L 32.049554 65.939754 L 33.183854 66.373654 L 33.780154 66.569654 L 34.085754 66.661254 L 34.712854 66.826654 L 35.361254 66.968454 L 36.030854 67.086554 L 36.721554 67.181154 L 37.433554 67.252054 L 38.166754 67.299254 L 38.921154 67.322954 L 39.306354 67.325854 L 39.921954 67.318054 L 41.124154 67.255654 L 42.287554 67.130854 L 43.412154 66.943554 L 44.498054 66.693954 L 45.545154 66.381854 L 46.553454 66.007454 L 47.522954 65.570554 L 47.993154 65.328654 L 48.451954 65.073154 L 49.330554 64.526554 L 50.157154 63.932754 L 50.931454 63.291654 L 51.653754 62.603254 L 52.323954 61.867654 L 52.942054 61.084754 L 53.507954 60.254654 L 53.771454 59.821854 L 54.020254 59.378654 L 54.469954 58.465554 L 54.855254 57.516654 L 55.176454 56.531954 L 55.433354 55.511554 L 55.626054 54.455354 L 55.754554 53.363454 L 55.818754 52.235854 L 55.826754 51.658554 L 55.823654 51.306954 L 55.798854 50.617454 L 55.749154 49.946054 L 55.674554 49.292854 L 55.575254 48.657854 L 55.451054 48.040954 L 55.301954 47.442254 L 55.128054 46.861754 L 55.031754 46.578354 L 54.930254 46.299354 L 54.714554 45.753954 L 54.481854 45.225554 L 54.232254 44.714154 L 53.965654 44.219754 L 53.682054 43.742254 L 53.381454 43.281754 L 53.063954 42.838154 L 52.898854 42.622754 L 52.559854 42.203754 L 51.854554 41.411154 L 51.112854 40.679154 L 50.334754 40.007854 L 49.932154 39.694854 L 49.524954 39.396454 L 48.710554 38.841354 L 47.896154 38.342054 L 47.081754 37.898554 L 46.674554 37.697654 L 46.270454 37.509854 L 45.480254 37.170454 L 44.714354 36.879654 L 44.115054 36.683754 L 44.115054 32.152054 L 44.111154 31.883654 L 44.079654 31.364954 L 44.016654 30.870454 L 43.922054 30.400254 L 43.863054 30.174254 L 43.789354 29.957654 L 43.578554 29.562554 L 43.282854 29.218354 L 42.902254 28.925154 L 42.680254 28.797554 L 42.429354 28.683954 L 41.818554 28.502154 L 41.062354 28.380954 L 40.160654 28.320354 L 39.655354 28.312754 Z M 39.227554 11.835954 L 38.500454 11.874754 L 37.841154 11.952354 L 37.249754 12.068654 L 36.726254 12.223754 L 36.270554 12.417654 L 35.882754 12.650354 L 35.562854 12.921854 L 35.428254 13.072154 L 35.306154 13.233254 L 35.085654 13.592054 L 34.896554 13.999254 L 34.739054 14.454854 L 34.612954 14.959054 L 34.518454 15.511654 L 34.455454 16.112754 L 34.423954 16.762354 L 34.419954 17.105254 L 34.423354 17.405854 L 34.449954 18.006954 L 34.503354 18.608054 L 34.583254 19.209154 L 34.633254 19.509654 L 34.700554 19.803854 L 34.918654 20.354054 L 35.248354 20.853354 L 35.689454 21.301754 L 35.951854 21.506854 L 36.095854 21.603154 L 36.418754 21.777054 L 36.788354 21.926054 L 37.204654 22.050254 L 37.667654 22.149654 L 38.177254 22.224254 L 38.733454 22.273854 L 39.336354 22.298754 L 39.655354 22.301854 L 40.058254 22.297054 L 40.809654 22.258854 L 41.488354 22.182554 L 42.094254 22.068054 L 42.627454 21.915354 L 43.088054 21.724454 L 43.475854 21.495454 L 43.790954 21.228154 L 43.921154 21.080254 L 44.038554 20.921254 L 44.250654 20.565554 L 44.432454 20.159654 L 44.583954 19.703354 L 44.705154 19.196754 L 44.796054 18.639854 L 44.856654 18.032754 L 44.886954 17.375254 L 44.890654 17.027754 L 44.887354 16.727154 L 44.860754 16.126054 L 44.807354 15.524954 L 44.727354 14.923854 L 44.677454 14.623354 L 44.610154 14.329154 L 44.392054 13.778954 L 44.062354 13.279654 L 43.621254 12.831254 L 43.358854 12.626154 L 43.214754 12.529854 L 42.890554 12.355954 L 42.518554 12.206854 L 42.098554 12.082654 L 41.630754 11.983354 L 41.115154 11.908754 L 40.551654 11.859054 L 39.940254 11.834254 L 39.616554 11.831154 Z" transform="scale(1.000000,1.000000) translate(10.421446,10.421446)" fill="#ffffff" opacity="0.100000"></path>
    </g>
</svg>