<?xml version="1.0" encoding="UTF-8" standalone="yes"?>
<!DOCTYPE svg PUBLIC "-//W3C//DTD SVG 1.1//EN" "http://www.w3.org/Graphics/SVG/1.1/DTD/svg11.dtd">

<svg width="100" height="100" viewBox="0 0 100 100" xmlns="http://www.w3.org/2000/svg" xmlns:xlink="http://www.w3.org/1999/xlink" version="1.1" baseProfile="full">
    <g transform="scale(1.000000,-1.000000) translate(0,-100)">
        <path d="M 44.613400 35.423500 L 46.065600 35.853800 L 47.428600 36.571100 L 48.658000 37.575300 L 67.216300 56.133600 L 67.216300 46.823300 L 67.323100 45.205400 L 67.710300 43.958200 L 68.322800 42.829700 L 69.134100 41.846400 L 70.117400 41.035100 L 71.246000 40.422500 L 72.493200 40.035400 L 73.832200 39.900400 L 75.171200 40.035400 L 76.418300 40.422500 L 77.546900 41.035100 L 78.530200 41.846400 L 79.341500 42.829700 L 79.954100 43.958200 L 80.341200 45.205400 L 80.476200 46.544400 L 80.476200 65.846300 L 80.400600 67.342100 L 80.178900 68.794700 L 79.326500 71.540900 L 77.977500 74.026000 L 76.191200 76.191200 L 74.026000 77.977600 L 71.540800 79.326500 L 68.794700 80.179000 L 67.342100 80.400700 L 65.846300 80.476200 L 45.048400 80.476200 L 45.048400 80.450200 L 43.964600 80.341000 L 42.717400 79.953800 L 41.588900 79.341200 L 40.605600 78.529900 L 39.794300 77.546600 L 39.181700 76.418100 L 38.794600 75.170900 L 38.659600 73.831900 L 38.794600 72.492900 L 39.181700 71.245800 L 39.794300 70.117200 L 40.605600 69.133900 L 41.588900 68.322600 L 42.717400 67.710000 L 43.964600 67.322900 L 45.585300 67.216300 L 56.133600 67.216300 L 37.575300 48.658000 L 36.571100 47.428600 L 35.853800 46.065600 L 35.423500 44.613400 L 35.280000 43.116600 L 35.423500 41.619900 L 35.853800 40.167700 L 36.571100 38.804700 L 37.575300 37.575300 L 38.804700 36.571100 L 40.167700 35.853800 L 41.619900 35.423500 L 43.116700 35.280000 Z M 62.585000 1.075600 L 64.037600 1.297300 L 66.783800 2.149700 L 69.268900 3.498600 L 71.434100 5.285000 L 73.220600 7.450200 L 74.569400 9.935300 L 75.421900 12.681500 L 75.643600 14.134100 L 75.719100 15.630000 L 75.719100 31.638100 L 62.459300 31.638100 L 62.459300 15.630000 L 62.351600 15.096700 L 62.058000 14.661200 L 61.622500 14.367600 L 61.089200 14.259900 L 15.630000 14.259900 L 15.096700 14.367600 L 14.661200 14.661200 L 14.367600 15.096700 L 14.259900 15.630000 L 14.259900 61.089200 L 14.367600 61.622500 L 14.661200 62.058000 L 15.096700 62.351600 L 15.630000 62.459300 L 30.142200 62.459300 L 30.142200 75.719100 L 15.630000 75.719100 L 14.134100 75.643600 L 12.681500 75.421900 L 9.935300 74.569400 L 7.450200 73.220600 L 5.285000 71.434100 L 3.498600 69.268900 L 2.149700 66.783800 L 1.297300 64.037600 L 1.075600 62.585000 L 1.000000 61.089200 L 1.000000 15.630000 L 1.075600 14.134100 L 1.297300 12.681500 L 2.149700 9.935300 L 3.498600 7.450200 L 5.285000 5.285000 L 7.450200 3.498600 L 9.935300 2.149700 L 12.681500 1.297300 L 14.134100 1.075600 L 15.630000 1.000000 L 61.089200 1.000000 Z" transform="scale(1.000000,1.000000) translate(11.195299,10.100548)" fill="#ffffff" opacity="1.000000"></path>
    </g>
</svg>