<?xml version="1.0" encoding="UTF-8" standalone="yes"?>
<!DOCTYPE svg PUBLIC "-//W3C//DTD SVG 1.1//EN" "http://www.w3.org/Graphics/SVG/1.1/DTD/svg11.dtd">

<svg width="170" height="199" viewBox="0 0 170 199" xmlns="http://www.w3.org/2000/svg" xmlns:xlink="http://www.w3.org/1999/xlink" version="1.1" baseProfile="full">
    <g transform="scale(1.000000,-1.000000) translate(0,-199)">
        <path d="M 152.752548 199.454608 C 159.673623 199.399440 165.247954 193.735617 165.192803 186.814559 C 165.137635 179.893484 159.474093 174.319154 152.552754 174.374321 C 144.897602 174.435149 135.585065 173.884398 128.228970 171.695437 C 112.831089 167.113115 98.037502 157.046220 98.547426 140.019882 C 98.842134 130.173343 104.384565 125.885739 111.173423 122.888622 C 115.534299 120.963550 120.325078 119.475132 125.123169 117.918576 C 147.219870 110.750658 168.318869 101.719850 170.177700 69.938317 C 171.152679 53.272375 165.809250 37.344552 153.896776 23.839315 C 136.909911 4.583189 112.307914 -1.657096 87.161651 1.990265 C 51.730042 7.127398 15.671969 32.393996 2.015846 64.260434 C -0.710619 70.622358 2.240530 77.999560 8.602190 80.726021 C 14.964123 83.452482 22.342397 80.501060 25.068862 74.139944 C 35.550508 49.681782 63.565450 30.752799 90.760891 26.810738 C 107.367078 24.401684 123.870240 27.713783 135.088112 40.429545 C 142.346611 48.659755 145.733614 58.317589 145.139594 68.472871 C 144.441212 80.413465 138.090642 85.795823 130.348176 89.313954 C 122.839038 92.726090 114.343023 94.840427 106.630031 97.694782 C 88.556244 104.383586 74.222025 114.400181 73.477412 139.269320 C 72.610318 168.235708 94.879519 187.939049 121.075377 195.734504 C 130.663157 198.587786 142.774898 199.534100 152.752548 199.454608 Z M 130.855939 190.352146 C 128.098370 189.865474 126.254689 187.231212 126.741625 184.473644 C 127.228578 181.716092 129.862576 179.872394 132.620408 180.359347 C 135.377960 180.846019 137.221658 183.480281 136.734705 186.237849 C 136.247752 188.995401 133.613754 190.839099 130.855939 190.352146 Z M 91.530373 169.203920 C 89.709399 167.076612 89.958140 163.871037 92.085184 162.050062 C 94.212500 160.228808 97.418067 160.477565 99.239314 162.604873 C 101.060305 164.732181 100.811547 167.937757 98.684511 169.758731 C 96.557195 171.579722 93.351628 171.331245 91.530373 169.203920 Z M 81.491070 147.989734 C 81.038459 145.226489 82.914320 142.615215 85.677829 142.162604 C 88.441338 141.709728 91.052356 143.585853 91.504959 146.349362 C 91.957843 149.112607 90.081701 151.723881 87.318465 152.176493 C 84.554964 152.629368 81.943673 150.753243 81.491070 147.989734 Z M 101.573463 107.932807 C 104.085789 106.696117 107.129691 107.732187 108.366117 110.244513 C 109.602807 112.757120 108.566736 115.800740 106.054130 117.037430 C 103.541804 118.273856 100.497919 117.238050 99.261493 114.725444 C 98.025059 112.212854 99.060873 109.169233 101.573463 107.932807 Z M 152.693074 191.987914 C 149.892797 192.010357 147.601356 189.755155 147.578913 186.954879 C 147.556750 184.154603 149.812216 181.863178 152.612229 181.840735 C 155.412505 181.818555 157.703946 184.073757 157.726373 186.874034 C 157.748552 189.674310 155.493350 191.965751 152.693074 191.987914 Z M 84.233753 124.452472 C 85.413947 121.913115 88.433763 120.809170 90.973128 121.989356 C 93.512765 123.169278 94.616438 126.189102 93.436252 128.728740 C 92.256330 131.268096 89.236514 132.372041 86.696877 131.191855 C 84.157512 130.011933 83.053839 126.992109 84.233753 124.452472 Z M 121.923815 100.434214 C 124.583491 99.558481 127.454067 101.006880 128.329817 103.666820 C 129.205286 106.326777 127.756886 109.197089 125.096930 110.072839 C 122.437254 110.948572 119.566677 109.499908 118.690928 106.840216 C 117.815459 104.180276 119.263858 101.309963 121.923815 100.434214 Z M 139.887275 92.606035 C 142.224131 91.063011 145.374274 91.707578 146.917035 94.044434 C 148.460075 96.381290 147.815491 99.531169 145.478652 101.074194 C 143.141796 102.616954 139.991917 101.972650 138.448892 99.635795 C 136.906116 97.298939 137.550700 94.149076 139.887275 92.606035 Z M 150.705277 79.031570 C 151.626441 76.387027 154.521078 74.988927 157.165621 75.909002 C 159.809884 76.830183 161.209090 79.725084 160.287909 82.369627 C 159.366745 85.013906 156.471844 86.413095 153.827565 85.491931 C 151.183021 84.570751 149.784096 81.675849 150.705277 79.031570 Z M 152.332925 60.580629 C 151.988751 57.801162 153.965459 55.265040 156.744381 54.921658 C 159.523567 54.578276 162.059145 56.554736 162.403599 59.331496 C 162.747790 62.110930 160.771083 64.647052 157.992161 64.993141 C 155.212974 65.336523 152.677396 63.360063 152.332925 60.580629 Z M 146.153237 42.903486 C 144.704557 40.505258 145.474048 37.385115 147.870378 35.935907 C 150.266989 34.486699 153.388749 35.257262 154.837413 37.652784 C 156.286093 40.048306 155.516602 43.171155 153.119991 44.620363 C 150.723660 46.069571 147.601901 45.299008 146.153237 42.903486 Z M 133.482907 28.811523 C 131.245544 27.127089 130.795903 23.944766 132.479544 21.706050 C 134.163169 19.470040 137.346829 19.018501 139.584456 20.702968 C 141.822083 22.387401 142.271724 25.569724 140.587818 27.808407 C 138.904194 30.047123 135.720533 30.495956 133.482907 28.811523 Z M 116.421402 20.608310 C 113.715750 19.886429 112.104868 17.104256 112.826485 14.397795 C 113.548119 11.691335 116.330556 10.079909 119.036208 10.801823 C 121.742123 11.523704 123.353022 14.305877 122.631388 17.012337 C 121.909755 19.718797 119.127053 21.330224 116.421402 20.608310 Z M 97.155267 18.696770 C 94.358233 18.831958 91.979469 16.668955 91.846444 13.870577 C 91.713690 11.072198 93.876965 8.695588 96.673999 8.560400 C 99.471024 8.427919 101.849796 10.590922 101.982822 13.389300 C 102.115567 16.187679 99.952300 18.564289 97.155267 18.696770 Z M 77.686078 22.049432 C 74.997729 22.833527 72.178797 21.286955 71.394438 18.599439 C 70.610351 15.909184 72.156362 13.091894 74.844702 12.307799 C 77.532770 11.523704 80.351975 13.070243 81.136062 15.757791 C 81.920421 18.445307 80.374418 21.265337 77.686078 22.049432 Z M 59.194566 29.549642 C 56.715220 30.850130 53.645377 29.895730 52.344063 27.416376 C 51.042477 24.934316 51.999064 21.865562 54.478401 20.565074 C 56.958020 19.261846 60.027590 20.218985 61.328904 22.698339 C 62.630490 25.177660 61.674175 28.249121 59.194566 29.549642 Z M 42.471302 40.494432 C 40.288835 42.249166 37.092459 41.900371 35.337990 39.718456 C 33.583529 37.536541 33.930954 34.340686 36.113430 32.585952 C 38.295897 30.831219 41.492272 31.180013 43.246742 33.361928 C 45.001476 35.543843 44.653778 38.739698 42.471302 40.494432 Z M 28.382586 54.494477 C 26.628929 56.676392 23.432554 57.025186 21.249542 55.270453 C 19.066261 53.518426 18.717747 50.319864 20.471672 48.137949 C 22.225325 45.956001 25.421704 45.607240 27.604716 47.359267 C 29.787724 49.114000 30.136243 52.309823 28.382586 54.494477 Z M 18.205925 71.198259 C 17.102793 73.772238 14.117578 74.967292 11.543608 73.864156 C 8.969633 72.761037 7.775655 69.773376 8.878787 67.202120 C 9.981919 64.628141 12.967134 63.433070 15.541105 64.536222 C 18.114811 65.639342 19.308785 68.624297 18.205925 71.198259 Z M 109.601998 183.137989 C 107.113188 181.854250 106.134975 178.791437 107.418714 176.302908 C 108.702452 173.814098 111.765265 172.835885 114.253811 174.119623 C 116.742605 175.403362 117.720834 178.466175 116.437079 180.954704 C 115.153341 183.443514 112.090528 184.421727 109.601998 183.137989 Z" transform="scale(1.000000,1.000000) translate(-0.690928,-0.731549)" fill="#88e2ef" opacity="1.000000"></path>
    </g>
</svg>