<?xml version="1.0" encoding="UTF-8" standalone="yes"?>
<!DOCTYPE svg PUBLIC "-//W3C//DTD SVG 1.1//EN" "http://www.w3.org/Graphics/SVG/1.1/DTD/svg11.dtd">

<svg width="140" height="140" viewBox="0 0 140 140" xmlns="http://www.w3.org/2000/svg" xmlns:xlink="http://www.w3.org/1999/xlink" version="1.1" baseProfile="full">
    <g transform="scale(1.000000,-1.000000) translate(0,-140)">
        <path d="M 131.000000 66.000000 C 131.000000 101.898509 101.898509 131.000000 66.000000 131.000000 C 30.101491 131.000000 1.000000 101.898509 1.000000 66.000000 C 1.000000 30.101491 30.101491 1.000000 66.000000 1.000000 C 101.898509 1.000000 131.000000 30.101491 131.000000 66.000000 Z" transform="scale(1.000000,1.000000) translate(4.000000,4.000000)" fill="rgb(15, 9, 28)" opacity="1.000000"></path>
        <path d="M 86.000000 51.000000 C 86.000000 70.329966 70.329966 86.000000 51.000000 86.000000 C 31.670034 86.000000 16.000000 70.329966 16.000000 51.000000 C 16.000000 31.670034 31.670034 16.000000 51.000000 16.000000 C 70.329966 16.000000 86.000000 31.670034 86.000000 51.000000 Z M 101.000000 51.000000 C 101.000000 23.385763 78.614237 1.000000 51.000000 1.000000 C 23.385763 1.000000 1.000000 23.385763 1.000000 51.000000 C 1.000000 78.614237 23.385763 101.000000 51.000000 101.000000 C 78.614237 101.000000 101.000000 78.614237 101.000000 51.000000 Z" transform="scale(1.000000,1.000000) translate(19.000000,19.000000)" fill="#afff3d" opacity="1.000000"></path>
        <path d="M 21.071052 6.807360 C 21.071052 3.547088 23.618140 1.000000 26.878413 1.000000 C 30.036802 1.000000 32.685773 3.547088 32.685773 6.807360 L 32.685773 20.969169 L 47.153232 20.969169 C 50.209737 20.969169 52.756825 23.414373 52.756825 26.572762 C 52.756825 29.629268 50.209737 32.176355 47.153232 32.176355 L 32.685773 32.176355 L 32.685773 46.338164 C 32.685773 49.598436 30.036802 52.145524 26.878413 52.145524 C 23.618140 52.145524 21.071052 49.598436 21.071052 46.338164 L 21.071052 32.176355 L 6.603593 32.176355 C 3.547088 32.176355 1.000000 29.629268 1.000000 26.572762 C 1.000000 23.414373 3.547088 20.969169 6.603593 20.969169 L 21.071052 20.969169 Z" transform="scale(1.000000,1.000000) translate(43.121587,43.427238)" fill="#afff3d" opacity="1.000000"></path>
        <path d="M 26.396329 10.342053 L 26.425729 9.739653 L 24.222000 9.632100 L 26.404523 9.955492 L 26.490923 9.372392 L 24.308400 9.049000 L 26.448471 9.585734 L 26.589171 9.024734 L 24.449100 8.488000 L 26.525852 9.233044 L 26.718252 8.696744 L 24.641500 7.951700 L 26.635025 8.897135 L 26.876325 8.388335 L 24.882800 7.442900 L 26.773964 8.579337 L 27.061564 8.100737 L 25.170400 6.964300 L 26.941470 8.280088 L 27.272670 7.834288 L 25.501600 6.518500 L 27.135772 8.000887 L 27.507872 7.590687 L 25.873700 6.108300 L 27.356087 7.742472 L 27.766287 7.370372 L 26.283900 5.736200 L 27.599688 7.507270 L 28.045488 7.176070 L 26.729700 5.405000 L 27.865962 7.296269 L 28.344662 7.008669 L 27.208400 5.117400 L 28.153987 7.110853 L 28.662687 6.869553 L 27.717100 4.876100 L 28.462144 6.952852 L 28.998444 6.760452 L 28.253400 4.683700 L 28.790134 6.823771 L 29.351134 6.683071 L 28.814400 4.543000 L 29.137792 6.725523 L 29.720892 6.639123 L 29.397500 4.456600 L 29.505035 6.660330 L 30.107535 6.630930 L 30.000000 4.427200 L 29.889388 6.630778 L 30.475088 6.660178 L 30.585700 4.456600 L 30.255380 6.638085 L 30.825980 6.724485 L 31.156300 4.543000 L 30.611715 6.681087 L 31.164115 6.821787 L 31.708700 4.683700 L 30.957204 6.758126 L 31.488304 6.950526 L 32.239800 4.876100 L 31.291017 6.868034 L 31.797617 7.109334 L 32.746400 5.117400 L 31.610661 7.008983 L 32.089661 7.296583 L 33.225400 5.405000 L 31.914354 7.179584 L 32.362654 7.510784 L 33.673700 5.736200 L 32.199415 7.377685 L 32.613715 7.749785 L 34.088000 6.108300 L 32.464309 7.602159 L 32.841709 8.012359 L 34.465400 6.518500 L 32.705733 7.849500 L 33.042933 8.295300 L 34.802600 6.964300 L 32.922450 8.118868 L 33.216350 8.597468 L 35.096500 7.442900 L 33.112587 8.408342 L 33.360187 8.917142 L 35.344100 7.951700 L 33.274180 8.715521 L 33.472080 9.251821 L 35.542000 8.488000 L 33.406125 9.041196 L 33.551425 9.602196 L 35.687300 9.049000 L 33.506488 9.383733 L 33.595988 9.966833 L 35.776800 9.632100 L 33.573271 9.743666 L 33.603771 10.346066 L 35.807300 10.234500 L 33.600948 10.234500 L 33.600948 24.396400 C 33.600948 25.614935 34.588765 26.602752 35.807300 26.602752 L 50.274800 26.602752 L 50.274800 24.396400 L 50.165124 26.600024 L 50.731724 26.628224 L 50.841400 24.424600 L 50.513161 26.606399 L 51.064861 26.689399 L 51.393100 24.507600 L 50.851384 26.646416 L 51.385184 26.781616 L 51.926900 24.642800 L 51.178290 26.718269 L 51.691190 26.903269 L 52.439800 24.827800 L 51.493732 26.821024 L 51.982732 27.053124 L 52.928800 25.059900 L 51.795509 26.952951 L 52.257709 27.229651 L 53.391000 25.336600 L 52.081494 27.112320 L 52.513794 27.431120 L 53.823300 25.655400 L 52.349942 27.297717 L 52.749442 27.656117 L 54.222800 26.013800 L 52.598922 27.507456 L 52.962522 27.902756 L 54.586400 26.409100 L 52.826195 27.739388 L 53.151095 28.169288 L 54.911300 26.839000 L 53.030091 27.991841 L 53.313091 28.453641 L 55.194300 27.300800 L 53.209296 28.263998 L 53.447596 28.755098 L 55.432600 27.791900 L 53.361923 28.553666 L 53.552523 29.071766 L 55.623200 28.310000 L 53.486578 28.860306 L 53.626278 29.402706 L 55.762900 28.852400 L 53.581808 29.185306 L 53.667908 29.749406 L 55.849000 29.416500 L 53.645443 29.527528 L 53.674843 30.111028 L 55.878400 30.000000 L 53.675012 29.885670 L 53.645612 30.452270 L 55.849000 30.566600 L 53.669036 30.226388 L 53.582936 30.778088 L 55.762900 31.118300 L 53.628434 30.559692 L 53.488734 31.093492 L 55.623200 31.652100 L 53.555034 30.883544 L 53.364434 31.396444 L 55.432600 32.165000 L 53.449222 31.198458 L 53.210922 31.687458 L 55.194300 32.654000 L 53.312647 31.501884 L 53.029647 31.964084 L 54.911300 33.116200 L 53.147541 31.790627 L 52.822641 32.222927 L 54.586400 33.548500 L 52.954867 32.063209 L 52.591267 32.462609 L 54.222800 33.947900 L 52.737489 32.316385 L 52.337989 32.680085 L 53.823300 34.311600 L 52.497988 32.547645 L 52.065688 32.872445 L 53.391000 34.636400 L 52.238588 32.754928 L 51.776388 33.038028 L 52.928800 34.919500 L 51.962258 32.936122 L 51.473258 33.174422 L 52.439800 35.157800 L 51.671598 33.089502 L 51.158698 33.280002 L 51.926900 35.348300 L 51.367918 33.213932 L 50.834118 33.353732 L 51.393100 35.488100 L 51.052888 33.308136 L 50.501188 33.394236 L 50.841400 35.574200 L 50.727457 33.370792 L 50.160857 33.400092 L 50.274800 35.603500 L 50.274800 33.397148 L 35.807300 33.397148 C 34.588765 33.397148 33.600948 34.384965 33.600948 35.603500 L 33.600948 49.765400 L 35.807300 49.765400 L 33.603771 49.653834 L 33.573271 50.256234 L 35.776800 50.367800 L 33.595988 50.033067 L 33.506488 50.616167 L 35.687300 50.950900 L 33.551425 50.397704 L 33.406125 50.958704 L 35.542000 51.511900 L 33.472080 50.748079 L 33.274180 51.284379 L 35.344100 52.048200 L 33.360187 51.082758 L 33.112587 51.591558 L 35.096500 52.557000 L 33.216350 51.402432 L 32.922450 51.881032 L 34.802600 53.035600 L 33.042933 51.704600 L 32.705733 52.150400 L 34.465400 53.481400 L 32.841709 51.987541 L 32.464309 52.397741 L 34.088000 53.891600 L 32.613715 52.250115 L 32.199415 52.622215 L 33.673700 54.263700 L 32.362654 52.489116 L 31.914354 52.820316 L 33.225400 54.594900 L 32.089661 52.703317 L 31.610661 52.990917 L 32.746400 54.882500 L 31.797617 52.890566 L 31.291017 53.131866 L 32.239800 55.123800 L 31.488304 53.049374 L 30.957204 53.241774 L 31.708700 55.316200 L 31.164115 53.178113 L 30.611715 53.318813 L 31.156300 55.456900 L 30.825980 53.275415 L 30.255380 53.361815 L 30.585700 55.543300 L 30.475088 53.339722 L 29.889388 53.369122 L 30.000000 55.572700 L 30.107535 53.368970 L 29.505035 53.339570 L 29.397500 55.543300 L 29.720892 53.360777 L 29.137792 53.274377 L 28.814400 55.456900 L 29.351134 53.316829 L 28.790134 53.176129 L 28.253400 55.316200 L 28.998444 53.239448 L 28.462144 53.047048 L 27.717100 55.123800 L 28.662687 53.130347 L 28.153987 52.889047 L 27.208400 54.882500 L 28.344662 52.991231 L 27.865962 52.703631 L 26.729700 54.594900 L 28.045488 52.823830 L 27.599688 52.492630 L 26.283900 54.263700 L 27.766287 52.629528 L 27.356087 52.257428 L 25.873700 53.891600 L 27.507872 52.409213 L 27.135772 51.999013 L 25.501600 53.481400 L 27.272670 52.165612 L 26.941470 51.719812 L 25.170400 53.035600 L 27.061564 51.899163 L 26.773964 51.420563 L 24.882800 52.557000 L 26.876325 51.611565 L 26.635025 51.102765 L 24.641500 52.048200 L 26.718252 51.303156 L 26.525852 50.766856 L 24.449100 51.511900 L 26.589171 50.975166 L 26.448471 50.414166 L 24.308400 50.950900 L 26.490923 50.627508 L 26.404523 50.044408 L 24.222000 50.367800 L 26.425729 50.260247 L 26.396329 49.657847 L 24.192600 49.765400 L 26.398952 49.765400 L 26.398952 35.603500 C 26.398952 34.384965 25.411135 33.397148 24.192600 33.397148 L 9.725100 33.397148 L 9.725100 35.603500 L 9.839043 33.400092 L 9.272443 33.370792 L 9.158500 35.574200 L 9.498712 33.394236 L 8.947012 33.308136 L 8.606800 35.488100 L 9.165782 33.353732 L 8.631982 33.213932 L 8.073000 35.348300 L 8.841202 33.280002 L 8.328302 33.089502 L 7.560100 35.157800 L 8.526642 33.174422 L 8.037642 32.936122 L 7.071100 34.919500 L 8.223512 33.038028 L 7.761312 32.754928 L 6.608900 34.636400 L 7.934212 32.872445 L 7.501912 32.547645 L 6.176600 34.311600 L 7.661911 32.680085 L 7.262411 32.316385 L 5.777100 33.947900 L 7.408633 32.462609 L 7.045033 32.063209 L 5.413500 33.548500 L 7.177259 32.222927 L 6.852359 31.790627 L 5.088600 33.116200 L 6.970253 31.964084 L 6.687253 31.501884 L 4.805600 32.654000 L 6.788978 31.687458 L 6.550678 31.198458 L 4.567300 32.165000 L 6.635466 31.396444 L 6.444866 30.883544 L 4.376700 31.652100 L 6.511166 31.093492 L 6.371466 30.559692 L 4.237000 31.118300 L 6.416964 30.778088 L 6.330864 30.226388 L 4.150900 30.566600 L 6.354288 30.452270 L 6.324888 29.885670 L 4.121500 30.000000 L 6.325057 30.111028 L 6.354457 29.527528 L 4.150900 29.416500 L 6.331992 29.749406 L 6.418092 29.185306 L 4.237000 28.852400 L 6.373622 29.402706 L 6.513322 28.860306 L 4.376700 28.310000 L 6.447377 29.071766 L 6.637977 28.553666 L 4.567300 27.791900 L 6.552304 28.755098 L 6.790604 28.263998 L 4.805600 27.300800 L 6.686809 28.453641 L 6.969809 27.991841 L 5.088600 26.839000 L 6.848805 28.169288 L 7.173705 27.739388 L 5.413500 26.409100 L 7.037378 27.902756 L 7.400978 27.507456 L 5.777100 26.013800 L 7.250458 27.656117 L 7.649958 27.297717 L 6.176600 25.655400 L 7.486106 27.431120 L 7.918406 27.112320 L 6.608900 25.336600 L 7.742191 27.229651 L 8.204391 26.952951 L 7.071100 25.059900 L 8.017168 27.053124 L 8.506168 26.821024 L 7.560100 24.827800 L 8.308710 26.903269 L 8.821610 26.718269 L 8.073000 24.642800 L 8.614716 26.781616 L 9.148516 26.646416 L 8.606800 24.507600 L 8.935039 26.689399 L 9.486739 26.606399 L 9.158500 24.424600 L 9.268176 26.628224 L 9.834776 26.600024 L 9.725100 24.396400 L 9.725100 26.602752 L 24.192600 26.602752 C 25.411135 26.602752 26.398952 25.614935 26.398952 24.396400 L 26.398952 10.234500 L 24.192600 10.234500 L 26.396329 10.342053 Z M 21.988871 10.126947 L 21.986248 10.234500 L 21.986248 24.396400 L 24.192600 22.190048 L 9.725100 22.190048 L 9.615424 22.192776 L 9.048824 22.220976 L 8.830261 22.242801 L 8.278561 22.325801 L 8.065084 22.368784 L 7.531284 22.503984 L 7.324390 22.567331 L 6.811490 22.752331 L 6.614032 22.834576 L 6.125032 23.066676 L 5.937809 23.166849 L 5.475609 23.443549 L 5.299394 23.560880 L 4.867094 23.879680 L 4.703242 24.013083 L 4.303742 24.371483 L 4.153222 24.520144 L 3.789622 24.915444 L 3.653295 25.078812 L 3.328395 25.508712 L 3.207391 25.686159 L 2.924391 26.147959 L 2.820596 26.337602 L 2.582296 26.828702 L 2.496623 27.030134 L 2.306023 27.548234 L 2.240078 27.759694 L 2.100378 28.302094 L 2.055908 28.519494 L 1.969808 29.083594 L 1.947343 29.305472 L 1.917943 29.888972 C 1.914161 29.964046 1.914217 30.039263 1.918112 30.114330 L 1.947512 30.680930 C 1.951437 30.756576 1.959256 30.831970 1.970936 30.906812 L 2.057036 31.458512 L 2.102534 31.676908 L 2.242234 32.210708 L 2.308534 32.420656 L 2.499134 32.933556 L 2.583922 33.131542 L 2.822222 33.620542 L 2.923947 33.806116 L 3.206947 34.268316 L 3.324841 34.441773 L 3.649741 34.874073 L 3.781967 35.033791 L 4.145567 35.433191 L 4.291789 35.579415 L 4.691289 35.943115 L 4.851288 36.075555 L 5.283588 36.400355 L 5.456488 36.517872 L 5.918688 36.800972 L 6.104558 36.902878 L 6.593558 37.141178 L 6.791898 37.226098 L 7.304798 37.416598 L 7.514018 37.482668 L 8.047818 37.622468 L 8.266588 37.668064 L 8.818288 37.754164 C 8.893258 37.765864 8.968781 37.773689 9.044557 37.777608 L 9.611157 37.806908 L 9.725100 37.809852 L 24.192600 37.809852 L 21.986248 35.603500 L 21.986248 49.765400 L 21.988871 49.872953 L 22.018271 50.475353 L 22.039477 50.691192 L 22.125877 51.274292 L 22.168329 51.487634 L 22.309029 52.048634 L 22.372348 52.256944 L 22.564748 52.793244 L 22.647975 52.993635 L 22.889275 53.502435 L 22.991636 53.693437 L 23.279236 54.172037 L 23.399330 54.351388 L 23.730530 54.797188 L 23.867428 54.963787 L 24.239528 55.373987 L 24.391313 55.525772 L 24.801513 55.897872 L 24.968112 56.034770 L 25.413912 56.365970 L 25.593438 56.486169 L 26.072138 56.773769 L 26.262813 56.875953 L 26.771513 57.117253 L 26.972056 57.200552 L 27.508356 57.392952 L 27.716666 57.456271 L 28.277666 57.596971 L 28.491008 57.639423 L 29.074108 57.725823 L 29.289965 57.747030 L 29.892465 57.776430 L 30.110612 57.776278 L 30.696312 57.746878 L 30.916020 57.724785 L 31.486620 57.638385 L 31.700885 57.594987 L 32.253285 57.454287 L 32.460196 57.390626 L 32.991296 57.198226 L 33.188583 57.115734 L 33.695183 56.874434 L 33.882139 56.774083 L 34.361139 56.486483 L 34.536446 56.369484 L 34.984746 56.038284 L 35.147985 55.905185 L 35.562285 55.533085 L 35.711691 55.385459 L 36.089091 54.975259 L 36.225067 54.812400 L 36.562267 54.366600 L 36.682750 54.190168 L 36.976650 53.711568 L 37.080413 53.522442 L 37.328013 53.013642 L 37.414020 52.812021 L 37.611920 52.275721 L 37.677875 52.065096 L 37.823175 51.504096 L 37.868112 51.285633 L 37.957612 50.702533 C 37.968964 50.628577 37.976546 50.554092 37.980329 50.479366 L 38.010829 49.876966 L 38.013652 49.765400 L 38.013652 35.603500 L 35.807300 37.809852 L 50.274800 37.809852 L 50.388743 37.806908 L 50.955343 37.777608 C 51.031119 37.773689 51.106642 37.765864 51.181612 37.754164 L 51.733312 37.668064 L 51.952082 37.622468 L 52.485882 37.482668 L 52.695102 37.416598 L 53.208002 37.226098 L 53.406342 37.141178 L 53.895342 36.902878 L 54.081212 36.800972 L 54.543412 36.517872 L 54.716312 36.400355 L 55.148612 36.075555 L 55.308611 35.943115 L 55.708111 35.579415 L 55.854333 35.433191 L 56.217933 35.033791 L 56.350159 34.874073 L 56.675059 34.441773 L 56.792953 34.268316 L 57.075953 33.806116 L 57.177678 33.620542 L 57.415978 33.131542 L 57.500766 32.933556 L 57.691366 32.420656 L 57.757666 32.210708 L 57.897366 31.676908 L 57.942864 31.458512 L 58.028964 30.906812 C 58.040644 30.831970 58.048463 30.756576 58.052388 30.680930 L 58.081788 30.114330 C 58.085683 30.039263 58.085739 29.964046 58.081957 29.888972 L 58.052557 29.305472 L 58.030092 29.083594 L 57.943992 28.519494 L 57.899522 28.302094 L 57.759822 27.759694 L 57.693877 27.548234 L 57.503277 27.030134 L 57.417604 26.828702 L 57.179304 26.337602 L 57.075509 26.147959 L 56.792509 25.686159 L 56.671505 25.508712 L 56.346605 25.078812 L 56.210278 24.915444 L 55.846678 24.520144 L 55.696158 24.371483 L 55.296658 24.013083 L 55.132806 23.879680 L 54.700506 23.560880 L 54.524291 23.443549 L 54.062091 23.166849 L 53.874868 23.066676 L 53.385868 22.834576 L 53.188410 22.752331 L 52.675510 22.567331 L 52.468616 22.503984 L 51.934816 22.368784 L 51.721339 22.325801 L 51.169639 22.242801 L 50.951076 22.220976 L 50.384476 22.192776 L 50.274800 22.190048 L 35.807300 22.190048 L 38.013652 24.396400 L 38.013652 10.234500 L 38.010829 10.122934 L 37.980329 9.520534 C 37.976546 9.445808 37.968964 9.371323 37.957612 9.297367 L 37.868112 8.714267 L 37.823175 8.495804 L 37.677875 7.934804 L 37.611920 7.724179 L 37.414020 7.187879 L 37.328013 6.986258 L 37.080413 6.477458 L 36.976650 6.288332 L 36.682750 5.809732 L 36.562267 5.633300 L 36.225067 5.187500 L 36.089091 5.024641 L 35.711691 4.614441 L 35.562285 4.466815 L 35.147985 4.094715 L 34.984746 3.961616 L 34.536446 3.630416 L 34.361139 3.513417 L 33.882139 3.225817 L 33.695183 3.125466 L 33.188583 2.884166 L 32.991296 2.801674 L 32.460196 2.609274 L 32.253285 2.545613 L 31.700885 2.404913 L 31.486620 2.361515 L 30.916020 2.275115 L 30.696312 2.253022 L 30.110612 2.223622 L 29.892465 2.223470 L 29.289965 2.252870 L 29.074108 2.274077 L 28.491008 2.360477 L 28.277666 2.402929 L 27.716666 2.543629 L 27.508356 2.606948 L 26.972056 2.799348 L 26.771513 2.882647 L 26.262813 3.123947 L 26.072138 3.226131 L 25.593438 3.513731 L 25.413912 3.633930 L 24.968112 3.965130 L 24.801513 4.102028 L 24.391313 4.474128 L 24.239528 4.625913 L 23.867428 5.036113 L 23.730530 5.202712 L 23.399330 5.648512 L 23.279236 5.827863 L 22.991636 6.306463 L 22.889275 6.497465 L 22.647975 7.006265 L 22.564748 7.206656 L 22.372348 7.742956 L 22.309029 7.951266 L 22.168329 8.512266 L 22.125877 8.725608 L 22.039477 9.308708 L 22.018271 9.524547 L 21.988871 10.126947 Z" transform="scale(1.000000,1.000000) translate(40.000000,40.000000)" fill="#afff3d" opacity="1.000000"></path>
    </g>
</svg>